G75*
%MOIN*%
%OFA0B0*%
%FSLAX25Y25*%
%IPPOS*%
%LPD*%
%AMOC8*
5,1,8,0,0,1.08239X$1,22.5*
%
%ADD10C,0.00600*%
%ADD11C,0.00400*%
%ADD12C,0.00300*%
%ADD13C,0.00500*%
%ADD14C,0.00800*%
D10*
X0001300Y0001300D02*
X0001300Y0211300D01*
X0366300Y0211300D01*
X0366300Y0001300D01*
X0001300Y0001300D01*
X0007800Y0021300D02*
X0007804Y0021631D01*
X0007816Y0021962D01*
X0007837Y0022293D01*
X0007865Y0022623D01*
X0007902Y0022953D01*
X0007946Y0023281D01*
X0007999Y0023608D01*
X0008059Y0023934D01*
X0008128Y0024258D01*
X0008205Y0024580D01*
X0008289Y0024901D01*
X0008381Y0025219D01*
X0008481Y0025535D01*
X0008589Y0025848D01*
X0008705Y0026159D01*
X0008828Y0026466D01*
X0008958Y0026771D01*
X0009096Y0027072D01*
X0009241Y0027370D01*
X0009394Y0027664D01*
X0009554Y0027954D01*
X0009721Y0028240D01*
X0009894Y0028522D01*
X0010075Y0028800D01*
X0010263Y0029073D01*
X0010457Y0029342D01*
X0010657Y0029606D01*
X0010864Y0029864D01*
X0011078Y0030118D01*
X0011297Y0030366D01*
X0011523Y0030609D01*
X0011754Y0030846D01*
X0011991Y0031077D01*
X0012234Y0031303D01*
X0012482Y0031522D01*
X0012736Y0031736D01*
X0012994Y0031943D01*
X0013258Y0032143D01*
X0013527Y0032337D01*
X0013800Y0032525D01*
X0014078Y0032706D01*
X0014360Y0032879D01*
X0014646Y0033046D01*
X0014936Y0033206D01*
X0015230Y0033359D01*
X0015528Y0033504D01*
X0015829Y0033642D01*
X0016134Y0033772D01*
X0016441Y0033895D01*
X0016752Y0034011D01*
X0017065Y0034119D01*
X0017381Y0034219D01*
X0017699Y0034311D01*
X0018020Y0034395D01*
X0018342Y0034472D01*
X0018666Y0034541D01*
X0018992Y0034601D01*
X0019319Y0034654D01*
X0019647Y0034698D01*
X0019977Y0034735D01*
X0020307Y0034763D01*
X0020638Y0034784D01*
X0020969Y0034796D01*
X0021300Y0034800D01*
X0021631Y0034796D01*
X0021962Y0034784D01*
X0022293Y0034763D01*
X0022623Y0034735D01*
X0022953Y0034698D01*
X0023281Y0034654D01*
X0023608Y0034601D01*
X0023934Y0034541D01*
X0024258Y0034472D01*
X0024580Y0034395D01*
X0024901Y0034311D01*
X0025219Y0034219D01*
X0025535Y0034119D01*
X0025848Y0034011D01*
X0026159Y0033895D01*
X0026466Y0033772D01*
X0026771Y0033642D01*
X0027072Y0033504D01*
X0027370Y0033359D01*
X0027664Y0033206D01*
X0027954Y0033046D01*
X0028240Y0032879D01*
X0028522Y0032706D01*
X0028800Y0032525D01*
X0029073Y0032337D01*
X0029342Y0032143D01*
X0029606Y0031943D01*
X0029864Y0031736D01*
X0030118Y0031522D01*
X0030366Y0031303D01*
X0030609Y0031077D01*
X0030846Y0030846D01*
X0031077Y0030609D01*
X0031303Y0030366D01*
X0031522Y0030118D01*
X0031736Y0029864D01*
X0031943Y0029606D01*
X0032143Y0029342D01*
X0032337Y0029073D01*
X0032525Y0028800D01*
X0032706Y0028522D01*
X0032879Y0028240D01*
X0033046Y0027954D01*
X0033206Y0027664D01*
X0033359Y0027370D01*
X0033504Y0027072D01*
X0033642Y0026771D01*
X0033772Y0026466D01*
X0033895Y0026159D01*
X0034011Y0025848D01*
X0034119Y0025535D01*
X0034219Y0025219D01*
X0034311Y0024901D01*
X0034395Y0024580D01*
X0034472Y0024258D01*
X0034541Y0023934D01*
X0034601Y0023608D01*
X0034654Y0023281D01*
X0034698Y0022953D01*
X0034735Y0022623D01*
X0034763Y0022293D01*
X0034784Y0021962D01*
X0034796Y0021631D01*
X0034800Y0021300D01*
X0034796Y0020969D01*
X0034784Y0020638D01*
X0034763Y0020307D01*
X0034735Y0019977D01*
X0034698Y0019647D01*
X0034654Y0019319D01*
X0034601Y0018992D01*
X0034541Y0018666D01*
X0034472Y0018342D01*
X0034395Y0018020D01*
X0034311Y0017699D01*
X0034219Y0017381D01*
X0034119Y0017065D01*
X0034011Y0016752D01*
X0033895Y0016441D01*
X0033772Y0016134D01*
X0033642Y0015829D01*
X0033504Y0015528D01*
X0033359Y0015230D01*
X0033206Y0014936D01*
X0033046Y0014646D01*
X0032879Y0014360D01*
X0032706Y0014078D01*
X0032525Y0013800D01*
X0032337Y0013527D01*
X0032143Y0013258D01*
X0031943Y0012994D01*
X0031736Y0012736D01*
X0031522Y0012482D01*
X0031303Y0012234D01*
X0031077Y0011991D01*
X0030846Y0011754D01*
X0030609Y0011523D01*
X0030366Y0011297D01*
X0030118Y0011078D01*
X0029864Y0010864D01*
X0029606Y0010657D01*
X0029342Y0010457D01*
X0029073Y0010263D01*
X0028800Y0010075D01*
X0028522Y0009894D01*
X0028240Y0009721D01*
X0027954Y0009554D01*
X0027664Y0009394D01*
X0027370Y0009241D01*
X0027072Y0009096D01*
X0026771Y0008958D01*
X0026466Y0008828D01*
X0026159Y0008705D01*
X0025848Y0008589D01*
X0025535Y0008481D01*
X0025219Y0008381D01*
X0024901Y0008289D01*
X0024580Y0008205D01*
X0024258Y0008128D01*
X0023934Y0008059D01*
X0023608Y0007999D01*
X0023281Y0007946D01*
X0022953Y0007902D01*
X0022623Y0007865D01*
X0022293Y0007837D01*
X0021962Y0007816D01*
X0021631Y0007804D01*
X0021300Y0007800D01*
X0020969Y0007804D01*
X0020638Y0007816D01*
X0020307Y0007837D01*
X0019977Y0007865D01*
X0019647Y0007902D01*
X0019319Y0007946D01*
X0018992Y0007999D01*
X0018666Y0008059D01*
X0018342Y0008128D01*
X0018020Y0008205D01*
X0017699Y0008289D01*
X0017381Y0008381D01*
X0017065Y0008481D01*
X0016752Y0008589D01*
X0016441Y0008705D01*
X0016134Y0008828D01*
X0015829Y0008958D01*
X0015528Y0009096D01*
X0015230Y0009241D01*
X0014936Y0009394D01*
X0014646Y0009554D01*
X0014360Y0009721D01*
X0014078Y0009894D01*
X0013800Y0010075D01*
X0013527Y0010263D01*
X0013258Y0010457D01*
X0012994Y0010657D01*
X0012736Y0010864D01*
X0012482Y0011078D01*
X0012234Y0011297D01*
X0011991Y0011523D01*
X0011754Y0011754D01*
X0011523Y0011991D01*
X0011297Y0012234D01*
X0011078Y0012482D01*
X0010864Y0012736D01*
X0010657Y0012994D01*
X0010457Y0013258D01*
X0010263Y0013527D01*
X0010075Y0013800D01*
X0009894Y0014078D01*
X0009721Y0014360D01*
X0009554Y0014646D01*
X0009394Y0014936D01*
X0009241Y0015230D01*
X0009096Y0015528D01*
X0008958Y0015829D01*
X0008828Y0016134D01*
X0008705Y0016441D01*
X0008589Y0016752D01*
X0008481Y0017065D01*
X0008381Y0017381D01*
X0008289Y0017699D01*
X0008205Y0018020D01*
X0008128Y0018342D01*
X0008059Y0018666D01*
X0007999Y0018992D01*
X0007946Y0019319D01*
X0007902Y0019647D01*
X0007865Y0019977D01*
X0007837Y0020307D01*
X0007816Y0020638D01*
X0007804Y0020969D01*
X0007800Y0021300D01*
X0058800Y0186300D02*
X0063800Y0186300D01*
X0066300Y0188800D01*
X0068800Y0186300D01*
X0073800Y0186300D01*
X0076300Y0188800D01*
X0078800Y0186300D01*
X0083800Y0186300D01*
X0086300Y0188800D01*
X0088800Y0186300D01*
X0093800Y0186300D01*
X0096300Y0188800D01*
X0098800Y0186300D01*
X0103800Y0186300D01*
X0106300Y0188800D01*
X0108800Y0186300D01*
X0113800Y0186300D01*
X0116300Y0188800D01*
X0118800Y0186300D01*
X0123800Y0186300D01*
X0126300Y0188800D01*
X0128800Y0186300D01*
X0133800Y0186300D01*
X0136300Y0188800D01*
X0138800Y0186300D01*
X0143800Y0186300D01*
X0146300Y0188800D01*
X0148800Y0186300D01*
X0153800Y0186300D01*
X0156300Y0188800D01*
X0158800Y0186300D01*
X0163800Y0186300D01*
X0166300Y0188800D01*
X0168800Y0186300D01*
X0173800Y0186300D01*
X0176300Y0188800D01*
X0178800Y0186300D01*
X0183800Y0186300D01*
X0186300Y0188800D01*
X0188800Y0186300D01*
X0193800Y0186300D01*
X0196300Y0188800D01*
X0198800Y0186300D01*
X0203800Y0186300D01*
X0206300Y0188800D01*
X0208800Y0186300D01*
X0213800Y0186300D01*
X0216300Y0188800D01*
X0218800Y0186300D01*
X0223800Y0186300D01*
X0226300Y0188800D01*
X0228800Y0186300D01*
X0233800Y0186300D01*
X0236300Y0188800D01*
X0238800Y0186300D01*
X0243800Y0186300D01*
X0246300Y0188800D01*
X0248800Y0186300D01*
X0253800Y0186300D01*
X0256300Y0188800D01*
X0256300Y0203800D01*
X0253800Y0206300D01*
X0248800Y0206300D01*
X0246300Y0203800D01*
X0243800Y0206300D01*
X0238800Y0206300D01*
X0236300Y0203800D01*
X0233800Y0206300D01*
X0228800Y0206300D01*
X0226300Y0203800D01*
X0223800Y0206300D01*
X0218800Y0206300D01*
X0216300Y0203800D01*
X0213800Y0206300D01*
X0208800Y0206300D01*
X0206300Y0203800D01*
X0203800Y0206300D01*
X0198800Y0206300D01*
X0196300Y0203800D01*
X0193800Y0206300D01*
X0188800Y0206300D01*
X0186300Y0203800D01*
X0183800Y0206300D01*
X0178800Y0206300D01*
X0176300Y0203800D01*
X0173800Y0206300D01*
X0168800Y0206300D01*
X0166300Y0203800D01*
X0163800Y0206300D01*
X0158800Y0206300D01*
X0156300Y0203800D01*
X0153800Y0206300D01*
X0148800Y0206300D01*
X0146300Y0203800D01*
X0143800Y0206300D01*
X0138800Y0206300D01*
X0136300Y0203800D01*
X0133800Y0206300D01*
X0128800Y0206300D01*
X0126300Y0203800D01*
X0123800Y0206300D01*
X0118800Y0206300D01*
X0116300Y0203800D01*
X0113800Y0206300D01*
X0108800Y0206300D01*
X0106300Y0203800D01*
X0103800Y0206300D01*
X0098800Y0206300D01*
X0096300Y0203800D01*
X0093800Y0206300D01*
X0088800Y0206300D01*
X0086300Y0203800D01*
X0083800Y0206300D01*
X0078800Y0206300D01*
X0076300Y0203800D01*
X0073800Y0206300D01*
X0068800Y0206300D01*
X0066300Y0203800D01*
X0063800Y0206300D01*
X0058800Y0206300D01*
X0056300Y0203800D01*
X0056300Y0188800D01*
X0058800Y0186300D01*
X0007800Y0191300D02*
X0007804Y0191631D01*
X0007816Y0191962D01*
X0007837Y0192293D01*
X0007865Y0192623D01*
X0007902Y0192953D01*
X0007946Y0193281D01*
X0007999Y0193608D01*
X0008059Y0193934D01*
X0008128Y0194258D01*
X0008205Y0194580D01*
X0008289Y0194901D01*
X0008381Y0195219D01*
X0008481Y0195535D01*
X0008589Y0195848D01*
X0008705Y0196159D01*
X0008828Y0196466D01*
X0008958Y0196771D01*
X0009096Y0197072D01*
X0009241Y0197370D01*
X0009394Y0197664D01*
X0009554Y0197954D01*
X0009721Y0198240D01*
X0009894Y0198522D01*
X0010075Y0198800D01*
X0010263Y0199073D01*
X0010457Y0199342D01*
X0010657Y0199606D01*
X0010864Y0199864D01*
X0011078Y0200118D01*
X0011297Y0200366D01*
X0011523Y0200609D01*
X0011754Y0200846D01*
X0011991Y0201077D01*
X0012234Y0201303D01*
X0012482Y0201522D01*
X0012736Y0201736D01*
X0012994Y0201943D01*
X0013258Y0202143D01*
X0013527Y0202337D01*
X0013800Y0202525D01*
X0014078Y0202706D01*
X0014360Y0202879D01*
X0014646Y0203046D01*
X0014936Y0203206D01*
X0015230Y0203359D01*
X0015528Y0203504D01*
X0015829Y0203642D01*
X0016134Y0203772D01*
X0016441Y0203895D01*
X0016752Y0204011D01*
X0017065Y0204119D01*
X0017381Y0204219D01*
X0017699Y0204311D01*
X0018020Y0204395D01*
X0018342Y0204472D01*
X0018666Y0204541D01*
X0018992Y0204601D01*
X0019319Y0204654D01*
X0019647Y0204698D01*
X0019977Y0204735D01*
X0020307Y0204763D01*
X0020638Y0204784D01*
X0020969Y0204796D01*
X0021300Y0204800D01*
X0021631Y0204796D01*
X0021962Y0204784D01*
X0022293Y0204763D01*
X0022623Y0204735D01*
X0022953Y0204698D01*
X0023281Y0204654D01*
X0023608Y0204601D01*
X0023934Y0204541D01*
X0024258Y0204472D01*
X0024580Y0204395D01*
X0024901Y0204311D01*
X0025219Y0204219D01*
X0025535Y0204119D01*
X0025848Y0204011D01*
X0026159Y0203895D01*
X0026466Y0203772D01*
X0026771Y0203642D01*
X0027072Y0203504D01*
X0027370Y0203359D01*
X0027664Y0203206D01*
X0027954Y0203046D01*
X0028240Y0202879D01*
X0028522Y0202706D01*
X0028800Y0202525D01*
X0029073Y0202337D01*
X0029342Y0202143D01*
X0029606Y0201943D01*
X0029864Y0201736D01*
X0030118Y0201522D01*
X0030366Y0201303D01*
X0030609Y0201077D01*
X0030846Y0200846D01*
X0031077Y0200609D01*
X0031303Y0200366D01*
X0031522Y0200118D01*
X0031736Y0199864D01*
X0031943Y0199606D01*
X0032143Y0199342D01*
X0032337Y0199073D01*
X0032525Y0198800D01*
X0032706Y0198522D01*
X0032879Y0198240D01*
X0033046Y0197954D01*
X0033206Y0197664D01*
X0033359Y0197370D01*
X0033504Y0197072D01*
X0033642Y0196771D01*
X0033772Y0196466D01*
X0033895Y0196159D01*
X0034011Y0195848D01*
X0034119Y0195535D01*
X0034219Y0195219D01*
X0034311Y0194901D01*
X0034395Y0194580D01*
X0034472Y0194258D01*
X0034541Y0193934D01*
X0034601Y0193608D01*
X0034654Y0193281D01*
X0034698Y0192953D01*
X0034735Y0192623D01*
X0034763Y0192293D01*
X0034784Y0191962D01*
X0034796Y0191631D01*
X0034800Y0191300D01*
X0034796Y0190969D01*
X0034784Y0190638D01*
X0034763Y0190307D01*
X0034735Y0189977D01*
X0034698Y0189647D01*
X0034654Y0189319D01*
X0034601Y0188992D01*
X0034541Y0188666D01*
X0034472Y0188342D01*
X0034395Y0188020D01*
X0034311Y0187699D01*
X0034219Y0187381D01*
X0034119Y0187065D01*
X0034011Y0186752D01*
X0033895Y0186441D01*
X0033772Y0186134D01*
X0033642Y0185829D01*
X0033504Y0185528D01*
X0033359Y0185230D01*
X0033206Y0184936D01*
X0033046Y0184646D01*
X0032879Y0184360D01*
X0032706Y0184078D01*
X0032525Y0183800D01*
X0032337Y0183527D01*
X0032143Y0183258D01*
X0031943Y0182994D01*
X0031736Y0182736D01*
X0031522Y0182482D01*
X0031303Y0182234D01*
X0031077Y0181991D01*
X0030846Y0181754D01*
X0030609Y0181523D01*
X0030366Y0181297D01*
X0030118Y0181078D01*
X0029864Y0180864D01*
X0029606Y0180657D01*
X0029342Y0180457D01*
X0029073Y0180263D01*
X0028800Y0180075D01*
X0028522Y0179894D01*
X0028240Y0179721D01*
X0027954Y0179554D01*
X0027664Y0179394D01*
X0027370Y0179241D01*
X0027072Y0179096D01*
X0026771Y0178958D01*
X0026466Y0178828D01*
X0026159Y0178705D01*
X0025848Y0178589D01*
X0025535Y0178481D01*
X0025219Y0178381D01*
X0024901Y0178289D01*
X0024580Y0178205D01*
X0024258Y0178128D01*
X0023934Y0178059D01*
X0023608Y0177999D01*
X0023281Y0177946D01*
X0022953Y0177902D01*
X0022623Y0177865D01*
X0022293Y0177837D01*
X0021962Y0177816D01*
X0021631Y0177804D01*
X0021300Y0177800D01*
X0020969Y0177804D01*
X0020638Y0177816D01*
X0020307Y0177837D01*
X0019977Y0177865D01*
X0019647Y0177902D01*
X0019319Y0177946D01*
X0018992Y0177999D01*
X0018666Y0178059D01*
X0018342Y0178128D01*
X0018020Y0178205D01*
X0017699Y0178289D01*
X0017381Y0178381D01*
X0017065Y0178481D01*
X0016752Y0178589D01*
X0016441Y0178705D01*
X0016134Y0178828D01*
X0015829Y0178958D01*
X0015528Y0179096D01*
X0015230Y0179241D01*
X0014936Y0179394D01*
X0014646Y0179554D01*
X0014360Y0179721D01*
X0014078Y0179894D01*
X0013800Y0180075D01*
X0013527Y0180263D01*
X0013258Y0180457D01*
X0012994Y0180657D01*
X0012736Y0180864D01*
X0012482Y0181078D01*
X0012234Y0181297D01*
X0011991Y0181523D01*
X0011754Y0181754D01*
X0011523Y0181991D01*
X0011297Y0182234D01*
X0011078Y0182482D01*
X0010864Y0182736D01*
X0010657Y0182994D01*
X0010457Y0183258D01*
X0010263Y0183527D01*
X0010075Y0183800D01*
X0009894Y0184078D01*
X0009721Y0184360D01*
X0009554Y0184646D01*
X0009394Y0184936D01*
X0009241Y0185230D01*
X0009096Y0185528D01*
X0008958Y0185829D01*
X0008828Y0186134D01*
X0008705Y0186441D01*
X0008589Y0186752D01*
X0008481Y0187065D01*
X0008381Y0187381D01*
X0008289Y0187699D01*
X0008205Y0188020D01*
X0008128Y0188342D01*
X0008059Y0188666D01*
X0007999Y0188992D01*
X0007946Y0189319D01*
X0007902Y0189647D01*
X0007865Y0189977D01*
X0007837Y0190307D01*
X0007816Y0190638D01*
X0007804Y0190969D01*
X0007800Y0191300D01*
X0332800Y0191300D02*
X0332804Y0191631D01*
X0332816Y0191962D01*
X0332837Y0192293D01*
X0332865Y0192623D01*
X0332902Y0192953D01*
X0332946Y0193281D01*
X0332999Y0193608D01*
X0333059Y0193934D01*
X0333128Y0194258D01*
X0333205Y0194580D01*
X0333289Y0194901D01*
X0333381Y0195219D01*
X0333481Y0195535D01*
X0333589Y0195848D01*
X0333705Y0196159D01*
X0333828Y0196466D01*
X0333958Y0196771D01*
X0334096Y0197072D01*
X0334241Y0197370D01*
X0334394Y0197664D01*
X0334554Y0197954D01*
X0334721Y0198240D01*
X0334894Y0198522D01*
X0335075Y0198800D01*
X0335263Y0199073D01*
X0335457Y0199342D01*
X0335657Y0199606D01*
X0335864Y0199864D01*
X0336078Y0200118D01*
X0336297Y0200366D01*
X0336523Y0200609D01*
X0336754Y0200846D01*
X0336991Y0201077D01*
X0337234Y0201303D01*
X0337482Y0201522D01*
X0337736Y0201736D01*
X0337994Y0201943D01*
X0338258Y0202143D01*
X0338527Y0202337D01*
X0338800Y0202525D01*
X0339078Y0202706D01*
X0339360Y0202879D01*
X0339646Y0203046D01*
X0339936Y0203206D01*
X0340230Y0203359D01*
X0340528Y0203504D01*
X0340829Y0203642D01*
X0341134Y0203772D01*
X0341441Y0203895D01*
X0341752Y0204011D01*
X0342065Y0204119D01*
X0342381Y0204219D01*
X0342699Y0204311D01*
X0343020Y0204395D01*
X0343342Y0204472D01*
X0343666Y0204541D01*
X0343992Y0204601D01*
X0344319Y0204654D01*
X0344647Y0204698D01*
X0344977Y0204735D01*
X0345307Y0204763D01*
X0345638Y0204784D01*
X0345969Y0204796D01*
X0346300Y0204800D01*
X0346631Y0204796D01*
X0346962Y0204784D01*
X0347293Y0204763D01*
X0347623Y0204735D01*
X0347953Y0204698D01*
X0348281Y0204654D01*
X0348608Y0204601D01*
X0348934Y0204541D01*
X0349258Y0204472D01*
X0349580Y0204395D01*
X0349901Y0204311D01*
X0350219Y0204219D01*
X0350535Y0204119D01*
X0350848Y0204011D01*
X0351159Y0203895D01*
X0351466Y0203772D01*
X0351771Y0203642D01*
X0352072Y0203504D01*
X0352370Y0203359D01*
X0352664Y0203206D01*
X0352954Y0203046D01*
X0353240Y0202879D01*
X0353522Y0202706D01*
X0353800Y0202525D01*
X0354073Y0202337D01*
X0354342Y0202143D01*
X0354606Y0201943D01*
X0354864Y0201736D01*
X0355118Y0201522D01*
X0355366Y0201303D01*
X0355609Y0201077D01*
X0355846Y0200846D01*
X0356077Y0200609D01*
X0356303Y0200366D01*
X0356522Y0200118D01*
X0356736Y0199864D01*
X0356943Y0199606D01*
X0357143Y0199342D01*
X0357337Y0199073D01*
X0357525Y0198800D01*
X0357706Y0198522D01*
X0357879Y0198240D01*
X0358046Y0197954D01*
X0358206Y0197664D01*
X0358359Y0197370D01*
X0358504Y0197072D01*
X0358642Y0196771D01*
X0358772Y0196466D01*
X0358895Y0196159D01*
X0359011Y0195848D01*
X0359119Y0195535D01*
X0359219Y0195219D01*
X0359311Y0194901D01*
X0359395Y0194580D01*
X0359472Y0194258D01*
X0359541Y0193934D01*
X0359601Y0193608D01*
X0359654Y0193281D01*
X0359698Y0192953D01*
X0359735Y0192623D01*
X0359763Y0192293D01*
X0359784Y0191962D01*
X0359796Y0191631D01*
X0359800Y0191300D01*
X0359796Y0190969D01*
X0359784Y0190638D01*
X0359763Y0190307D01*
X0359735Y0189977D01*
X0359698Y0189647D01*
X0359654Y0189319D01*
X0359601Y0188992D01*
X0359541Y0188666D01*
X0359472Y0188342D01*
X0359395Y0188020D01*
X0359311Y0187699D01*
X0359219Y0187381D01*
X0359119Y0187065D01*
X0359011Y0186752D01*
X0358895Y0186441D01*
X0358772Y0186134D01*
X0358642Y0185829D01*
X0358504Y0185528D01*
X0358359Y0185230D01*
X0358206Y0184936D01*
X0358046Y0184646D01*
X0357879Y0184360D01*
X0357706Y0184078D01*
X0357525Y0183800D01*
X0357337Y0183527D01*
X0357143Y0183258D01*
X0356943Y0182994D01*
X0356736Y0182736D01*
X0356522Y0182482D01*
X0356303Y0182234D01*
X0356077Y0181991D01*
X0355846Y0181754D01*
X0355609Y0181523D01*
X0355366Y0181297D01*
X0355118Y0181078D01*
X0354864Y0180864D01*
X0354606Y0180657D01*
X0354342Y0180457D01*
X0354073Y0180263D01*
X0353800Y0180075D01*
X0353522Y0179894D01*
X0353240Y0179721D01*
X0352954Y0179554D01*
X0352664Y0179394D01*
X0352370Y0179241D01*
X0352072Y0179096D01*
X0351771Y0178958D01*
X0351466Y0178828D01*
X0351159Y0178705D01*
X0350848Y0178589D01*
X0350535Y0178481D01*
X0350219Y0178381D01*
X0349901Y0178289D01*
X0349580Y0178205D01*
X0349258Y0178128D01*
X0348934Y0178059D01*
X0348608Y0177999D01*
X0348281Y0177946D01*
X0347953Y0177902D01*
X0347623Y0177865D01*
X0347293Y0177837D01*
X0346962Y0177816D01*
X0346631Y0177804D01*
X0346300Y0177800D01*
X0345969Y0177804D01*
X0345638Y0177816D01*
X0345307Y0177837D01*
X0344977Y0177865D01*
X0344647Y0177902D01*
X0344319Y0177946D01*
X0343992Y0177999D01*
X0343666Y0178059D01*
X0343342Y0178128D01*
X0343020Y0178205D01*
X0342699Y0178289D01*
X0342381Y0178381D01*
X0342065Y0178481D01*
X0341752Y0178589D01*
X0341441Y0178705D01*
X0341134Y0178828D01*
X0340829Y0178958D01*
X0340528Y0179096D01*
X0340230Y0179241D01*
X0339936Y0179394D01*
X0339646Y0179554D01*
X0339360Y0179721D01*
X0339078Y0179894D01*
X0338800Y0180075D01*
X0338527Y0180263D01*
X0338258Y0180457D01*
X0337994Y0180657D01*
X0337736Y0180864D01*
X0337482Y0181078D01*
X0337234Y0181297D01*
X0336991Y0181523D01*
X0336754Y0181754D01*
X0336523Y0181991D01*
X0336297Y0182234D01*
X0336078Y0182482D01*
X0335864Y0182736D01*
X0335657Y0182994D01*
X0335457Y0183258D01*
X0335263Y0183527D01*
X0335075Y0183800D01*
X0334894Y0184078D01*
X0334721Y0184360D01*
X0334554Y0184646D01*
X0334394Y0184936D01*
X0334241Y0185230D01*
X0334096Y0185528D01*
X0333958Y0185829D01*
X0333828Y0186134D01*
X0333705Y0186441D01*
X0333589Y0186752D01*
X0333481Y0187065D01*
X0333381Y0187381D01*
X0333289Y0187699D01*
X0333205Y0188020D01*
X0333128Y0188342D01*
X0333059Y0188666D01*
X0332999Y0188992D01*
X0332946Y0189319D01*
X0332902Y0189647D01*
X0332865Y0189977D01*
X0332837Y0190307D01*
X0332816Y0190638D01*
X0332804Y0190969D01*
X0332800Y0191300D01*
X0332800Y0021300D02*
X0332804Y0021631D01*
X0332816Y0021962D01*
X0332837Y0022293D01*
X0332865Y0022623D01*
X0332902Y0022953D01*
X0332946Y0023281D01*
X0332999Y0023608D01*
X0333059Y0023934D01*
X0333128Y0024258D01*
X0333205Y0024580D01*
X0333289Y0024901D01*
X0333381Y0025219D01*
X0333481Y0025535D01*
X0333589Y0025848D01*
X0333705Y0026159D01*
X0333828Y0026466D01*
X0333958Y0026771D01*
X0334096Y0027072D01*
X0334241Y0027370D01*
X0334394Y0027664D01*
X0334554Y0027954D01*
X0334721Y0028240D01*
X0334894Y0028522D01*
X0335075Y0028800D01*
X0335263Y0029073D01*
X0335457Y0029342D01*
X0335657Y0029606D01*
X0335864Y0029864D01*
X0336078Y0030118D01*
X0336297Y0030366D01*
X0336523Y0030609D01*
X0336754Y0030846D01*
X0336991Y0031077D01*
X0337234Y0031303D01*
X0337482Y0031522D01*
X0337736Y0031736D01*
X0337994Y0031943D01*
X0338258Y0032143D01*
X0338527Y0032337D01*
X0338800Y0032525D01*
X0339078Y0032706D01*
X0339360Y0032879D01*
X0339646Y0033046D01*
X0339936Y0033206D01*
X0340230Y0033359D01*
X0340528Y0033504D01*
X0340829Y0033642D01*
X0341134Y0033772D01*
X0341441Y0033895D01*
X0341752Y0034011D01*
X0342065Y0034119D01*
X0342381Y0034219D01*
X0342699Y0034311D01*
X0343020Y0034395D01*
X0343342Y0034472D01*
X0343666Y0034541D01*
X0343992Y0034601D01*
X0344319Y0034654D01*
X0344647Y0034698D01*
X0344977Y0034735D01*
X0345307Y0034763D01*
X0345638Y0034784D01*
X0345969Y0034796D01*
X0346300Y0034800D01*
X0346631Y0034796D01*
X0346962Y0034784D01*
X0347293Y0034763D01*
X0347623Y0034735D01*
X0347953Y0034698D01*
X0348281Y0034654D01*
X0348608Y0034601D01*
X0348934Y0034541D01*
X0349258Y0034472D01*
X0349580Y0034395D01*
X0349901Y0034311D01*
X0350219Y0034219D01*
X0350535Y0034119D01*
X0350848Y0034011D01*
X0351159Y0033895D01*
X0351466Y0033772D01*
X0351771Y0033642D01*
X0352072Y0033504D01*
X0352370Y0033359D01*
X0352664Y0033206D01*
X0352954Y0033046D01*
X0353240Y0032879D01*
X0353522Y0032706D01*
X0353800Y0032525D01*
X0354073Y0032337D01*
X0354342Y0032143D01*
X0354606Y0031943D01*
X0354864Y0031736D01*
X0355118Y0031522D01*
X0355366Y0031303D01*
X0355609Y0031077D01*
X0355846Y0030846D01*
X0356077Y0030609D01*
X0356303Y0030366D01*
X0356522Y0030118D01*
X0356736Y0029864D01*
X0356943Y0029606D01*
X0357143Y0029342D01*
X0357337Y0029073D01*
X0357525Y0028800D01*
X0357706Y0028522D01*
X0357879Y0028240D01*
X0358046Y0027954D01*
X0358206Y0027664D01*
X0358359Y0027370D01*
X0358504Y0027072D01*
X0358642Y0026771D01*
X0358772Y0026466D01*
X0358895Y0026159D01*
X0359011Y0025848D01*
X0359119Y0025535D01*
X0359219Y0025219D01*
X0359311Y0024901D01*
X0359395Y0024580D01*
X0359472Y0024258D01*
X0359541Y0023934D01*
X0359601Y0023608D01*
X0359654Y0023281D01*
X0359698Y0022953D01*
X0359735Y0022623D01*
X0359763Y0022293D01*
X0359784Y0021962D01*
X0359796Y0021631D01*
X0359800Y0021300D01*
X0359796Y0020969D01*
X0359784Y0020638D01*
X0359763Y0020307D01*
X0359735Y0019977D01*
X0359698Y0019647D01*
X0359654Y0019319D01*
X0359601Y0018992D01*
X0359541Y0018666D01*
X0359472Y0018342D01*
X0359395Y0018020D01*
X0359311Y0017699D01*
X0359219Y0017381D01*
X0359119Y0017065D01*
X0359011Y0016752D01*
X0358895Y0016441D01*
X0358772Y0016134D01*
X0358642Y0015829D01*
X0358504Y0015528D01*
X0358359Y0015230D01*
X0358206Y0014936D01*
X0358046Y0014646D01*
X0357879Y0014360D01*
X0357706Y0014078D01*
X0357525Y0013800D01*
X0357337Y0013527D01*
X0357143Y0013258D01*
X0356943Y0012994D01*
X0356736Y0012736D01*
X0356522Y0012482D01*
X0356303Y0012234D01*
X0356077Y0011991D01*
X0355846Y0011754D01*
X0355609Y0011523D01*
X0355366Y0011297D01*
X0355118Y0011078D01*
X0354864Y0010864D01*
X0354606Y0010657D01*
X0354342Y0010457D01*
X0354073Y0010263D01*
X0353800Y0010075D01*
X0353522Y0009894D01*
X0353240Y0009721D01*
X0352954Y0009554D01*
X0352664Y0009394D01*
X0352370Y0009241D01*
X0352072Y0009096D01*
X0351771Y0008958D01*
X0351466Y0008828D01*
X0351159Y0008705D01*
X0350848Y0008589D01*
X0350535Y0008481D01*
X0350219Y0008381D01*
X0349901Y0008289D01*
X0349580Y0008205D01*
X0349258Y0008128D01*
X0348934Y0008059D01*
X0348608Y0007999D01*
X0348281Y0007946D01*
X0347953Y0007902D01*
X0347623Y0007865D01*
X0347293Y0007837D01*
X0346962Y0007816D01*
X0346631Y0007804D01*
X0346300Y0007800D01*
X0345969Y0007804D01*
X0345638Y0007816D01*
X0345307Y0007837D01*
X0344977Y0007865D01*
X0344647Y0007902D01*
X0344319Y0007946D01*
X0343992Y0007999D01*
X0343666Y0008059D01*
X0343342Y0008128D01*
X0343020Y0008205D01*
X0342699Y0008289D01*
X0342381Y0008381D01*
X0342065Y0008481D01*
X0341752Y0008589D01*
X0341441Y0008705D01*
X0341134Y0008828D01*
X0340829Y0008958D01*
X0340528Y0009096D01*
X0340230Y0009241D01*
X0339936Y0009394D01*
X0339646Y0009554D01*
X0339360Y0009721D01*
X0339078Y0009894D01*
X0338800Y0010075D01*
X0338527Y0010263D01*
X0338258Y0010457D01*
X0337994Y0010657D01*
X0337736Y0010864D01*
X0337482Y0011078D01*
X0337234Y0011297D01*
X0336991Y0011523D01*
X0336754Y0011754D01*
X0336523Y0011991D01*
X0336297Y0012234D01*
X0336078Y0012482D01*
X0335864Y0012736D01*
X0335657Y0012994D01*
X0335457Y0013258D01*
X0335263Y0013527D01*
X0335075Y0013800D01*
X0334894Y0014078D01*
X0334721Y0014360D01*
X0334554Y0014646D01*
X0334394Y0014936D01*
X0334241Y0015230D01*
X0334096Y0015528D01*
X0333958Y0015829D01*
X0333828Y0016134D01*
X0333705Y0016441D01*
X0333589Y0016752D01*
X0333481Y0017065D01*
X0333381Y0017381D01*
X0333289Y0017699D01*
X0333205Y0018020D01*
X0333128Y0018342D01*
X0333059Y0018666D01*
X0332999Y0018992D01*
X0332946Y0019319D01*
X0332902Y0019647D01*
X0332865Y0019977D01*
X0332837Y0020307D01*
X0332816Y0020638D01*
X0332804Y0020969D01*
X0332800Y0021300D01*
D11*
X0311067Y0007069D02*
X0310299Y0007069D01*
X0308765Y0005535D01*
X0308765Y0007069D02*
X0308765Y0004000D01*
X0307230Y0004000D02*
X0304928Y0004000D01*
X0304161Y0004767D01*
X0304928Y0005535D01*
X0307230Y0005535D01*
X0307230Y0006302D02*
X0307230Y0004000D01*
X0307230Y0006302D02*
X0306463Y0007069D01*
X0304928Y0007069D01*
X0302626Y0006302D02*
X0301859Y0007069D01*
X0300324Y0007069D01*
X0299557Y0006302D01*
X0299557Y0004767D01*
X0300324Y0004000D01*
X0301859Y0004000D01*
X0302626Y0005535D02*
X0299557Y0005535D01*
X0298022Y0006302D02*
X0297255Y0005535D01*
X0294953Y0005535D01*
X0296488Y0005535D02*
X0298022Y0004000D01*
X0298022Y0006302D02*
X0298022Y0007837D01*
X0297255Y0008604D01*
X0294953Y0008604D01*
X0294953Y0004000D01*
X0288814Y0004000D02*
X0288047Y0004767D01*
X0288047Y0007837D01*
X0287280Y0007069D02*
X0288814Y0007069D01*
X0285745Y0006302D02*
X0285745Y0004000D01*
X0285745Y0006302D02*
X0284978Y0007069D01*
X0283443Y0007069D01*
X0282676Y0006302D01*
X0281141Y0007069D02*
X0278839Y0007069D01*
X0278072Y0006302D01*
X0278072Y0004767D01*
X0278839Y0004000D01*
X0281141Y0004000D01*
X0281141Y0003233D02*
X0281141Y0007069D01*
X0282676Y0008604D02*
X0282676Y0004000D01*
X0281141Y0003233D02*
X0280374Y0002465D01*
X0279606Y0002465D01*
X0276537Y0004000D02*
X0275003Y0004000D01*
X0275770Y0004000D02*
X0275770Y0007069D01*
X0275003Y0007069D01*
X0275770Y0008604D02*
X0275770Y0009371D01*
X0273468Y0007837D02*
X0273468Y0006302D01*
X0272701Y0005535D01*
X0270399Y0005535D01*
X0271933Y0005535D02*
X0273468Y0004000D01*
X0270399Y0004000D02*
X0270399Y0008604D01*
X0272701Y0008604D01*
X0273468Y0007837D01*
X0274965Y0014000D02*
X0271896Y0014000D01*
X0271896Y0018604D01*
X0274965Y0018604D01*
X0273431Y0016302D02*
X0271896Y0016302D01*
X0269569Y0016302D02*
X0266500Y0016302D01*
X0268035Y0017837D02*
X0268035Y0014767D01*
X0264965Y0014000D02*
X0261896Y0014000D01*
X0261896Y0018604D01*
X0264965Y0018604D01*
X0263431Y0016302D02*
X0261896Y0016302D01*
X0276500Y0016302D02*
X0279569Y0016302D01*
X0281896Y0016302D02*
X0284965Y0016302D01*
X0284965Y0017069D02*
X0284965Y0014000D01*
X0286500Y0016302D02*
X0289569Y0016302D01*
X0291896Y0016302D02*
X0294965Y0016302D01*
X0294965Y0017069D02*
X0293431Y0018604D01*
X0291896Y0017069D01*
X0291896Y0014000D01*
X0294965Y0014000D02*
X0294965Y0017069D01*
X0296500Y0016302D02*
X0299569Y0016302D01*
X0298035Y0017837D02*
X0298035Y0014767D01*
X0302626Y0006302D02*
X0302626Y0005535D01*
X0284965Y0017069D02*
X0283431Y0018604D01*
X0281896Y0017069D01*
X0281896Y0014000D01*
X0228765Y0007069D02*
X0227997Y0007069D01*
X0226463Y0005535D01*
X0226463Y0007069D02*
X0226463Y0004000D01*
X0224928Y0004000D02*
X0222626Y0004000D01*
X0221859Y0004767D01*
X0222626Y0005535D01*
X0224928Y0005535D01*
X0224928Y0006302D02*
X0224928Y0004000D01*
X0224928Y0006302D02*
X0224161Y0007069D01*
X0222626Y0007069D01*
X0220324Y0006302D02*
X0220324Y0005535D01*
X0217255Y0005535D01*
X0217255Y0006302D02*
X0218022Y0007069D01*
X0219557Y0007069D01*
X0220324Y0006302D01*
X0219557Y0004000D02*
X0218022Y0004000D01*
X0217255Y0004767D01*
X0217255Y0006302D01*
X0215720Y0006302D02*
X0215720Y0007837D01*
X0214953Y0008604D01*
X0212651Y0008604D01*
X0212651Y0004000D01*
X0212651Y0005535D02*
X0214953Y0005535D01*
X0215720Y0006302D01*
X0214186Y0005535D02*
X0215720Y0004000D01*
X0206512Y0004000D02*
X0205745Y0004767D01*
X0205745Y0007837D01*
X0204978Y0007069D02*
X0206512Y0007069D01*
X0203443Y0006302D02*
X0201908Y0006302D01*
X0200374Y0006302D02*
X0200374Y0005535D01*
X0197305Y0005535D01*
X0197305Y0006302D02*
X0198072Y0007069D01*
X0199606Y0007069D01*
X0200374Y0006302D01*
X0199606Y0004000D02*
X0198072Y0004000D01*
X0197305Y0004767D01*
X0197305Y0006302D01*
X0195770Y0004000D02*
X0192701Y0004000D01*
X0192701Y0008604D01*
X0189965Y0014000D02*
X0186896Y0014000D01*
X0186896Y0018604D01*
X0189965Y0018604D01*
X0188431Y0016302D02*
X0186896Y0016302D01*
X0191500Y0016302D02*
X0194569Y0016302D01*
X0193035Y0017837D02*
X0193035Y0014767D01*
X0196896Y0014000D02*
X0199965Y0014000D01*
X0198431Y0016302D02*
X0196896Y0016302D01*
X0196896Y0018604D02*
X0196896Y0014000D01*
X0201500Y0016302D02*
X0204569Y0016302D01*
X0206896Y0016302D02*
X0209965Y0016302D01*
X0209965Y0017069D02*
X0208431Y0018604D01*
X0206896Y0017069D01*
X0206896Y0014000D01*
X0209965Y0014000D02*
X0209965Y0017069D01*
X0211500Y0016302D02*
X0214569Y0016302D01*
X0216896Y0016302D02*
X0219965Y0016302D01*
X0219965Y0017069D02*
X0219965Y0014000D01*
X0221500Y0016302D02*
X0224569Y0016302D01*
X0223035Y0017837D02*
X0223035Y0014767D01*
X0216896Y0014000D02*
X0216896Y0017069D01*
X0218431Y0018604D01*
X0219965Y0017069D01*
X0203443Y0008604D02*
X0202676Y0007837D01*
X0202676Y0004000D01*
X0199965Y0018604D02*
X0196896Y0018604D01*
X0162601Y0007069D02*
X0161067Y0007069D01*
X0161834Y0007837D02*
X0161834Y0004767D01*
X0162601Y0004000D01*
X0159532Y0004000D02*
X0159532Y0006302D01*
X0158765Y0007069D01*
X0156463Y0007069D01*
X0156463Y0004000D01*
X0154928Y0004767D02*
X0154928Y0006302D01*
X0154161Y0007069D01*
X0152626Y0007069D01*
X0151859Y0006302D01*
X0151859Y0004767D01*
X0152626Y0004000D01*
X0154161Y0004000D01*
X0154928Y0004767D01*
X0150324Y0007069D02*
X0149557Y0007069D01*
X0148022Y0005535D01*
X0148022Y0007069D02*
X0148022Y0004000D01*
X0144953Y0006302D02*
X0143418Y0006302D01*
X0143418Y0004000D02*
X0143418Y0008604D01*
X0146488Y0008604D01*
X0146896Y0014000D02*
X0146896Y0017069D01*
X0148431Y0018604D01*
X0149965Y0017069D01*
X0149965Y0014000D01*
X0149965Y0016302D02*
X0146896Y0016302D01*
X0144569Y0016302D02*
X0141500Y0016302D01*
X0139965Y0016302D02*
X0136896Y0016302D01*
X0136896Y0017069D02*
X0136896Y0014000D01*
X0139965Y0014000D02*
X0139965Y0017069D01*
X0138431Y0018604D01*
X0136896Y0017069D01*
X0134569Y0016302D02*
X0131500Y0016302D01*
X0129965Y0018604D02*
X0126896Y0018604D01*
X0126896Y0014000D01*
X0129965Y0014000D01*
X0128431Y0016302D02*
X0126896Y0016302D01*
X0124569Y0016302D02*
X0121500Y0016302D01*
X0123035Y0017837D02*
X0123035Y0014767D01*
X0119965Y0014000D02*
X0116896Y0014000D01*
X0116896Y0018604D01*
X0119965Y0018604D01*
X0118431Y0016302D02*
X0116896Y0016302D01*
X0118864Y0008604D02*
X0121166Y0008604D01*
X0121933Y0007837D01*
X0121933Y0006302D01*
X0121166Y0005535D01*
X0118864Y0005535D01*
X0120399Y0005535D02*
X0121933Y0004000D01*
X0123468Y0004000D02*
X0125003Y0004000D01*
X0124235Y0004000D02*
X0124235Y0007069D01*
X0123468Y0007069D01*
X0124235Y0008604D02*
X0124235Y0009371D01*
X0126537Y0006302D02*
X0127305Y0007069D01*
X0129606Y0007069D01*
X0129606Y0003233D01*
X0128839Y0002465D01*
X0128072Y0002465D01*
X0127305Y0004000D02*
X0129606Y0004000D01*
X0131141Y0004000D02*
X0131141Y0008604D01*
X0131908Y0007069D02*
X0133443Y0007069D01*
X0134210Y0006302D01*
X0134210Y0004000D01*
X0136512Y0004767D02*
X0137280Y0004000D01*
X0136512Y0004767D02*
X0136512Y0007837D01*
X0135745Y0007069D02*
X0137280Y0007069D01*
X0131908Y0007069D02*
X0131141Y0006302D01*
X0127305Y0004000D02*
X0126537Y0004767D01*
X0126537Y0006302D01*
X0118864Y0004000D02*
X0118864Y0008604D01*
X0151500Y0016302D02*
X0154569Y0016302D01*
X0153035Y0017837D02*
X0153035Y0014767D01*
X0085299Y0007069D02*
X0083765Y0007069D01*
X0084532Y0007837D02*
X0084532Y0004767D01*
X0085299Y0004000D01*
X0082230Y0004000D02*
X0082230Y0006302D01*
X0081463Y0007069D01*
X0079161Y0007069D01*
X0079161Y0004000D01*
X0077626Y0004767D02*
X0077626Y0006302D01*
X0076859Y0007069D01*
X0075324Y0007069D01*
X0074557Y0006302D01*
X0074557Y0004767D01*
X0075324Y0004000D01*
X0076859Y0004000D01*
X0077626Y0004767D01*
X0073022Y0007069D02*
X0072255Y0007069D01*
X0070720Y0005535D01*
X0070720Y0007069D02*
X0070720Y0004000D01*
X0067651Y0006302D02*
X0066116Y0006302D01*
X0066116Y0004000D02*
X0066116Y0008604D01*
X0069186Y0008604D01*
X0071896Y0014000D02*
X0071896Y0017069D01*
X0073431Y0018604D01*
X0074965Y0017069D01*
X0074965Y0014000D01*
X0074965Y0016302D02*
X0071896Y0016302D01*
X0069569Y0016302D02*
X0066500Y0016302D01*
X0064965Y0016302D02*
X0061896Y0016302D01*
X0061896Y0017069D02*
X0061896Y0014000D01*
X0064965Y0014000D02*
X0064965Y0017069D01*
X0063431Y0018604D01*
X0061896Y0017069D01*
X0059569Y0016302D02*
X0056500Y0016302D01*
X0054965Y0018604D02*
X0051896Y0018604D01*
X0051896Y0014000D01*
X0054965Y0014000D01*
X0053431Y0016302D02*
X0051896Y0016302D01*
X0049569Y0016302D02*
X0046500Y0016302D01*
X0048035Y0017837D02*
X0048035Y0014767D01*
X0044965Y0014000D02*
X0041896Y0014000D01*
X0041896Y0018604D01*
X0044965Y0018604D01*
X0043431Y0016302D02*
X0041896Y0016302D01*
X0046166Y0008604D02*
X0046166Y0004000D01*
X0049235Y0004000D01*
X0050770Y0004767D02*
X0050770Y0006302D01*
X0051537Y0007069D01*
X0053072Y0007069D01*
X0053839Y0006302D01*
X0053839Y0005535D01*
X0050770Y0005535D01*
X0050770Y0004767D02*
X0051537Y0004000D01*
X0053072Y0004000D01*
X0056141Y0004000D02*
X0056141Y0007837D01*
X0056908Y0008604D01*
X0058443Y0007069D02*
X0059978Y0007069D01*
X0059210Y0007837D02*
X0059210Y0004767D01*
X0059978Y0004000D01*
X0056908Y0006302D02*
X0055374Y0006302D01*
X0076500Y0016302D02*
X0079569Y0016302D01*
X0078035Y0017837D02*
X0078035Y0014767D01*
X0247738Y0099767D02*
X0248505Y0099000D01*
X0250040Y0099000D01*
X0250807Y0099767D01*
X0250807Y0102837D01*
X0250040Y0103604D01*
X0248505Y0103604D01*
X0247738Y0102837D01*
X0247738Y0099767D01*
X0252342Y0099000D02*
X0254644Y0099000D01*
X0255411Y0099767D01*
X0255411Y0101302D01*
X0254644Y0102069D01*
X0252342Y0102069D01*
X0252342Y0097465D01*
X0256946Y0099767D02*
X0256946Y0101302D01*
X0257713Y0102069D01*
X0259248Y0102069D01*
X0260015Y0101302D01*
X0260015Y0100535D01*
X0256946Y0100535D01*
X0256946Y0099767D02*
X0257713Y0099000D01*
X0259248Y0099000D01*
X0261550Y0099000D02*
X0261550Y0102069D01*
X0263852Y0102069D01*
X0264619Y0101302D01*
X0264619Y0099000D01*
X0270757Y0099000D02*
X0270757Y0103604D01*
X0273059Y0103604D01*
X0273827Y0102837D01*
X0273827Y0101302D01*
X0273059Y0100535D01*
X0270757Y0100535D01*
X0272292Y0100535D02*
X0273827Y0099000D01*
X0275361Y0099767D02*
X0276129Y0100535D01*
X0278431Y0100535D01*
X0278431Y0101302D02*
X0278431Y0099000D01*
X0276129Y0099000D01*
X0275361Y0099767D01*
X0277663Y0102069D02*
X0278431Y0101302D01*
X0277663Y0102069D02*
X0276129Y0102069D01*
X0279965Y0101302D02*
X0279965Y0099767D01*
X0280733Y0099000D01*
X0283035Y0099000D01*
X0284569Y0099767D02*
X0284569Y0101302D01*
X0285337Y0102069D01*
X0286871Y0102069D01*
X0287638Y0101302D01*
X0287638Y0100535D01*
X0284569Y0100535D01*
X0284569Y0099767D02*
X0285337Y0099000D01*
X0286871Y0099000D01*
X0293777Y0099767D02*
X0294544Y0099000D01*
X0296079Y0099000D01*
X0296846Y0099767D01*
X0296846Y0100535D01*
X0296079Y0101302D01*
X0294544Y0101302D01*
X0293777Y0102069D01*
X0293777Y0102837D01*
X0294544Y0103604D01*
X0296079Y0103604D01*
X0296846Y0102837D01*
X0298381Y0101302D02*
X0298381Y0099767D01*
X0299148Y0099000D01*
X0301450Y0099000D01*
X0302985Y0099767D02*
X0303752Y0100535D01*
X0306054Y0100535D01*
X0306054Y0101302D02*
X0306054Y0099000D01*
X0303752Y0099000D01*
X0302985Y0099767D01*
X0305287Y0102069D02*
X0306054Y0101302D01*
X0305287Y0102069D02*
X0303752Y0102069D01*
X0301450Y0102069D02*
X0299148Y0102069D01*
X0298381Y0101302D01*
X0307589Y0103604D02*
X0308356Y0103604D01*
X0308356Y0099000D01*
X0307589Y0099000D02*
X0309123Y0099000D01*
X0310658Y0099767D02*
X0310658Y0101302D01*
X0311425Y0102069D01*
X0312960Y0102069D01*
X0313727Y0101302D01*
X0313727Y0100535D01*
X0310658Y0100535D01*
X0310658Y0099767D02*
X0311425Y0099000D01*
X0312960Y0099000D01*
X0283035Y0102069D02*
X0280733Y0102069D01*
X0279965Y0101302D01*
X0268033Y0143765D02*
X0264563Y0143765D01*
X0263696Y0144633D01*
X0263696Y0146368D01*
X0264563Y0147235D01*
X0266298Y0147235D02*
X0266298Y0145500D01*
X0266298Y0147235D02*
X0268033Y0147235D01*
X0268900Y0146368D01*
X0268900Y0144633D01*
X0268033Y0143765D01*
X0258900Y0144633D02*
X0258033Y0143765D01*
X0254563Y0143765D01*
X0253696Y0144633D01*
X0253696Y0146368D01*
X0254563Y0147235D01*
X0253696Y0148922D02*
X0258900Y0148922D01*
X0258900Y0152391D01*
X0258900Y0154078D02*
X0253696Y0154078D01*
X0256298Y0154946D02*
X0258900Y0157548D01*
X0257165Y0154078D02*
X0253696Y0157548D01*
X0248900Y0155813D02*
X0243696Y0155813D01*
X0243696Y0154078D02*
X0243696Y0157548D01*
X0238900Y0156680D02*
X0238900Y0154946D01*
X0238033Y0154078D01*
X0234563Y0154078D01*
X0233696Y0154946D01*
X0233696Y0156680D01*
X0234563Y0157548D01*
X0238033Y0157548D02*
X0238900Y0156680D01*
X0238033Y0152391D02*
X0238900Y0151524D01*
X0238900Y0149789D01*
X0238033Y0148922D01*
X0234563Y0148922D01*
X0233696Y0149789D01*
X0233696Y0151524D01*
X0234563Y0152391D01*
X0228900Y0151524D02*
X0228900Y0148922D01*
X0223696Y0148922D01*
X0223696Y0151524D01*
X0224563Y0152391D01*
X0228033Y0152391D01*
X0228900Y0151524D01*
X0228900Y0154078D02*
X0228900Y0156680D01*
X0228033Y0157548D01*
X0224563Y0157548D01*
X0223696Y0156680D01*
X0223696Y0154078D01*
X0228900Y0154078D01*
X0227165Y0147235D02*
X0223696Y0147235D01*
X0227165Y0147235D02*
X0228900Y0145500D01*
X0227165Y0143765D01*
X0223696Y0143765D01*
X0233696Y0143765D02*
X0237165Y0143765D01*
X0238900Y0145500D01*
X0237165Y0147235D01*
X0233696Y0147235D01*
X0243696Y0146368D02*
X0243696Y0143765D01*
X0248900Y0143765D01*
X0248900Y0146368D01*
X0248033Y0147235D01*
X0244563Y0147235D01*
X0243696Y0146368D01*
X0245430Y0148922D02*
X0243696Y0150657D01*
X0245430Y0152391D01*
X0248900Y0152391D01*
X0246298Y0152391D02*
X0246298Y0148922D01*
X0245430Y0148922D02*
X0248900Y0148922D01*
X0258033Y0147235D02*
X0258900Y0146368D01*
X0258900Y0144633D01*
X0263696Y0148922D02*
X0268900Y0152391D01*
X0263696Y0152391D01*
X0263696Y0154078D02*
X0263696Y0156680D01*
X0264563Y0157548D01*
X0268033Y0157548D01*
X0268900Y0156680D01*
X0268900Y0154078D01*
X0263696Y0154078D01*
X0263696Y0148922D02*
X0268900Y0148922D01*
X0313696Y0148922D02*
X0313696Y0151524D01*
X0314563Y0152391D01*
X0318033Y0152391D01*
X0318900Y0151524D01*
X0318900Y0148922D01*
X0313696Y0148922D01*
X0313696Y0147235D02*
X0317165Y0147235D01*
X0318900Y0145500D01*
X0317165Y0143765D01*
X0313696Y0143765D01*
X0323696Y0143765D02*
X0327165Y0143765D01*
X0328900Y0145500D01*
X0327165Y0147235D01*
X0323696Y0147235D01*
X0324563Y0148922D02*
X0328033Y0148922D01*
X0328900Y0149789D01*
X0328900Y0151524D01*
X0328033Y0152391D01*
X0328033Y0154078D02*
X0324563Y0154078D01*
X0323696Y0154946D01*
X0323696Y0156680D01*
X0324563Y0157548D01*
X0328033Y0157548D02*
X0328900Y0156680D01*
X0328900Y0154946D01*
X0328033Y0154078D01*
X0324563Y0152391D02*
X0323696Y0151524D01*
X0323696Y0149789D01*
X0324563Y0148922D01*
X0318900Y0154078D02*
X0318900Y0156680D01*
X0318033Y0157548D01*
X0314563Y0157548D01*
X0313696Y0156680D01*
X0313696Y0154078D01*
X0318900Y0154078D01*
X0333696Y0154078D02*
X0333696Y0157548D01*
X0333696Y0155813D02*
X0338900Y0155813D01*
X0343696Y0154078D02*
X0348900Y0154078D01*
X0348900Y0152391D02*
X0348900Y0148922D01*
X0343696Y0148922D01*
X0344563Y0147235D02*
X0343696Y0146368D01*
X0343696Y0144633D01*
X0344563Y0143765D01*
X0348033Y0143765D01*
X0348900Y0144633D01*
X0348900Y0146368D01*
X0348033Y0147235D01*
X0353696Y0146368D02*
X0353696Y0144633D01*
X0354563Y0143765D01*
X0358033Y0143765D01*
X0358900Y0144633D01*
X0358900Y0146368D01*
X0358033Y0147235D01*
X0356298Y0147235D01*
X0356298Y0145500D01*
X0354563Y0147235D02*
X0353696Y0146368D01*
X0353696Y0148922D02*
X0358900Y0152391D01*
X0353696Y0152391D01*
X0353696Y0154078D02*
X0353696Y0156680D01*
X0354563Y0157548D01*
X0358033Y0157548D01*
X0358900Y0156680D01*
X0358900Y0154078D01*
X0353696Y0154078D01*
X0353696Y0148922D02*
X0358900Y0148922D01*
X0347165Y0154078D02*
X0343696Y0157548D01*
X0346298Y0154946D02*
X0348900Y0157548D01*
X0338900Y0152391D02*
X0335430Y0152391D01*
X0333696Y0150657D01*
X0335430Y0148922D01*
X0338900Y0148922D01*
X0338033Y0147235D02*
X0334563Y0147235D01*
X0333696Y0146368D01*
X0333696Y0143765D01*
X0338900Y0143765D01*
X0338900Y0146368D01*
X0338033Y0147235D01*
X0336298Y0148922D02*
X0336298Y0152391D01*
X0173900Y0152391D02*
X0168696Y0152391D01*
X0168696Y0154078D02*
X0168696Y0156680D01*
X0169563Y0157548D01*
X0173033Y0157548D01*
X0173900Y0156680D01*
X0173900Y0154078D01*
X0168696Y0154078D01*
X0163900Y0154078D02*
X0158696Y0154078D01*
X0161298Y0154946D02*
X0163900Y0157548D01*
X0162165Y0154078D02*
X0158696Y0157548D01*
X0153900Y0155813D02*
X0148696Y0155813D01*
X0148696Y0154078D02*
X0148696Y0157548D01*
X0143900Y0156680D02*
X0143033Y0157548D01*
X0143900Y0156680D02*
X0143900Y0154946D01*
X0143033Y0154078D01*
X0139563Y0154078D01*
X0138696Y0154946D01*
X0138696Y0156680D01*
X0139563Y0157548D01*
X0133900Y0156680D02*
X0133033Y0157548D01*
X0129563Y0157548D01*
X0128696Y0156680D01*
X0128696Y0154078D01*
X0133900Y0154078D01*
X0133900Y0156680D01*
X0133033Y0152391D02*
X0129563Y0152391D01*
X0128696Y0151524D01*
X0128696Y0148922D01*
X0133900Y0148922D01*
X0133900Y0151524D01*
X0133033Y0152391D01*
X0138696Y0151524D02*
X0138696Y0149789D01*
X0139563Y0148922D01*
X0143033Y0148922D01*
X0143900Y0149789D01*
X0143900Y0151524D01*
X0143033Y0152391D01*
X0139563Y0152391D02*
X0138696Y0151524D01*
X0138696Y0147235D02*
X0142165Y0147235D01*
X0143900Y0145500D01*
X0142165Y0143765D01*
X0138696Y0143765D01*
X0133900Y0145500D02*
X0132165Y0147235D01*
X0128696Y0147235D01*
X0132165Y0143765D02*
X0133900Y0145500D01*
X0132165Y0143765D02*
X0128696Y0143765D01*
X0148696Y0143765D02*
X0148696Y0146368D01*
X0149563Y0147235D01*
X0153033Y0147235D01*
X0153900Y0146368D01*
X0153900Y0143765D01*
X0148696Y0143765D01*
X0150430Y0148922D02*
X0148696Y0150657D01*
X0150430Y0152391D01*
X0153900Y0152391D01*
X0151298Y0152391D02*
X0151298Y0148922D01*
X0150430Y0148922D02*
X0153900Y0148922D01*
X0158696Y0148922D02*
X0163900Y0148922D01*
X0163900Y0152391D01*
X0168696Y0148922D02*
X0173900Y0152391D01*
X0173900Y0148922D02*
X0168696Y0148922D01*
X0169563Y0147235D02*
X0168696Y0146368D01*
X0168696Y0144633D01*
X0169563Y0143765D01*
X0173033Y0143765D01*
X0173900Y0144633D01*
X0173900Y0146368D01*
X0173033Y0147235D01*
X0171298Y0147235D01*
X0171298Y0145500D01*
X0163900Y0144633D02*
X0163033Y0143765D01*
X0159563Y0143765D01*
X0158696Y0144633D01*
X0158696Y0146368D01*
X0159563Y0147235D01*
X0163033Y0147235D02*
X0163900Y0146368D01*
X0163900Y0144633D01*
X0078900Y0144633D02*
X0078033Y0143765D01*
X0074563Y0143765D01*
X0073696Y0144633D01*
X0073696Y0146368D01*
X0074563Y0147235D01*
X0076298Y0147235D02*
X0076298Y0145500D01*
X0076298Y0147235D02*
X0078033Y0147235D01*
X0078900Y0146368D01*
X0078900Y0144633D01*
X0078900Y0148922D02*
X0073696Y0148922D01*
X0078900Y0152391D01*
X0073696Y0152391D01*
X0073696Y0154078D02*
X0073696Y0156680D01*
X0074563Y0157548D01*
X0078033Y0157548D01*
X0078900Y0156680D01*
X0078900Y0154078D01*
X0073696Y0154078D01*
X0068900Y0154078D02*
X0063696Y0154078D01*
X0066298Y0154946D02*
X0068900Y0157548D01*
X0067165Y0154078D02*
X0063696Y0157548D01*
X0058900Y0155813D02*
X0053696Y0155813D01*
X0053696Y0154078D02*
X0053696Y0157548D01*
X0048900Y0156680D02*
X0048033Y0157548D01*
X0048900Y0156680D02*
X0048900Y0154946D01*
X0048033Y0154078D01*
X0044563Y0154078D01*
X0043696Y0154946D01*
X0043696Y0156680D01*
X0044563Y0157548D01*
X0038900Y0156680D02*
X0038900Y0154078D01*
X0033696Y0154078D01*
X0033696Y0156680D01*
X0034563Y0157548D01*
X0038033Y0157548D01*
X0038900Y0156680D01*
X0038033Y0152391D02*
X0034563Y0152391D01*
X0033696Y0151524D01*
X0033696Y0148922D01*
X0038900Y0148922D01*
X0038900Y0151524D01*
X0038033Y0152391D01*
X0043696Y0151524D02*
X0043696Y0149789D01*
X0044563Y0148922D01*
X0048033Y0148922D01*
X0048900Y0149789D01*
X0048900Y0151524D01*
X0048033Y0152391D01*
X0044563Y0152391D02*
X0043696Y0151524D01*
X0043696Y0147235D02*
X0047165Y0147235D01*
X0048900Y0145500D01*
X0047165Y0143765D01*
X0043696Y0143765D01*
X0038900Y0145500D02*
X0037165Y0147235D01*
X0033696Y0147235D01*
X0037165Y0143765D02*
X0038900Y0145500D01*
X0037165Y0143765D02*
X0033696Y0143765D01*
X0053696Y0143765D02*
X0053696Y0146368D01*
X0054563Y0147235D01*
X0058033Y0147235D01*
X0058900Y0146368D01*
X0058900Y0143765D01*
X0053696Y0143765D01*
X0055430Y0148922D02*
X0053696Y0150657D01*
X0055430Y0152391D01*
X0058900Y0152391D01*
X0056298Y0152391D02*
X0056298Y0148922D01*
X0055430Y0148922D02*
X0058900Y0148922D01*
X0063696Y0148922D02*
X0068900Y0148922D01*
X0068900Y0152391D01*
X0068033Y0147235D02*
X0068900Y0146368D01*
X0068900Y0144633D01*
X0068033Y0143765D01*
X0064563Y0143765D01*
X0063696Y0144633D01*
X0063696Y0146368D01*
X0064563Y0147235D01*
D12*
X0200912Y0086501D02*
X0201879Y0086501D01*
X0202876Y0086501D02*
X0202876Y0085534D01*
X0203360Y0085050D01*
X0204327Y0085050D01*
X0204811Y0085534D01*
X0204811Y0086501D01*
X0204327Y0086985D01*
X0203360Y0086985D01*
X0202876Y0086501D01*
X0201879Y0087952D02*
X0201396Y0087469D01*
X0201396Y0085050D01*
X0205823Y0085050D02*
X0205823Y0086985D01*
X0206790Y0086985D02*
X0205823Y0086017D01*
X0206790Y0086985D02*
X0207274Y0086985D01*
X0208278Y0087952D02*
X0208278Y0085050D01*
X0208278Y0086017D02*
X0209729Y0086985D01*
X0210734Y0086501D02*
X0211217Y0086985D01*
X0212185Y0086985D01*
X0212669Y0086501D01*
X0212669Y0086017D01*
X0210734Y0086017D01*
X0210734Y0085534D02*
X0210734Y0086501D01*
X0210734Y0085534D02*
X0211217Y0085050D01*
X0212185Y0085050D01*
X0213680Y0085534D02*
X0213680Y0086501D01*
X0214164Y0086985D01*
X0215615Y0086985D01*
X0215615Y0087952D02*
X0215615Y0085050D01*
X0214164Y0085050D01*
X0213680Y0085534D01*
X0209729Y0085050D02*
X0208278Y0086017D01*
X0217854Y0089850D02*
X0217854Y0092752D01*
X0218338Y0091785D02*
X0219306Y0091785D01*
X0219789Y0091301D01*
X0219789Y0089850D01*
X0221285Y0090334D02*
X0221285Y0092269D01*
X0221768Y0091785D02*
X0220801Y0091785D01*
X0221285Y0090334D02*
X0221768Y0089850D01*
X0223249Y0090334D02*
X0223733Y0089850D01*
X0223249Y0090334D02*
X0223249Y0092269D01*
X0222765Y0091785D02*
X0223733Y0091785D01*
X0224730Y0091785D02*
X0226181Y0091785D01*
X0226664Y0091301D01*
X0226664Y0090334D01*
X0226181Y0089850D01*
X0224730Y0089850D01*
X0224730Y0088883D02*
X0224730Y0091785D01*
X0227676Y0091301D02*
X0228160Y0091785D01*
X0229611Y0091785D01*
X0230623Y0091785D02*
X0230623Y0091301D01*
X0231106Y0091301D01*
X0231106Y0091785D01*
X0230623Y0091785D01*
X0230623Y0090334D02*
X0230623Y0089850D01*
X0231106Y0089850D01*
X0231106Y0090334D01*
X0230623Y0090334D01*
X0229611Y0090334D02*
X0229127Y0090817D01*
X0228160Y0090817D01*
X0227676Y0091301D01*
X0227676Y0089850D02*
X0229127Y0089850D01*
X0229611Y0090334D01*
X0232096Y0089850D02*
X0234031Y0092752D01*
X0236977Y0092752D02*
X0235042Y0089850D01*
X0236263Y0087469D02*
X0236263Y0085534D01*
X0236746Y0085050D01*
X0238227Y0085534D02*
X0238711Y0085050D01*
X0238227Y0085534D02*
X0238227Y0087469D01*
X0237743Y0086985D02*
X0238711Y0086985D01*
X0239708Y0086985D02*
X0239708Y0084083D01*
X0239708Y0085050D02*
X0241159Y0085050D01*
X0241643Y0085534D01*
X0241643Y0086501D01*
X0241159Y0086985D01*
X0239708Y0086985D01*
X0239440Y0088883D02*
X0239924Y0089366D01*
X0239924Y0091785D01*
X0238473Y0091785D01*
X0237989Y0091301D01*
X0237989Y0090334D01*
X0238473Y0089850D01*
X0239924Y0089850D01*
X0240935Y0089850D02*
X0241903Y0089850D01*
X0241419Y0089850D02*
X0241419Y0091785D01*
X0240935Y0091785D01*
X0241419Y0092752D02*
X0241419Y0093236D01*
X0242900Y0091785D02*
X0243867Y0091785D01*
X0243383Y0092269D02*
X0243383Y0090334D01*
X0243867Y0089850D01*
X0244864Y0089850D02*
X0244864Y0092752D01*
X0245348Y0091785D02*
X0246315Y0091785D01*
X0246799Y0091301D01*
X0246799Y0089850D01*
X0247811Y0090334D02*
X0248294Y0089850D01*
X0249746Y0089850D01*
X0249746Y0091785D01*
X0250757Y0091785D02*
X0252208Y0091785D01*
X0252692Y0091301D01*
X0252692Y0090334D01*
X0252208Y0089850D01*
X0250757Y0089850D01*
X0250757Y0092752D01*
X0251219Y0094650D02*
X0250251Y0095617D01*
X0250735Y0095617D02*
X0249284Y0095617D01*
X0249284Y0094650D02*
X0249284Y0097552D01*
X0250735Y0097552D01*
X0251219Y0097069D01*
X0251219Y0096101D01*
X0250735Y0095617D01*
X0252230Y0095134D02*
X0252714Y0094650D01*
X0253682Y0094650D01*
X0254165Y0095134D01*
X0254165Y0096101D01*
X0253682Y0096585D01*
X0252714Y0096585D01*
X0252230Y0096101D01*
X0252230Y0095134D01*
X0255177Y0095134D02*
X0255661Y0095617D01*
X0257112Y0095617D01*
X0257112Y0096101D02*
X0257112Y0094650D01*
X0255661Y0094650D01*
X0255177Y0095134D01*
X0255661Y0096585D02*
X0256628Y0096585D01*
X0257112Y0096101D01*
X0258123Y0096101D02*
X0258123Y0095134D01*
X0258607Y0094650D01*
X0260058Y0094650D01*
X0260058Y0097552D01*
X0260058Y0096585D02*
X0258607Y0096585D01*
X0258123Y0096101D01*
X0261070Y0096101D02*
X0261070Y0095134D01*
X0261554Y0094650D01*
X0263005Y0094650D01*
X0263005Y0097552D01*
X0263005Y0096585D02*
X0261554Y0096585D01*
X0261070Y0096101D01*
X0264016Y0096101D02*
X0264016Y0095134D01*
X0264500Y0094650D01*
X0265468Y0094650D01*
X0265951Y0095134D01*
X0265951Y0096101D01*
X0265468Y0096585D01*
X0264500Y0096585D01*
X0264016Y0096101D01*
X0266963Y0096101D02*
X0266963Y0095134D01*
X0267447Y0094650D01*
X0268898Y0094650D01*
X0268898Y0094166D02*
X0268898Y0096585D01*
X0267447Y0096585D01*
X0266963Y0096101D01*
X0267930Y0093683D02*
X0268414Y0093683D01*
X0268898Y0094166D01*
X0269909Y0094650D02*
X0271844Y0094650D01*
X0272856Y0095134D02*
X0273340Y0095617D01*
X0274791Y0095617D01*
X0274791Y0096101D02*
X0274791Y0094650D01*
X0273340Y0094650D01*
X0272856Y0095134D01*
X0273340Y0096585D02*
X0274307Y0096585D01*
X0274791Y0096101D01*
X0275803Y0096585D02*
X0277254Y0096585D01*
X0277737Y0096101D01*
X0277737Y0095134D01*
X0277254Y0094650D01*
X0275803Y0094650D01*
X0275803Y0097552D01*
X0278749Y0096101D02*
X0279233Y0096585D01*
X0280684Y0096585D01*
X0280200Y0095617D02*
X0279233Y0095617D01*
X0278749Y0096101D01*
X0278749Y0094650D02*
X0280200Y0094650D01*
X0280684Y0095134D01*
X0280200Y0095617D01*
X0280684Y0092752D02*
X0280684Y0089850D01*
X0279233Y0089850D01*
X0278749Y0090334D01*
X0278749Y0091301D01*
X0279233Y0091785D01*
X0280684Y0091785D01*
X0281696Y0091301D02*
X0282179Y0091785D01*
X0283147Y0091785D01*
X0283630Y0091301D01*
X0283630Y0090334D01*
X0283147Y0089850D01*
X0282179Y0089850D01*
X0281696Y0090334D01*
X0281696Y0091301D01*
X0284642Y0091301D02*
X0285126Y0091785D01*
X0286577Y0091785D01*
X0286577Y0089366D01*
X0286093Y0088883D01*
X0285610Y0088883D01*
X0285126Y0089850D02*
X0286577Y0089850D01*
X0287589Y0089850D02*
X0287589Y0092752D01*
X0287589Y0094650D02*
X0288556Y0094650D01*
X0288072Y0094650D02*
X0288072Y0096585D01*
X0287589Y0096585D01*
X0288072Y0097552D02*
X0288072Y0098036D01*
X0289553Y0097552D02*
X0289553Y0094650D01*
X0289553Y0096101D02*
X0291488Y0096101D01*
X0292499Y0095134D02*
X0292983Y0095617D01*
X0294434Y0095617D01*
X0294434Y0096101D02*
X0294434Y0094650D01*
X0292983Y0094650D01*
X0292499Y0095134D01*
X0291488Y0094650D02*
X0291488Y0097552D01*
X0292983Y0096585D02*
X0293951Y0096585D01*
X0294434Y0096101D01*
X0295446Y0096585D02*
X0296413Y0096585D01*
X0295930Y0097069D02*
X0295930Y0095134D01*
X0296413Y0094650D01*
X0296912Y0091785D02*
X0298363Y0091785D01*
X0297879Y0090817D02*
X0296912Y0090817D01*
X0296428Y0091301D01*
X0296912Y0091785D01*
X0297879Y0090817D02*
X0298363Y0090334D01*
X0297879Y0089850D01*
X0296428Y0089850D01*
X0295417Y0090334D02*
X0295417Y0091301D01*
X0294933Y0091785D01*
X0293482Y0091785D01*
X0293482Y0092752D02*
X0293482Y0089850D01*
X0294933Y0089850D01*
X0295417Y0090334D01*
X0292470Y0090817D02*
X0291019Y0090817D01*
X0290535Y0090334D01*
X0291019Y0089850D01*
X0292470Y0089850D01*
X0292470Y0091301D01*
X0291986Y0091785D01*
X0291019Y0091785D01*
X0289524Y0089850D02*
X0287589Y0089850D01*
X0285126Y0089850D02*
X0284642Y0090334D01*
X0284642Y0091301D01*
X0282909Y0088436D02*
X0282909Y0087952D01*
X0282909Y0086985D02*
X0282909Y0084566D01*
X0282425Y0084083D01*
X0281941Y0084083D01*
X0283905Y0085534D02*
X0283905Y0086501D01*
X0284389Y0086985D01*
X0285357Y0086985D01*
X0285840Y0086501D01*
X0285840Y0086017D01*
X0283905Y0086017D01*
X0283905Y0085534D02*
X0284389Y0085050D01*
X0285357Y0085050D01*
X0286852Y0085050D02*
X0286852Y0086985D01*
X0288303Y0086985D01*
X0288787Y0086501D01*
X0288787Y0085050D01*
X0289798Y0085050D02*
X0289798Y0087952D01*
X0291250Y0086985D02*
X0289798Y0086017D01*
X0291250Y0085050D01*
X0292254Y0085050D02*
X0293221Y0085050D01*
X0292738Y0085050D02*
X0292738Y0086985D01*
X0292254Y0086985D01*
X0292738Y0087952D02*
X0292738Y0088436D01*
X0294218Y0086985D02*
X0295669Y0086985D01*
X0296153Y0086501D01*
X0296153Y0085050D01*
X0297165Y0085050D02*
X0298616Y0085050D01*
X0299100Y0085534D01*
X0298616Y0086017D01*
X0297648Y0086017D01*
X0297165Y0086501D01*
X0297648Y0086985D01*
X0299100Y0086985D01*
X0300111Y0086985D02*
X0300111Y0085050D01*
X0300111Y0086017D02*
X0301079Y0086985D01*
X0301562Y0086985D01*
X0303050Y0086985D02*
X0304018Y0086985D01*
X0304502Y0086501D01*
X0304502Y0085050D01*
X0303050Y0085050D01*
X0302567Y0085534D01*
X0303050Y0086017D01*
X0304502Y0086017D01*
X0305513Y0085534D02*
X0305997Y0085050D01*
X0307448Y0085050D01*
X0308460Y0085050D02*
X0309427Y0085050D01*
X0308943Y0085050D02*
X0308943Y0086985D01*
X0308460Y0086985D01*
X0307448Y0086985D02*
X0305997Y0086985D01*
X0305513Y0086501D01*
X0305513Y0085534D01*
X0305268Y0088883D02*
X0305268Y0091785D01*
X0306719Y0091785D01*
X0307203Y0091301D01*
X0307203Y0090334D01*
X0306719Y0089850D01*
X0305268Y0089850D01*
X0304256Y0090334D02*
X0304256Y0091301D01*
X0303772Y0091785D01*
X0302805Y0091785D01*
X0302321Y0091301D01*
X0302321Y0090334D01*
X0302805Y0089850D01*
X0303772Y0089850D01*
X0304256Y0090334D01*
X0301310Y0092752D02*
X0299375Y0089850D01*
X0301324Y0094650D02*
X0302292Y0096585D01*
X0303303Y0097069D02*
X0303787Y0097552D01*
X0304755Y0097552D01*
X0305238Y0097069D01*
X0303303Y0095134D01*
X0303787Y0094650D01*
X0304755Y0094650D01*
X0305238Y0095134D01*
X0305238Y0097069D01*
X0303303Y0097069D02*
X0303303Y0095134D01*
X0301324Y0094650D02*
X0300357Y0096585D01*
X0306250Y0095134D02*
X0306734Y0095134D01*
X0306734Y0094650D01*
X0306250Y0094650D01*
X0306250Y0095134D01*
X0307723Y0095134D02*
X0309658Y0097069D01*
X0309658Y0095134D01*
X0309174Y0094650D01*
X0308207Y0094650D01*
X0307723Y0095134D01*
X0307723Y0097069D01*
X0308207Y0097552D01*
X0309174Y0097552D01*
X0309658Y0097069D01*
X0310670Y0097069D02*
X0311153Y0097552D01*
X0312121Y0097552D01*
X0312605Y0097069D01*
X0312605Y0096585D01*
X0310670Y0094650D01*
X0312605Y0094650D01*
X0312612Y0091785D02*
X0311161Y0091785D01*
X0311161Y0089850D01*
X0310149Y0090817D02*
X0308214Y0090817D01*
X0308214Y0090334D02*
X0308214Y0091301D01*
X0308698Y0091785D01*
X0309665Y0091785D01*
X0310149Y0091301D01*
X0310149Y0090817D01*
X0309665Y0089850D02*
X0308698Y0089850D01*
X0308214Y0090334D01*
X0308943Y0088436D02*
X0308943Y0087952D01*
X0310424Y0086985D02*
X0311875Y0086985D01*
X0312359Y0086501D01*
X0312359Y0085050D01*
X0313371Y0085534D02*
X0313854Y0085050D01*
X0315306Y0085050D01*
X0315306Y0084566D02*
X0315306Y0086985D01*
X0313854Y0086985D01*
X0313371Y0086501D01*
X0313371Y0085534D01*
X0314338Y0084083D02*
X0314822Y0084083D01*
X0315306Y0084566D01*
X0316317Y0085050D02*
X0318252Y0087952D01*
X0319264Y0086501D02*
X0319264Y0085534D01*
X0319747Y0085050D01*
X0320715Y0085050D01*
X0321199Y0085534D01*
X0321199Y0086501D01*
X0320715Y0086985D01*
X0319747Y0086985D01*
X0319264Y0086501D01*
X0322210Y0086985D02*
X0322210Y0084083D01*
X0322210Y0085050D02*
X0323661Y0085050D01*
X0324145Y0085534D01*
X0324145Y0086501D01*
X0323661Y0086985D01*
X0322210Y0086985D01*
X0325157Y0086501D02*
X0325640Y0086985D01*
X0326608Y0086985D01*
X0327092Y0086501D01*
X0327092Y0086017D01*
X0325157Y0086017D01*
X0325157Y0085534D02*
X0325157Y0086501D01*
X0325157Y0085534D02*
X0325640Y0085050D01*
X0326608Y0085050D01*
X0328103Y0085050D02*
X0328103Y0086985D01*
X0329554Y0086985D01*
X0330038Y0086501D01*
X0330038Y0085050D01*
X0331050Y0086501D02*
X0332985Y0086501D01*
X0333996Y0086017D02*
X0334964Y0086985D01*
X0335447Y0086985D01*
X0333996Y0086985D02*
X0333996Y0085050D01*
X0336452Y0085534D02*
X0336935Y0086017D01*
X0338387Y0086017D01*
X0338387Y0086501D02*
X0338387Y0085050D01*
X0336935Y0085050D01*
X0336452Y0085534D01*
X0336935Y0086985D02*
X0337903Y0086985D01*
X0338387Y0086501D01*
X0339398Y0086501D02*
X0339398Y0085534D01*
X0339882Y0085050D01*
X0341333Y0085050D01*
X0342345Y0085534D02*
X0342345Y0086501D01*
X0342828Y0086985D01*
X0343796Y0086985D01*
X0344280Y0086501D01*
X0344280Y0086017D01*
X0342345Y0086017D01*
X0342345Y0085534D02*
X0342828Y0085050D01*
X0343796Y0085050D01*
X0345291Y0086501D02*
X0347226Y0086501D01*
X0348238Y0086501D02*
X0348721Y0086985D01*
X0350173Y0086985D01*
X0349689Y0086017D02*
X0348721Y0086017D01*
X0348238Y0086501D01*
X0348238Y0085050D02*
X0349689Y0085050D01*
X0350173Y0085534D01*
X0349689Y0086017D01*
X0351184Y0085534D02*
X0351668Y0085050D01*
X0353119Y0085050D01*
X0354131Y0085534D02*
X0354614Y0086017D01*
X0356066Y0086017D01*
X0356066Y0086501D02*
X0356066Y0085050D01*
X0354614Y0085050D01*
X0354131Y0085534D01*
X0354614Y0086985D02*
X0355582Y0086985D01*
X0356066Y0086501D01*
X0357077Y0085050D02*
X0358045Y0085050D01*
X0357561Y0085050D02*
X0357561Y0087952D01*
X0357077Y0087952D01*
X0359042Y0086501D02*
X0359525Y0086985D01*
X0360493Y0086985D01*
X0360977Y0086501D01*
X0360977Y0086017D01*
X0359042Y0086017D01*
X0359042Y0085534D02*
X0359042Y0086501D01*
X0359042Y0085534D02*
X0359525Y0085050D01*
X0360493Y0085050D01*
X0353119Y0086985D02*
X0351668Y0086985D01*
X0351184Y0086501D01*
X0351184Y0085534D01*
X0343550Y0089850D02*
X0342583Y0089850D01*
X0342099Y0090334D01*
X0342099Y0091301D01*
X0342583Y0091785D01*
X0343550Y0091785D01*
X0344034Y0091301D01*
X0344034Y0090817D01*
X0342099Y0090817D01*
X0341102Y0089850D02*
X0340135Y0089850D01*
X0340619Y0089850D02*
X0340619Y0092752D01*
X0340135Y0092752D01*
X0339123Y0091301D02*
X0338640Y0091785D01*
X0337672Y0091785D01*
X0337672Y0090817D02*
X0339123Y0090817D01*
X0339123Y0091301D02*
X0339123Y0089850D01*
X0337672Y0089850D01*
X0337188Y0090334D01*
X0337672Y0090817D01*
X0336177Y0089850D02*
X0334725Y0089850D01*
X0334242Y0090334D01*
X0334242Y0091301D01*
X0334725Y0091785D01*
X0336177Y0091785D01*
X0333230Y0091785D02*
X0331779Y0091785D01*
X0331295Y0091301D01*
X0331779Y0090817D01*
X0332746Y0090817D01*
X0333230Y0090334D01*
X0332746Y0089850D01*
X0331295Y0089850D01*
X0330284Y0091301D02*
X0328349Y0091301D01*
X0327337Y0091301D02*
X0327337Y0090817D01*
X0325402Y0090817D01*
X0325402Y0090334D02*
X0325402Y0091301D01*
X0325886Y0091785D01*
X0326853Y0091785D01*
X0327337Y0091301D01*
X0326853Y0089850D02*
X0325886Y0089850D01*
X0325402Y0090334D01*
X0324391Y0089850D02*
X0322939Y0089850D01*
X0322456Y0090334D01*
X0322456Y0091301D01*
X0322939Y0091785D01*
X0324391Y0091785D01*
X0321444Y0091301D02*
X0321444Y0089850D01*
X0319993Y0089850D01*
X0319509Y0090334D01*
X0319993Y0090817D01*
X0321444Y0090817D01*
X0321444Y0091301D02*
X0320960Y0091785D01*
X0319993Y0091785D01*
X0318505Y0091785D02*
X0318021Y0091785D01*
X0317054Y0090817D01*
X0317054Y0089850D02*
X0317054Y0091785D01*
X0316042Y0091301D02*
X0314107Y0091301D01*
X0313096Y0091301D02*
X0313096Y0089850D01*
X0313096Y0091301D02*
X0312612Y0091785D01*
X0310424Y0086985D02*
X0310424Y0085050D01*
X0294218Y0085050D02*
X0294218Y0086985D01*
X0286093Y0095617D02*
X0284642Y0095617D01*
X0284642Y0094650D02*
X0284642Y0097552D01*
X0286093Y0097552D01*
X0286577Y0097069D01*
X0286577Y0096101D01*
X0286093Y0095617D01*
X0277737Y0092752D02*
X0277737Y0089850D01*
X0276286Y0089850D01*
X0275802Y0090334D01*
X0275802Y0091301D01*
X0276286Y0091785D01*
X0277737Y0091785D01*
X0274791Y0091301D02*
X0274791Y0089850D01*
X0273340Y0089850D01*
X0272856Y0090334D01*
X0273340Y0090817D01*
X0274791Y0090817D01*
X0274791Y0091301D02*
X0274307Y0091785D01*
X0273340Y0091785D01*
X0271844Y0091301D02*
X0271361Y0091785D01*
X0270393Y0091785D01*
X0269909Y0091301D01*
X0269909Y0090334D01*
X0270393Y0089850D01*
X0271361Y0089850D01*
X0271844Y0090334D01*
X0271844Y0091301D01*
X0268898Y0091301D02*
X0268414Y0090817D01*
X0266963Y0090817D01*
X0266963Y0089850D02*
X0266963Y0092752D01*
X0268414Y0092752D01*
X0268898Y0092269D01*
X0268898Y0091301D01*
X0267930Y0090817D02*
X0268898Y0089850D01*
X0265735Y0087952D02*
X0265735Y0085050D01*
X0267186Y0085050D01*
X0267670Y0085534D01*
X0267670Y0086501D01*
X0267186Y0086985D01*
X0265735Y0086985D01*
X0264724Y0086985D02*
X0264724Y0085050D01*
X0263272Y0085050D01*
X0262789Y0085534D01*
X0262789Y0086985D01*
X0261777Y0086501D02*
X0261777Y0085050D01*
X0261777Y0086501D02*
X0261293Y0086985D01*
X0260326Y0086985D01*
X0259842Y0086501D01*
X0258845Y0086985D02*
X0257878Y0086985D01*
X0258362Y0087469D02*
X0258362Y0085534D01*
X0258845Y0085050D01*
X0259842Y0085050D02*
X0259842Y0087952D01*
X0259575Y0089850D02*
X0260058Y0090334D01*
X0260058Y0091301D01*
X0259575Y0091785D01*
X0258607Y0091785D01*
X0258123Y0091301D01*
X0258123Y0090334D01*
X0258607Y0089850D01*
X0259575Y0089850D01*
X0261070Y0089850D02*
X0261070Y0091785D01*
X0261554Y0091785D01*
X0262037Y0091301D01*
X0262521Y0091785D01*
X0263005Y0091301D01*
X0263005Y0089850D01*
X0262037Y0089850D02*
X0262037Y0091301D01*
X0264016Y0089850D02*
X0265951Y0092752D01*
X0269909Y0094650D02*
X0269909Y0097552D01*
X0257112Y0091785D02*
X0255661Y0091785D01*
X0255177Y0091301D01*
X0255177Y0090334D01*
X0255661Y0089850D01*
X0257112Y0089850D01*
X0256397Y0088436D02*
X0256397Y0087952D01*
X0256397Y0086985D02*
X0256397Y0085050D01*
X0255913Y0085050D02*
X0256881Y0085050D01*
X0254902Y0085050D02*
X0253451Y0085050D01*
X0252967Y0085534D01*
X0252967Y0086501D01*
X0253451Y0086985D01*
X0254902Y0086985D01*
X0254902Y0084566D01*
X0254418Y0084083D01*
X0253934Y0084083D01*
X0255913Y0086985D02*
X0256397Y0086985D01*
X0251955Y0087952D02*
X0250020Y0085050D01*
X0247074Y0085050D02*
X0249009Y0087952D01*
X0247811Y0090334D02*
X0247811Y0091785D01*
X0245348Y0091785D02*
X0244864Y0091301D01*
X0239440Y0088883D02*
X0238956Y0088883D01*
X0236746Y0086985D02*
X0235779Y0086985D01*
X0234767Y0086501D02*
X0234767Y0085050D01*
X0234767Y0086501D02*
X0234284Y0086985D01*
X0233316Y0086985D01*
X0232832Y0086501D01*
X0232832Y0087952D02*
X0232832Y0085050D01*
X0228874Y0085050D02*
X0228874Y0086501D01*
X0228391Y0086985D01*
X0227907Y0086501D01*
X0227907Y0085050D01*
X0226939Y0085050D02*
X0226939Y0086985D01*
X0227423Y0086985D01*
X0227907Y0086501D01*
X0225928Y0086501D02*
X0225444Y0086985D01*
X0224477Y0086985D01*
X0223993Y0086501D01*
X0223993Y0085534D01*
X0224477Y0085050D01*
X0225444Y0085050D01*
X0225928Y0085534D01*
X0225928Y0086501D01*
X0222989Y0086985D02*
X0222505Y0086985D01*
X0221537Y0086017D01*
X0221537Y0085050D02*
X0221537Y0086985D01*
X0220541Y0086501D02*
X0219573Y0086501D01*
X0220057Y0087469D02*
X0220057Y0085050D01*
X0220057Y0087469D02*
X0220541Y0087952D01*
X0217854Y0091301D02*
X0218338Y0091785D01*
X0242654Y0086501D02*
X0243138Y0086985D01*
X0244589Y0086985D01*
X0245601Y0086985D02*
X0245601Y0086501D01*
X0246084Y0086501D01*
X0246084Y0086985D01*
X0245601Y0086985D01*
X0245601Y0085534D02*
X0245601Y0085050D01*
X0246084Y0085050D01*
X0246084Y0085534D01*
X0245601Y0085534D01*
X0244589Y0085534D02*
X0244105Y0086017D01*
X0243138Y0086017D01*
X0242654Y0086501D01*
X0242654Y0085050D02*
X0244105Y0085050D01*
X0244589Y0085534D01*
X0253704Y0089850D02*
X0254187Y0089850D01*
X0254187Y0090334D01*
X0253704Y0090334D01*
X0253704Y0089850D01*
X0268682Y0085534D02*
X0269165Y0085534D01*
X0269165Y0085050D01*
X0268682Y0085050D01*
X0268682Y0085534D01*
X0270155Y0085534D02*
X0270639Y0085050D01*
X0272090Y0085050D01*
X0273102Y0085534D02*
X0273585Y0085050D01*
X0274553Y0085050D01*
X0275036Y0085534D01*
X0275036Y0086501D01*
X0274553Y0086985D01*
X0273585Y0086985D01*
X0273102Y0086501D01*
X0273102Y0085534D01*
X0272090Y0086985D02*
X0270639Y0086985D01*
X0270155Y0086501D01*
X0270155Y0085534D01*
X0276048Y0085050D02*
X0276048Y0086985D01*
X0276532Y0086985D01*
X0277016Y0086501D01*
X0277499Y0086985D01*
X0277983Y0086501D01*
X0277983Y0085050D01*
X0277016Y0085050D02*
X0277016Y0086501D01*
X0278995Y0085050D02*
X0280930Y0087952D01*
X0339398Y0086501D02*
X0339882Y0086985D01*
X0341333Y0086985D01*
X0316985Y0018153D02*
X0315133Y0018153D01*
X0315133Y0014450D01*
X0316985Y0014450D01*
X0317602Y0015067D01*
X0317602Y0017536D01*
X0316985Y0018153D01*
X0313919Y0014450D02*
X0311450Y0014450D01*
X0311450Y0018153D01*
X0310236Y0018153D02*
X0310236Y0014450D01*
X0310236Y0016302D02*
X0307767Y0016302D01*
X0306552Y0015684D02*
X0306552Y0015067D01*
X0305935Y0014450D01*
X0304701Y0014450D01*
X0304084Y0015067D01*
X0304701Y0016302D02*
X0305935Y0016302D01*
X0306552Y0015684D01*
X0307767Y0014450D02*
X0307767Y0018153D01*
X0306552Y0017536D02*
X0305935Y0018153D01*
X0304701Y0018153D01*
X0304084Y0017536D01*
X0304084Y0016919D01*
X0304701Y0016302D01*
X0242602Y0015067D02*
X0242602Y0017536D01*
X0241985Y0018153D01*
X0240133Y0018153D01*
X0240133Y0014450D01*
X0241985Y0014450D01*
X0242602Y0015067D01*
X0238919Y0014450D02*
X0236450Y0014450D01*
X0236450Y0018153D01*
X0235236Y0018153D02*
X0235236Y0014450D01*
X0235236Y0016302D02*
X0232767Y0016302D01*
X0231552Y0015684D02*
X0231552Y0015067D01*
X0230935Y0014450D01*
X0229701Y0014450D01*
X0229084Y0015067D01*
X0229701Y0016302D02*
X0230935Y0016302D01*
X0231552Y0015684D01*
X0232767Y0014450D02*
X0232767Y0018153D01*
X0231552Y0017536D02*
X0230935Y0018153D01*
X0229701Y0018153D01*
X0229084Y0017536D01*
X0229084Y0016919D01*
X0229701Y0016302D01*
X0172602Y0015067D02*
X0172602Y0017536D01*
X0171985Y0018153D01*
X0170133Y0018153D01*
X0170133Y0014450D01*
X0171985Y0014450D01*
X0172602Y0015067D01*
X0168919Y0014450D02*
X0166450Y0014450D01*
X0166450Y0018153D01*
X0165236Y0018153D02*
X0165236Y0014450D01*
X0165236Y0016302D02*
X0162767Y0016302D01*
X0161552Y0015684D02*
X0161552Y0015067D01*
X0160935Y0014450D01*
X0159701Y0014450D01*
X0159084Y0015067D01*
X0159701Y0016302D02*
X0160935Y0016302D01*
X0161552Y0015684D01*
X0162767Y0014450D02*
X0162767Y0018153D01*
X0161552Y0017536D02*
X0160935Y0018153D01*
X0159701Y0018153D01*
X0159084Y0017536D01*
X0159084Y0016919D01*
X0159701Y0016302D01*
X0097602Y0015067D02*
X0097602Y0017536D01*
X0096985Y0018153D01*
X0095133Y0018153D01*
X0095133Y0014450D01*
X0096985Y0014450D01*
X0097602Y0015067D01*
X0093919Y0014450D02*
X0091450Y0014450D01*
X0091450Y0018153D01*
X0090236Y0018153D02*
X0090236Y0014450D01*
X0090236Y0016302D02*
X0087767Y0016302D01*
X0086552Y0015684D02*
X0086552Y0015067D01*
X0085935Y0014450D01*
X0084701Y0014450D01*
X0084084Y0015067D01*
X0084701Y0016302D02*
X0084084Y0016919D01*
X0084084Y0017536D01*
X0084701Y0018153D01*
X0085935Y0018153D01*
X0086552Y0017536D01*
X0087767Y0018153D02*
X0087767Y0014450D01*
X0086552Y0015684D02*
X0085935Y0016302D01*
X0084701Y0016302D01*
D13*
X0116550Y0032367D02*
X0116867Y0032050D01*
X0117184Y0032050D01*
X0117501Y0032367D01*
X0117501Y0033952D01*
X0117184Y0033952D02*
X0117818Y0033952D01*
X0118760Y0033318D02*
X0119394Y0033952D01*
X0119394Y0032050D01*
X0118760Y0032050D02*
X0120028Y0032050D01*
X0120970Y0032050D02*
X0122237Y0032050D01*
X0121604Y0032050D02*
X0121604Y0033952D01*
X0120970Y0033318D01*
X0126867Y0062050D02*
X0127184Y0062050D01*
X0127501Y0062367D01*
X0127501Y0063952D01*
X0127184Y0063952D02*
X0127818Y0063952D01*
X0128760Y0063952D02*
X0130028Y0063952D01*
X0130028Y0063635D01*
X0128760Y0062367D01*
X0128760Y0062050D01*
X0126867Y0062050D02*
X0126550Y0062367D01*
X0187184Y0033952D02*
X0187818Y0033952D01*
X0187501Y0033952D02*
X0187501Y0032367D01*
X0187184Y0032050D01*
X0186867Y0032050D01*
X0186550Y0032367D01*
X0188760Y0032050D02*
X0190028Y0032050D01*
X0189394Y0032050D02*
X0189394Y0033952D01*
X0188760Y0033318D01*
X0190970Y0033635D02*
X0191287Y0033952D01*
X0191921Y0033952D01*
X0192237Y0033635D01*
X0192237Y0033318D01*
X0190970Y0032050D01*
X0192237Y0032050D01*
X0221867Y0062050D02*
X0222184Y0062050D01*
X0222501Y0062367D01*
X0222501Y0063952D01*
X0222184Y0063952D02*
X0222818Y0063952D01*
X0223760Y0063635D02*
X0224077Y0063952D01*
X0224711Y0063952D01*
X0225028Y0063635D01*
X0225028Y0063318D01*
X0224711Y0063001D01*
X0224077Y0063001D01*
X0223760Y0063318D01*
X0223760Y0063635D01*
X0224077Y0063001D02*
X0223760Y0062684D01*
X0223760Y0062367D01*
X0224077Y0062050D01*
X0224711Y0062050D01*
X0225028Y0062367D01*
X0225028Y0062684D01*
X0224711Y0063001D01*
X0221867Y0062050D02*
X0221550Y0062367D01*
X0262184Y0033952D02*
X0262818Y0033952D01*
X0262501Y0033952D02*
X0262501Y0032367D01*
X0262184Y0032050D01*
X0261867Y0032050D01*
X0261550Y0032367D01*
X0263760Y0032050D02*
X0265028Y0032050D01*
X0264394Y0032050D02*
X0264394Y0033952D01*
X0263760Y0033318D01*
X0265970Y0033635D02*
X0266287Y0033952D01*
X0266921Y0033952D01*
X0267238Y0033635D01*
X0267238Y0033318D01*
X0266921Y0033001D01*
X0267238Y0032684D01*
X0267238Y0032367D01*
X0266921Y0032050D01*
X0266287Y0032050D01*
X0265970Y0032367D01*
X0266604Y0033001D02*
X0266921Y0033001D01*
X0311550Y0062367D02*
X0311867Y0062050D01*
X0312184Y0062050D01*
X0312501Y0062367D01*
X0312501Y0063952D01*
X0312184Y0063952D02*
X0312818Y0063952D01*
X0313760Y0063635D02*
X0314077Y0063952D01*
X0314711Y0063952D01*
X0315028Y0063635D01*
X0315028Y0062367D01*
X0314711Y0062050D01*
X0314077Y0062050D01*
X0313760Y0062367D01*
X0314077Y0063001D02*
X0315028Y0063001D01*
X0314077Y0063001D02*
X0313760Y0063318D01*
X0313760Y0063635D01*
X0314077Y0172050D02*
X0313760Y0172367D01*
X0314077Y0172050D02*
X0314711Y0172050D01*
X0315028Y0172367D01*
X0315028Y0173001D01*
X0314711Y0173318D01*
X0314394Y0173318D01*
X0313760Y0173001D01*
X0313760Y0173952D01*
X0315028Y0173952D01*
X0312818Y0173952D02*
X0312184Y0173952D01*
X0312501Y0173952D02*
X0312501Y0172367D01*
X0312184Y0172050D01*
X0311867Y0172050D01*
X0311550Y0172367D01*
X0225028Y0173001D02*
X0223760Y0173001D01*
X0224711Y0173952D01*
X0224711Y0172050D01*
X0222501Y0172367D02*
X0222501Y0173952D01*
X0222184Y0173952D02*
X0222818Y0173952D01*
X0222501Y0172367D02*
X0222184Y0172050D01*
X0221867Y0172050D01*
X0221550Y0172367D01*
X0130028Y0172367D02*
X0129711Y0172050D01*
X0129077Y0172050D01*
X0128760Y0172367D01*
X0129394Y0173001D02*
X0129711Y0173001D01*
X0130028Y0172684D01*
X0130028Y0172367D01*
X0129711Y0173001D02*
X0130028Y0173318D01*
X0130028Y0173635D01*
X0129711Y0173952D01*
X0129077Y0173952D01*
X0128760Y0173635D01*
X0127818Y0173952D02*
X0127184Y0173952D01*
X0127501Y0173952D02*
X0127501Y0172367D01*
X0127184Y0172050D01*
X0126867Y0172050D01*
X0126550Y0172367D01*
X0114156Y0180050D02*
X0111154Y0180050D01*
X0112655Y0180050D02*
X0112655Y0184554D01*
X0111154Y0183053D01*
X0109553Y0184554D02*
X0108051Y0184554D01*
X0108802Y0184554D02*
X0108802Y0180801D01*
X0108051Y0180050D01*
X0107301Y0180050D01*
X0106550Y0180801D01*
X0062553Y0180050D02*
X0059550Y0180050D01*
X0061051Y0180050D02*
X0061051Y0184554D01*
X0059550Y0183053D01*
X0035028Y0173635D02*
X0034711Y0173952D01*
X0034077Y0173952D01*
X0033760Y0173635D01*
X0032818Y0173952D02*
X0032184Y0173952D01*
X0032501Y0173952D02*
X0032501Y0172367D01*
X0032184Y0172050D01*
X0031867Y0172050D01*
X0031550Y0172367D01*
X0033760Y0172050D02*
X0035028Y0173318D01*
X0035028Y0173635D01*
X0035028Y0172050D02*
X0033760Y0172050D01*
X0032818Y0063952D02*
X0032184Y0063952D01*
X0032501Y0063952D02*
X0032501Y0062367D01*
X0032184Y0062050D01*
X0031867Y0062050D01*
X0031550Y0062367D01*
X0033760Y0062367D02*
X0034077Y0062050D01*
X0034711Y0062050D01*
X0035028Y0062367D01*
X0035028Y0062684D01*
X0034711Y0063001D01*
X0033760Y0063001D01*
X0033760Y0062367D01*
X0033760Y0063001D02*
X0034394Y0063635D01*
X0035028Y0063952D01*
X0042184Y0033952D02*
X0042818Y0033952D01*
X0042501Y0033952D02*
X0042501Y0032367D01*
X0042184Y0032050D01*
X0041867Y0032050D01*
X0041550Y0032367D01*
X0043760Y0032050D02*
X0045028Y0032050D01*
X0044394Y0032050D02*
X0044394Y0033952D01*
X0043760Y0033318D01*
X0045970Y0033635D02*
X0046287Y0033952D01*
X0046921Y0033952D01*
X0047237Y0033635D01*
X0045970Y0032367D01*
X0046287Y0032050D01*
X0046921Y0032050D01*
X0047237Y0032367D01*
X0047237Y0033635D01*
X0045970Y0033635D02*
X0045970Y0032367D01*
D14*
X0043800Y0031300D02*
X0041300Y0028800D01*
X0041300Y0023800D01*
X0043800Y0021300D01*
X0048800Y0021300D01*
X0051300Y0023800D01*
X0053800Y0021300D01*
X0058800Y0021300D01*
X0061300Y0023800D01*
X0063800Y0021300D01*
X0068800Y0021300D01*
X0071300Y0023800D01*
X0073800Y0021300D01*
X0078800Y0021300D01*
X0081300Y0023800D01*
X0083800Y0021300D01*
X0088800Y0021300D01*
X0091300Y0023800D01*
X0091300Y0028800D01*
X0088800Y0031300D01*
X0083800Y0031300D01*
X0081300Y0028800D01*
X0078800Y0031300D01*
X0073800Y0031300D01*
X0071300Y0028800D01*
X0068800Y0031300D01*
X0063800Y0031300D01*
X0061300Y0028800D01*
X0058800Y0031300D01*
X0053800Y0031300D01*
X0051300Y0028800D01*
X0048800Y0031300D01*
X0043800Y0031300D01*
X0014607Y0021300D02*
X0014609Y0021464D01*
X0014615Y0021628D01*
X0014625Y0021792D01*
X0014639Y0021956D01*
X0014657Y0022119D01*
X0014679Y0022282D01*
X0014706Y0022444D01*
X0014736Y0022606D01*
X0014770Y0022766D01*
X0014808Y0022926D01*
X0014849Y0023085D01*
X0014895Y0023243D01*
X0014945Y0023399D01*
X0014998Y0023555D01*
X0015055Y0023709D01*
X0015116Y0023861D01*
X0015181Y0024012D01*
X0015250Y0024162D01*
X0015322Y0024309D01*
X0015397Y0024455D01*
X0015477Y0024599D01*
X0015559Y0024741D01*
X0015645Y0024881D01*
X0015735Y0025018D01*
X0015828Y0025154D01*
X0015924Y0025287D01*
X0016024Y0025418D01*
X0016126Y0025546D01*
X0016232Y0025672D01*
X0016341Y0025795D01*
X0016453Y0025915D01*
X0016567Y0026033D01*
X0016685Y0026147D01*
X0016805Y0026259D01*
X0016928Y0026368D01*
X0017054Y0026474D01*
X0017182Y0026576D01*
X0017313Y0026676D01*
X0017446Y0026772D01*
X0017582Y0026865D01*
X0017719Y0026955D01*
X0017859Y0027041D01*
X0018001Y0027123D01*
X0018145Y0027203D01*
X0018291Y0027278D01*
X0018438Y0027350D01*
X0018588Y0027419D01*
X0018739Y0027484D01*
X0018891Y0027545D01*
X0019045Y0027602D01*
X0019201Y0027655D01*
X0019357Y0027705D01*
X0019515Y0027751D01*
X0019674Y0027792D01*
X0019834Y0027830D01*
X0019994Y0027864D01*
X0020156Y0027894D01*
X0020318Y0027921D01*
X0020481Y0027943D01*
X0020644Y0027961D01*
X0020808Y0027975D01*
X0020972Y0027985D01*
X0021136Y0027991D01*
X0021300Y0027993D01*
X0021464Y0027991D01*
X0021628Y0027985D01*
X0021792Y0027975D01*
X0021956Y0027961D01*
X0022119Y0027943D01*
X0022282Y0027921D01*
X0022444Y0027894D01*
X0022606Y0027864D01*
X0022766Y0027830D01*
X0022926Y0027792D01*
X0023085Y0027751D01*
X0023243Y0027705D01*
X0023399Y0027655D01*
X0023555Y0027602D01*
X0023709Y0027545D01*
X0023861Y0027484D01*
X0024012Y0027419D01*
X0024162Y0027350D01*
X0024309Y0027278D01*
X0024455Y0027203D01*
X0024599Y0027123D01*
X0024741Y0027041D01*
X0024881Y0026955D01*
X0025018Y0026865D01*
X0025154Y0026772D01*
X0025287Y0026676D01*
X0025418Y0026576D01*
X0025546Y0026474D01*
X0025672Y0026368D01*
X0025795Y0026259D01*
X0025915Y0026147D01*
X0026033Y0026033D01*
X0026147Y0025915D01*
X0026259Y0025795D01*
X0026368Y0025672D01*
X0026474Y0025546D01*
X0026576Y0025418D01*
X0026676Y0025287D01*
X0026772Y0025154D01*
X0026865Y0025018D01*
X0026955Y0024881D01*
X0027041Y0024741D01*
X0027123Y0024599D01*
X0027203Y0024455D01*
X0027278Y0024309D01*
X0027350Y0024162D01*
X0027419Y0024012D01*
X0027484Y0023861D01*
X0027545Y0023709D01*
X0027602Y0023555D01*
X0027655Y0023399D01*
X0027705Y0023243D01*
X0027751Y0023085D01*
X0027792Y0022926D01*
X0027830Y0022766D01*
X0027864Y0022606D01*
X0027894Y0022444D01*
X0027921Y0022282D01*
X0027943Y0022119D01*
X0027961Y0021956D01*
X0027975Y0021792D01*
X0027985Y0021628D01*
X0027991Y0021464D01*
X0027993Y0021300D01*
X0027991Y0021136D01*
X0027985Y0020972D01*
X0027975Y0020808D01*
X0027961Y0020644D01*
X0027943Y0020481D01*
X0027921Y0020318D01*
X0027894Y0020156D01*
X0027864Y0019994D01*
X0027830Y0019834D01*
X0027792Y0019674D01*
X0027751Y0019515D01*
X0027705Y0019357D01*
X0027655Y0019201D01*
X0027602Y0019045D01*
X0027545Y0018891D01*
X0027484Y0018739D01*
X0027419Y0018588D01*
X0027350Y0018438D01*
X0027278Y0018291D01*
X0027203Y0018145D01*
X0027123Y0018001D01*
X0027041Y0017859D01*
X0026955Y0017719D01*
X0026865Y0017582D01*
X0026772Y0017446D01*
X0026676Y0017313D01*
X0026576Y0017182D01*
X0026474Y0017054D01*
X0026368Y0016928D01*
X0026259Y0016805D01*
X0026147Y0016685D01*
X0026033Y0016567D01*
X0025915Y0016453D01*
X0025795Y0016341D01*
X0025672Y0016232D01*
X0025546Y0016126D01*
X0025418Y0016024D01*
X0025287Y0015924D01*
X0025154Y0015828D01*
X0025018Y0015735D01*
X0024881Y0015645D01*
X0024741Y0015559D01*
X0024599Y0015477D01*
X0024455Y0015397D01*
X0024309Y0015322D01*
X0024162Y0015250D01*
X0024012Y0015181D01*
X0023861Y0015116D01*
X0023709Y0015055D01*
X0023555Y0014998D01*
X0023399Y0014945D01*
X0023243Y0014895D01*
X0023085Y0014849D01*
X0022926Y0014808D01*
X0022766Y0014770D01*
X0022606Y0014736D01*
X0022444Y0014706D01*
X0022282Y0014679D01*
X0022119Y0014657D01*
X0021956Y0014639D01*
X0021792Y0014625D01*
X0021628Y0014615D01*
X0021464Y0014609D01*
X0021300Y0014607D01*
X0021136Y0014609D01*
X0020972Y0014615D01*
X0020808Y0014625D01*
X0020644Y0014639D01*
X0020481Y0014657D01*
X0020318Y0014679D01*
X0020156Y0014706D01*
X0019994Y0014736D01*
X0019834Y0014770D01*
X0019674Y0014808D01*
X0019515Y0014849D01*
X0019357Y0014895D01*
X0019201Y0014945D01*
X0019045Y0014998D01*
X0018891Y0015055D01*
X0018739Y0015116D01*
X0018588Y0015181D01*
X0018438Y0015250D01*
X0018291Y0015322D01*
X0018145Y0015397D01*
X0018001Y0015477D01*
X0017859Y0015559D01*
X0017719Y0015645D01*
X0017582Y0015735D01*
X0017446Y0015828D01*
X0017313Y0015924D01*
X0017182Y0016024D01*
X0017054Y0016126D01*
X0016928Y0016232D01*
X0016805Y0016341D01*
X0016685Y0016453D01*
X0016567Y0016567D01*
X0016453Y0016685D01*
X0016341Y0016805D01*
X0016232Y0016928D01*
X0016126Y0017054D01*
X0016024Y0017182D01*
X0015924Y0017313D01*
X0015828Y0017446D01*
X0015735Y0017582D01*
X0015645Y0017719D01*
X0015559Y0017859D01*
X0015477Y0018001D01*
X0015397Y0018145D01*
X0015322Y0018291D01*
X0015250Y0018438D01*
X0015181Y0018588D01*
X0015116Y0018739D01*
X0015055Y0018891D01*
X0014998Y0019045D01*
X0014945Y0019201D01*
X0014895Y0019357D01*
X0014849Y0019515D01*
X0014808Y0019674D01*
X0014770Y0019834D01*
X0014736Y0019994D01*
X0014706Y0020156D01*
X0014679Y0020318D01*
X0014657Y0020481D01*
X0014639Y0020644D01*
X0014625Y0020808D01*
X0014615Y0020972D01*
X0014609Y0021136D01*
X0014607Y0021300D01*
X0033800Y0051300D02*
X0038800Y0051300D01*
X0041300Y0053800D01*
X0043800Y0051300D01*
X0048800Y0051300D01*
X0051300Y0053800D01*
X0053800Y0051300D01*
X0058800Y0051300D01*
X0061300Y0053800D01*
X0063800Y0051300D01*
X0068800Y0051300D01*
X0071300Y0053800D01*
X0073800Y0051300D01*
X0078800Y0051300D01*
X0081300Y0053800D01*
X0081300Y0058800D01*
X0078800Y0061300D01*
X0073800Y0061300D01*
X0071300Y0058800D01*
X0068800Y0061300D01*
X0063800Y0061300D01*
X0061300Y0058800D01*
X0058800Y0061300D01*
X0053800Y0061300D01*
X0051300Y0058800D01*
X0048800Y0061300D01*
X0043800Y0061300D01*
X0041300Y0058800D01*
X0038800Y0061300D01*
X0033800Y0061300D01*
X0031300Y0058800D01*
X0031300Y0053800D01*
X0033800Y0051300D01*
X0116300Y0028800D02*
X0116300Y0023800D01*
X0118800Y0021300D01*
X0123800Y0021300D01*
X0126300Y0023800D01*
X0128800Y0021300D01*
X0133800Y0021300D01*
X0136300Y0023800D01*
X0138800Y0021300D01*
X0143800Y0021300D01*
X0146300Y0023800D01*
X0148800Y0021300D01*
X0153800Y0021300D01*
X0156300Y0023800D01*
X0158800Y0021300D01*
X0163800Y0021300D01*
X0166300Y0023800D01*
X0166300Y0028800D01*
X0163800Y0031300D01*
X0158800Y0031300D01*
X0156300Y0028800D01*
X0153800Y0031300D01*
X0148800Y0031300D01*
X0146300Y0028800D01*
X0143800Y0031300D01*
X0138800Y0031300D01*
X0136300Y0028800D01*
X0133800Y0031300D01*
X0128800Y0031300D01*
X0126300Y0028800D01*
X0123800Y0031300D01*
X0118800Y0031300D01*
X0116300Y0028800D01*
X0128800Y0051300D02*
X0133800Y0051300D01*
X0136300Y0053800D01*
X0138800Y0051300D01*
X0143800Y0051300D01*
X0146300Y0053800D01*
X0148800Y0051300D01*
X0153800Y0051300D01*
X0156300Y0053800D01*
X0158800Y0051300D01*
X0163800Y0051300D01*
X0166300Y0053800D01*
X0168800Y0051300D01*
X0173800Y0051300D01*
X0176300Y0053800D01*
X0176300Y0058800D01*
X0173800Y0061300D01*
X0168800Y0061300D01*
X0166300Y0058800D01*
X0163800Y0061300D01*
X0158800Y0061300D01*
X0156300Y0058800D01*
X0153800Y0061300D01*
X0148800Y0061300D01*
X0146300Y0058800D01*
X0143800Y0061300D01*
X0138800Y0061300D01*
X0136300Y0058800D01*
X0133800Y0061300D01*
X0128800Y0061300D01*
X0126300Y0058800D01*
X0126300Y0053800D01*
X0128800Y0051300D01*
X0186300Y0028800D02*
X0186300Y0023800D01*
X0188800Y0021300D01*
X0193800Y0021300D01*
X0196300Y0023800D01*
X0198800Y0021300D01*
X0203800Y0021300D01*
X0206300Y0023800D01*
X0208800Y0021300D01*
X0213800Y0021300D01*
X0216300Y0023800D01*
X0218800Y0021300D01*
X0223800Y0021300D01*
X0226300Y0023800D01*
X0228800Y0021300D01*
X0233800Y0021300D01*
X0236300Y0023800D01*
X0236300Y0028800D01*
X0233800Y0031300D01*
X0228800Y0031300D01*
X0226300Y0028800D01*
X0223800Y0031300D01*
X0218800Y0031300D01*
X0216300Y0028800D01*
X0213800Y0031300D01*
X0208800Y0031300D01*
X0206300Y0028800D01*
X0203800Y0031300D01*
X0198800Y0031300D01*
X0196300Y0028800D01*
X0193800Y0031300D01*
X0188800Y0031300D01*
X0186300Y0028800D01*
X0221300Y0053800D02*
X0223800Y0051300D01*
X0228800Y0051300D01*
X0231300Y0053800D01*
X0233800Y0051300D01*
X0238800Y0051300D01*
X0241300Y0053800D01*
X0243800Y0051300D01*
X0248800Y0051300D01*
X0251300Y0053800D01*
X0253800Y0051300D01*
X0258800Y0051300D01*
X0261300Y0053800D01*
X0263800Y0051300D01*
X0268800Y0051300D01*
X0271300Y0053800D01*
X0271300Y0058800D01*
X0268800Y0061300D01*
X0263800Y0061300D01*
X0261300Y0058800D01*
X0258800Y0061300D01*
X0253800Y0061300D01*
X0251300Y0058800D01*
X0248800Y0061300D01*
X0243800Y0061300D01*
X0241300Y0058800D01*
X0238800Y0061300D01*
X0233800Y0061300D01*
X0231300Y0058800D01*
X0228800Y0061300D01*
X0223800Y0061300D01*
X0221300Y0058800D01*
X0221300Y0053800D01*
X0261300Y0028800D02*
X0263800Y0031300D01*
X0268800Y0031300D01*
X0271300Y0028800D01*
X0273800Y0031300D01*
X0278800Y0031300D01*
X0281300Y0028800D01*
X0283800Y0031300D01*
X0288800Y0031300D01*
X0291300Y0028800D01*
X0293800Y0031300D01*
X0298800Y0031300D01*
X0301300Y0028800D01*
X0303800Y0031300D01*
X0308800Y0031300D01*
X0311300Y0028800D01*
X0311300Y0023800D01*
X0308800Y0021300D01*
X0303800Y0021300D01*
X0301300Y0023800D01*
X0298800Y0021300D01*
X0293800Y0021300D01*
X0291300Y0023800D01*
X0288800Y0021300D01*
X0283800Y0021300D01*
X0281300Y0023800D01*
X0278800Y0021300D01*
X0273800Y0021300D01*
X0271300Y0023800D01*
X0268800Y0021300D01*
X0263800Y0021300D01*
X0261300Y0023800D01*
X0261300Y0028800D01*
X0311300Y0053800D02*
X0313800Y0051300D01*
X0318800Y0051300D01*
X0321300Y0053800D01*
X0323800Y0051300D01*
X0328800Y0051300D01*
X0331300Y0053800D01*
X0333800Y0051300D01*
X0338800Y0051300D01*
X0341300Y0053800D01*
X0343800Y0051300D01*
X0348800Y0051300D01*
X0351300Y0053800D01*
X0353800Y0051300D01*
X0358800Y0051300D01*
X0361300Y0053800D01*
X0361300Y0058800D01*
X0358800Y0061300D01*
X0353800Y0061300D01*
X0351300Y0058800D01*
X0348800Y0061300D01*
X0343800Y0061300D01*
X0341300Y0058800D01*
X0338800Y0061300D01*
X0333800Y0061300D01*
X0331300Y0058800D01*
X0328800Y0061300D01*
X0323800Y0061300D01*
X0321300Y0058800D01*
X0318800Y0061300D01*
X0313800Y0061300D01*
X0311300Y0058800D01*
X0311300Y0053800D01*
X0339607Y0021300D02*
X0339609Y0021464D01*
X0339615Y0021628D01*
X0339625Y0021792D01*
X0339639Y0021956D01*
X0339657Y0022119D01*
X0339679Y0022282D01*
X0339706Y0022444D01*
X0339736Y0022606D01*
X0339770Y0022766D01*
X0339808Y0022926D01*
X0339849Y0023085D01*
X0339895Y0023243D01*
X0339945Y0023399D01*
X0339998Y0023555D01*
X0340055Y0023709D01*
X0340116Y0023861D01*
X0340181Y0024012D01*
X0340250Y0024162D01*
X0340322Y0024309D01*
X0340397Y0024455D01*
X0340477Y0024599D01*
X0340559Y0024741D01*
X0340645Y0024881D01*
X0340735Y0025018D01*
X0340828Y0025154D01*
X0340924Y0025287D01*
X0341024Y0025418D01*
X0341126Y0025546D01*
X0341232Y0025672D01*
X0341341Y0025795D01*
X0341453Y0025915D01*
X0341567Y0026033D01*
X0341685Y0026147D01*
X0341805Y0026259D01*
X0341928Y0026368D01*
X0342054Y0026474D01*
X0342182Y0026576D01*
X0342313Y0026676D01*
X0342446Y0026772D01*
X0342582Y0026865D01*
X0342719Y0026955D01*
X0342859Y0027041D01*
X0343001Y0027123D01*
X0343145Y0027203D01*
X0343291Y0027278D01*
X0343438Y0027350D01*
X0343588Y0027419D01*
X0343739Y0027484D01*
X0343891Y0027545D01*
X0344045Y0027602D01*
X0344201Y0027655D01*
X0344357Y0027705D01*
X0344515Y0027751D01*
X0344674Y0027792D01*
X0344834Y0027830D01*
X0344994Y0027864D01*
X0345156Y0027894D01*
X0345318Y0027921D01*
X0345481Y0027943D01*
X0345644Y0027961D01*
X0345808Y0027975D01*
X0345972Y0027985D01*
X0346136Y0027991D01*
X0346300Y0027993D01*
X0346464Y0027991D01*
X0346628Y0027985D01*
X0346792Y0027975D01*
X0346956Y0027961D01*
X0347119Y0027943D01*
X0347282Y0027921D01*
X0347444Y0027894D01*
X0347606Y0027864D01*
X0347766Y0027830D01*
X0347926Y0027792D01*
X0348085Y0027751D01*
X0348243Y0027705D01*
X0348399Y0027655D01*
X0348555Y0027602D01*
X0348709Y0027545D01*
X0348861Y0027484D01*
X0349012Y0027419D01*
X0349162Y0027350D01*
X0349309Y0027278D01*
X0349455Y0027203D01*
X0349599Y0027123D01*
X0349741Y0027041D01*
X0349881Y0026955D01*
X0350018Y0026865D01*
X0350154Y0026772D01*
X0350287Y0026676D01*
X0350418Y0026576D01*
X0350546Y0026474D01*
X0350672Y0026368D01*
X0350795Y0026259D01*
X0350915Y0026147D01*
X0351033Y0026033D01*
X0351147Y0025915D01*
X0351259Y0025795D01*
X0351368Y0025672D01*
X0351474Y0025546D01*
X0351576Y0025418D01*
X0351676Y0025287D01*
X0351772Y0025154D01*
X0351865Y0025018D01*
X0351955Y0024881D01*
X0352041Y0024741D01*
X0352123Y0024599D01*
X0352203Y0024455D01*
X0352278Y0024309D01*
X0352350Y0024162D01*
X0352419Y0024012D01*
X0352484Y0023861D01*
X0352545Y0023709D01*
X0352602Y0023555D01*
X0352655Y0023399D01*
X0352705Y0023243D01*
X0352751Y0023085D01*
X0352792Y0022926D01*
X0352830Y0022766D01*
X0352864Y0022606D01*
X0352894Y0022444D01*
X0352921Y0022282D01*
X0352943Y0022119D01*
X0352961Y0021956D01*
X0352975Y0021792D01*
X0352985Y0021628D01*
X0352991Y0021464D01*
X0352993Y0021300D01*
X0352991Y0021136D01*
X0352985Y0020972D01*
X0352975Y0020808D01*
X0352961Y0020644D01*
X0352943Y0020481D01*
X0352921Y0020318D01*
X0352894Y0020156D01*
X0352864Y0019994D01*
X0352830Y0019834D01*
X0352792Y0019674D01*
X0352751Y0019515D01*
X0352705Y0019357D01*
X0352655Y0019201D01*
X0352602Y0019045D01*
X0352545Y0018891D01*
X0352484Y0018739D01*
X0352419Y0018588D01*
X0352350Y0018438D01*
X0352278Y0018291D01*
X0352203Y0018145D01*
X0352123Y0018001D01*
X0352041Y0017859D01*
X0351955Y0017719D01*
X0351865Y0017582D01*
X0351772Y0017446D01*
X0351676Y0017313D01*
X0351576Y0017182D01*
X0351474Y0017054D01*
X0351368Y0016928D01*
X0351259Y0016805D01*
X0351147Y0016685D01*
X0351033Y0016567D01*
X0350915Y0016453D01*
X0350795Y0016341D01*
X0350672Y0016232D01*
X0350546Y0016126D01*
X0350418Y0016024D01*
X0350287Y0015924D01*
X0350154Y0015828D01*
X0350018Y0015735D01*
X0349881Y0015645D01*
X0349741Y0015559D01*
X0349599Y0015477D01*
X0349455Y0015397D01*
X0349309Y0015322D01*
X0349162Y0015250D01*
X0349012Y0015181D01*
X0348861Y0015116D01*
X0348709Y0015055D01*
X0348555Y0014998D01*
X0348399Y0014945D01*
X0348243Y0014895D01*
X0348085Y0014849D01*
X0347926Y0014808D01*
X0347766Y0014770D01*
X0347606Y0014736D01*
X0347444Y0014706D01*
X0347282Y0014679D01*
X0347119Y0014657D01*
X0346956Y0014639D01*
X0346792Y0014625D01*
X0346628Y0014615D01*
X0346464Y0014609D01*
X0346300Y0014607D01*
X0346136Y0014609D01*
X0345972Y0014615D01*
X0345808Y0014625D01*
X0345644Y0014639D01*
X0345481Y0014657D01*
X0345318Y0014679D01*
X0345156Y0014706D01*
X0344994Y0014736D01*
X0344834Y0014770D01*
X0344674Y0014808D01*
X0344515Y0014849D01*
X0344357Y0014895D01*
X0344201Y0014945D01*
X0344045Y0014998D01*
X0343891Y0015055D01*
X0343739Y0015116D01*
X0343588Y0015181D01*
X0343438Y0015250D01*
X0343291Y0015322D01*
X0343145Y0015397D01*
X0343001Y0015477D01*
X0342859Y0015559D01*
X0342719Y0015645D01*
X0342582Y0015735D01*
X0342446Y0015828D01*
X0342313Y0015924D01*
X0342182Y0016024D01*
X0342054Y0016126D01*
X0341928Y0016232D01*
X0341805Y0016341D01*
X0341685Y0016453D01*
X0341567Y0016567D01*
X0341453Y0016685D01*
X0341341Y0016805D01*
X0341232Y0016928D01*
X0341126Y0017054D01*
X0341024Y0017182D01*
X0340924Y0017313D01*
X0340828Y0017446D01*
X0340735Y0017582D01*
X0340645Y0017719D01*
X0340559Y0017859D01*
X0340477Y0018001D01*
X0340397Y0018145D01*
X0340322Y0018291D01*
X0340250Y0018438D01*
X0340181Y0018588D01*
X0340116Y0018739D01*
X0340055Y0018891D01*
X0339998Y0019045D01*
X0339945Y0019201D01*
X0339895Y0019357D01*
X0339849Y0019515D01*
X0339808Y0019674D01*
X0339770Y0019834D01*
X0339736Y0019994D01*
X0339706Y0020156D01*
X0339679Y0020318D01*
X0339657Y0020481D01*
X0339639Y0020644D01*
X0339625Y0020808D01*
X0339615Y0020972D01*
X0339609Y0021136D01*
X0339607Y0021300D01*
X0338800Y0161300D02*
X0333800Y0161300D01*
X0331300Y0163800D01*
X0328800Y0161300D01*
X0323800Y0161300D01*
X0321300Y0163800D01*
X0318800Y0161300D01*
X0313800Y0161300D01*
X0311300Y0163800D01*
X0311300Y0168800D01*
X0313800Y0171300D01*
X0318800Y0171300D01*
X0321300Y0168800D01*
X0323800Y0171300D01*
X0328800Y0171300D01*
X0331300Y0168800D01*
X0333800Y0171300D01*
X0338800Y0171300D01*
X0341300Y0168800D01*
X0343800Y0171300D01*
X0348800Y0171300D01*
X0351300Y0168800D01*
X0353800Y0171300D01*
X0358800Y0171300D01*
X0361300Y0168800D01*
X0361300Y0163800D01*
X0358800Y0161300D01*
X0353800Y0161300D01*
X0351300Y0163800D01*
X0348800Y0161300D01*
X0343800Y0161300D01*
X0341300Y0163800D01*
X0338800Y0161300D01*
X0339607Y0191300D02*
X0339609Y0191464D01*
X0339615Y0191628D01*
X0339625Y0191792D01*
X0339639Y0191956D01*
X0339657Y0192119D01*
X0339679Y0192282D01*
X0339706Y0192444D01*
X0339736Y0192606D01*
X0339770Y0192766D01*
X0339808Y0192926D01*
X0339849Y0193085D01*
X0339895Y0193243D01*
X0339945Y0193399D01*
X0339998Y0193555D01*
X0340055Y0193709D01*
X0340116Y0193861D01*
X0340181Y0194012D01*
X0340250Y0194162D01*
X0340322Y0194309D01*
X0340397Y0194455D01*
X0340477Y0194599D01*
X0340559Y0194741D01*
X0340645Y0194881D01*
X0340735Y0195018D01*
X0340828Y0195154D01*
X0340924Y0195287D01*
X0341024Y0195418D01*
X0341126Y0195546D01*
X0341232Y0195672D01*
X0341341Y0195795D01*
X0341453Y0195915D01*
X0341567Y0196033D01*
X0341685Y0196147D01*
X0341805Y0196259D01*
X0341928Y0196368D01*
X0342054Y0196474D01*
X0342182Y0196576D01*
X0342313Y0196676D01*
X0342446Y0196772D01*
X0342582Y0196865D01*
X0342719Y0196955D01*
X0342859Y0197041D01*
X0343001Y0197123D01*
X0343145Y0197203D01*
X0343291Y0197278D01*
X0343438Y0197350D01*
X0343588Y0197419D01*
X0343739Y0197484D01*
X0343891Y0197545D01*
X0344045Y0197602D01*
X0344201Y0197655D01*
X0344357Y0197705D01*
X0344515Y0197751D01*
X0344674Y0197792D01*
X0344834Y0197830D01*
X0344994Y0197864D01*
X0345156Y0197894D01*
X0345318Y0197921D01*
X0345481Y0197943D01*
X0345644Y0197961D01*
X0345808Y0197975D01*
X0345972Y0197985D01*
X0346136Y0197991D01*
X0346300Y0197993D01*
X0346464Y0197991D01*
X0346628Y0197985D01*
X0346792Y0197975D01*
X0346956Y0197961D01*
X0347119Y0197943D01*
X0347282Y0197921D01*
X0347444Y0197894D01*
X0347606Y0197864D01*
X0347766Y0197830D01*
X0347926Y0197792D01*
X0348085Y0197751D01*
X0348243Y0197705D01*
X0348399Y0197655D01*
X0348555Y0197602D01*
X0348709Y0197545D01*
X0348861Y0197484D01*
X0349012Y0197419D01*
X0349162Y0197350D01*
X0349309Y0197278D01*
X0349455Y0197203D01*
X0349599Y0197123D01*
X0349741Y0197041D01*
X0349881Y0196955D01*
X0350018Y0196865D01*
X0350154Y0196772D01*
X0350287Y0196676D01*
X0350418Y0196576D01*
X0350546Y0196474D01*
X0350672Y0196368D01*
X0350795Y0196259D01*
X0350915Y0196147D01*
X0351033Y0196033D01*
X0351147Y0195915D01*
X0351259Y0195795D01*
X0351368Y0195672D01*
X0351474Y0195546D01*
X0351576Y0195418D01*
X0351676Y0195287D01*
X0351772Y0195154D01*
X0351865Y0195018D01*
X0351955Y0194881D01*
X0352041Y0194741D01*
X0352123Y0194599D01*
X0352203Y0194455D01*
X0352278Y0194309D01*
X0352350Y0194162D01*
X0352419Y0194012D01*
X0352484Y0193861D01*
X0352545Y0193709D01*
X0352602Y0193555D01*
X0352655Y0193399D01*
X0352705Y0193243D01*
X0352751Y0193085D01*
X0352792Y0192926D01*
X0352830Y0192766D01*
X0352864Y0192606D01*
X0352894Y0192444D01*
X0352921Y0192282D01*
X0352943Y0192119D01*
X0352961Y0191956D01*
X0352975Y0191792D01*
X0352985Y0191628D01*
X0352991Y0191464D01*
X0352993Y0191300D01*
X0352991Y0191136D01*
X0352985Y0190972D01*
X0352975Y0190808D01*
X0352961Y0190644D01*
X0352943Y0190481D01*
X0352921Y0190318D01*
X0352894Y0190156D01*
X0352864Y0189994D01*
X0352830Y0189834D01*
X0352792Y0189674D01*
X0352751Y0189515D01*
X0352705Y0189357D01*
X0352655Y0189201D01*
X0352602Y0189045D01*
X0352545Y0188891D01*
X0352484Y0188739D01*
X0352419Y0188588D01*
X0352350Y0188438D01*
X0352278Y0188291D01*
X0352203Y0188145D01*
X0352123Y0188001D01*
X0352041Y0187859D01*
X0351955Y0187719D01*
X0351865Y0187582D01*
X0351772Y0187446D01*
X0351676Y0187313D01*
X0351576Y0187182D01*
X0351474Y0187054D01*
X0351368Y0186928D01*
X0351259Y0186805D01*
X0351147Y0186685D01*
X0351033Y0186567D01*
X0350915Y0186453D01*
X0350795Y0186341D01*
X0350672Y0186232D01*
X0350546Y0186126D01*
X0350418Y0186024D01*
X0350287Y0185924D01*
X0350154Y0185828D01*
X0350018Y0185735D01*
X0349881Y0185645D01*
X0349741Y0185559D01*
X0349599Y0185477D01*
X0349455Y0185397D01*
X0349309Y0185322D01*
X0349162Y0185250D01*
X0349012Y0185181D01*
X0348861Y0185116D01*
X0348709Y0185055D01*
X0348555Y0184998D01*
X0348399Y0184945D01*
X0348243Y0184895D01*
X0348085Y0184849D01*
X0347926Y0184808D01*
X0347766Y0184770D01*
X0347606Y0184736D01*
X0347444Y0184706D01*
X0347282Y0184679D01*
X0347119Y0184657D01*
X0346956Y0184639D01*
X0346792Y0184625D01*
X0346628Y0184615D01*
X0346464Y0184609D01*
X0346300Y0184607D01*
X0346136Y0184609D01*
X0345972Y0184615D01*
X0345808Y0184625D01*
X0345644Y0184639D01*
X0345481Y0184657D01*
X0345318Y0184679D01*
X0345156Y0184706D01*
X0344994Y0184736D01*
X0344834Y0184770D01*
X0344674Y0184808D01*
X0344515Y0184849D01*
X0344357Y0184895D01*
X0344201Y0184945D01*
X0344045Y0184998D01*
X0343891Y0185055D01*
X0343739Y0185116D01*
X0343588Y0185181D01*
X0343438Y0185250D01*
X0343291Y0185322D01*
X0343145Y0185397D01*
X0343001Y0185477D01*
X0342859Y0185559D01*
X0342719Y0185645D01*
X0342582Y0185735D01*
X0342446Y0185828D01*
X0342313Y0185924D01*
X0342182Y0186024D01*
X0342054Y0186126D01*
X0341928Y0186232D01*
X0341805Y0186341D01*
X0341685Y0186453D01*
X0341567Y0186567D01*
X0341453Y0186685D01*
X0341341Y0186805D01*
X0341232Y0186928D01*
X0341126Y0187054D01*
X0341024Y0187182D01*
X0340924Y0187313D01*
X0340828Y0187446D01*
X0340735Y0187582D01*
X0340645Y0187719D01*
X0340559Y0187859D01*
X0340477Y0188001D01*
X0340397Y0188145D01*
X0340322Y0188291D01*
X0340250Y0188438D01*
X0340181Y0188588D01*
X0340116Y0188739D01*
X0340055Y0188891D01*
X0339998Y0189045D01*
X0339945Y0189201D01*
X0339895Y0189357D01*
X0339849Y0189515D01*
X0339808Y0189674D01*
X0339770Y0189834D01*
X0339736Y0189994D01*
X0339706Y0190156D01*
X0339679Y0190318D01*
X0339657Y0190481D01*
X0339639Y0190644D01*
X0339625Y0190808D01*
X0339615Y0190972D01*
X0339609Y0191136D01*
X0339607Y0191300D01*
X0271300Y0168800D02*
X0271300Y0163800D01*
X0268800Y0161300D01*
X0263800Y0161300D01*
X0261300Y0163800D01*
X0258800Y0161300D01*
X0253800Y0161300D01*
X0251300Y0163800D01*
X0248800Y0161300D01*
X0243800Y0161300D01*
X0241300Y0163800D01*
X0238800Y0161300D01*
X0233800Y0161300D01*
X0231300Y0163800D01*
X0228800Y0161300D01*
X0223800Y0161300D01*
X0221300Y0163800D01*
X0221300Y0168800D01*
X0223800Y0171300D01*
X0228800Y0171300D01*
X0231300Y0168800D01*
X0233800Y0171300D01*
X0238800Y0171300D01*
X0241300Y0168800D01*
X0243800Y0171300D01*
X0248800Y0171300D01*
X0251300Y0168800D01*
X0253800Y0171300D01*
X0258800Y0171300D01*
X0261300Y0168800D01*
X0263800Y0171300D01*
X0268800Y0171300D01*
X0271300Y0168800D01*
X0176300Y0168800D02*
X0176300Y0163800D01*
X0173800Y0161300D01*
X0168800Y0161300D01*
X0166300Y0163800D01*
X0163800Y0161300D01*
X0158800Y0161300D01*
X0156300Y0163800D01*
X0153800Y0161300D01*
X0148800Y0161300D01*
X0146300Y0163800D01*
X0143800Y0161300D01*
X0138800Y0161300D01*
X0136300Y0163800D01*
X0133800Y0161300D01*
X0128800Y0161300D01*
X0126300Y0163800D01*
X0126300Y0168800D01*
X0128800Y0171300D01*
X0133800Y0171300D01*
X0136300Y0168800D01*
X0138800Y0171300D01*
X0143800Y0171300D01*
X0146300Y0168800D01*
X0148800Y0171300D01*
X0153800Y0171300D01*
X0156300Y0168800D01*
X0158800Y0171300D01*
X0163800Y0171300D01*
X0166300Y0168800D01*
X0168800Y0171300D01*
X0173800Y0171300D01*
X0176300Y0168800D01*
X0081300Y0168800D02*
X0081300Y0163800D01*
X0078800Y0161300D01*
X0073800Y0161300D01*
X0071300Y0163800D01*
X0068800Y0161300D01*
X0063800Y0161300D01*
X0061300Y0163800D01*
X0058800Y0161300D01*
X0053800Y0161300D01*
X0051300Y0163800D01*
X0048800Y0161300D01*
X0043800Y0161300D01*
X0041300Y0163800D01*
X0038800Y0161300D01*
X0033800Y0161300D01*
X0031300Y0163800D01*
X0031300Y0168800D01*
X0033800Y0171300D01*
X0038800Y0171300D01*
X0041300Y0168800D01*
X0043800Y0171300D01*
X0048800Y0171300D01*
X0051300Y0168800D01*
X0053800Y0171300D01*
X0058800Y0171300D01*
X0061300Y0168800D01*
X0063800Y0171300D01*
X0068800Y0171300D01*
X0071300Y0168800D01*
X0073800Y0171300D01*
X0078800Y0171300D01*
X0081300Y0168800D01*
X0014607Y0191300D02*
X0014609Y0191464D01*
X0014615Y0191628D01*
X0014625Y0191792D01*
X0014639Y0191956D01*
X0014657Y0192119D01*
X0014679Y0192282D01*
X0014706Y0192444D01*
X0014736Y0192606D01*
X0014770Y0192766D01*
X0014808Y0192926D01*
X0014849Y0193085D01*
X0014895Y0193243D01*
X0014945Y0193399D01*
X0014998Y0193555D01*
X0015055Y0193709D01*
X0015116Y0193861D01*
X0015181Y0194012D01*
X0015250Y0194162D01*
X0015322Y0194309D01*
X0015397Y0194455D01*
X0015477Y0194599D01*
X0015559Y0194741D01*
X0015645Y0194881D01*
X0015735Y0195018D01*
X0015828Y0195154D01*
X0015924Y0195287D01*
X0016024Y0195418D01*
X0016126Y0195546D01*
X0016232Y0195672D01*
X0016341Y0195795D01*
X0016453Y0195915D01*
X0016567Y0196033D01*
X0016685Y0196147D01*
X0016805Y0196259D01*
X0016928Y0196368D01*
X0017054Y0196474D01*
X0017182Y0196576D01*
X0017313Y0196676D01*
X0017446Y0196772D01*
X0017582Y0196865D01*
X0017719Y0196955D01*
X0017859Y0197041D01*
X0018001Y0197123D01*
X0018145Y0197203D01*
X0018291Y0197278D01*
X0018438Y0197350D01*
X0018588Y0197419D01*
X0018739Y0197484D01*
X0018891Y0197545D01*
X0019045Y0197602D01*
X0019201Y0197655D01*
X0019357Y0197705D01*
X0019515Y0197751D01*
X0019674Y0197792D01*
X0019834Y0197830D01*
X0019994Y0197864D01*
X0020156Y0197894D01*
X0020318Y0197921D01*
X0020481Y0197943D01*
X0020644Y0197961D01*
X0020808Y0197975D01*
X0020972Y0197985D01*
X0021136Y0197991D01*
X0021300Y0197993D01*
X0021464Y0197991D01*
X0021628Y0197985D01*
X0021792Y0197975D01*
X0021956Y0197961D01*
X0022119Y0197943D01*
X0022282Y0197921D01*
X0022444Y0197894D01*
X0022606Y0197864D01*
X0022766Y0197830D01*
X0022926Y0197792D01*
X0023085Y0197751D01*
X0023243Y0197705D01*
X0023399Y0197655D01*
X0023555Y0197602D01*
X0023709Y0197545D01*
X0023861Y0197484D01*
X0024012Y0197419D01*
X0024162Y0197350D01*
X0024309Y0197278D01*
X0024455Y0197203D01*
X0024599Y0197123D01*
X0024741Y0197041D01*
X0024881Y0196955D01*
X0025018Y0196865D01*
X0025154Y0196772D01*
X0025287Y0196676D01*
X0025418Y0196576D01*
X0025546Y0196474D01*
X0025672Y0196368D01*
X0025795Y0196259D01*
X0025915Y0196147D01*
X0026033Y0196033D01*
X0026147Y0195915D01*
X0026259Y0195795D01*
X0026368Y0195672D01*
X0026474Y0195546D01*
X0026576Y0195418D01*
X0026676Y0195287D01*
X0026772Y0195154D01*
X0026865Y0195018D01*
X0026955Y0194881D01*
X0027041Y0194741D01*
X0027123Y0194599D01*
X0027203Y0194455D01*
X0027278Y0194309D01*
X0027350Y0194162D01*
X0027419Y0194012D01*
X0027484Y0193861D01*
X0027545Y0193709D01*
X0027602Y0193555D01*
X0027655Y0193399D01*
X0027705Y0193243D01*
X0027751Y0193085D01*
X0027792Y0192926D01*
X0027830Y0192766D01*
X0027864Y0192606D01*
X0027894Y0192444D01*
X0027921Y0192282D01*
X0027943Y0192119D01*
X0027961Y0191956D01*
X0027975Y0191792D01*
X0027985Y0191628D01*
X0027991Y0191464D01*
X0027993Y0191300D01*
X0027991Y0191136D01*
X0027985Y0190972D01*
X0027975Y0190808D01*
X0027961Y0190644D01*
X0027943Y0190481D01*
X0027921Y0190318D01*
X0027894Y0190156D01*
X0027864Y0189994D01*
X0027830Y0189834D01*
X0027792Y0189674D01*
X0027751Y0189515D01*
X0027705Y0189357D01*
X0027655Y0189201D01*
X0027602Y0189045D01*
X0027545Y0188891D01*
X0027484Y0188739D01*
X0027419Y0188588D01*
X0027350Y0188438D01*
X0027278Y0188291D01*
X0027203Y0188145D01*
X0027123Y0188001D01*
X0027041Y0187859D01*
X0026955Y0187719D01*
X0026865Y0187582D01*
X0026772Y0187446D01*
X0026676Y0187313D01*
X0026576Y0187182D01*
X0026474Y0187054D01*
X0026368Y0186928D01*
X0026259Y0186805D01*
X0026147Y0186685D01*
X0026033Y0186567D01*
X0025915Y0186453D01*
X0025795Y0186341D01*
X0025672Y0186232D01*
X0025546Y0186126D01*
X0025418Y0186024D01*
X0025287Y0185924D01*
X0025154Y0185828D01*
X0025018Y0185735D01*
X0024881Y0185645D01*
X0024741Y0185559D01*
X0024599Y0185477D01*
X0024455Y0185397D01*
X0024309Y0185322D01*
X0024162Y0185250D01*
X0024012Y0185181D01*
X0023861Y0185116D01*
X0023709Y0185055D01*
X0023555Y0184998D01*
X0023399Y0184945D01*
X0023243Y0184895D01*
X0023085Y0184849D01*
X0022926Y0184808D01*
X0022766Y0184770D01*
X0022606Y0184736D01*
X0022444Y0184706D01*
X0022282Y0184679D01*
X0022119Y0184657D01*
X0021956Y0184639D01*
X0021792Y0184625D01*
X0021628Y0184615D01*
X0021464Y0184609D01*
X0021300Y0184607D01*
X0021136Y0184609D01*
X0020972Y0184615D01*
X0020808Y0184625D01*
X0020644Y0184639D01*
X0020481Y0184657D01*
X0020318Y0184679D01*
X0020156Y0184706D01*
X0019994Y0184736D01*
X0019834Y0184770D01*
X0019674Y0184808D01*
X0019515Y0184849D01*
X0019357Y0184895D01*
X0019201Y0184945D01*
X0019045Y0184998D01*
X0018891Y0185055D01*
X0018739Y0185116D01*
X0018588Y0185181D01*
X0018438Y0185250D01*
X0018291Y0185322D01*
X0018145Y0185397D01*
X0018001Y0185477D01*
X0017859Y0185559D01*
X0017719Y0185645D01*
X0017582Y0185735D01*
X0017446Y0185828D01*
X0017313Y0185924D01*
X0017182Y0186024D01*
X0017054Y0186126D01*
X0016928Y0186232D01*
X0016805Y0186341D01*
X0016685Y0186453D01*
X0016567Y0186567D01*
X0016453Y0186685D01*
X0016341Y0186805D01*
X0016232Y0186928D01*
X0016126Y0187054D01*
X0016024Y0187182D01*
X0015924Y0187313D01*
X0015828Y0187446D01*
X0015735Y0187582D01*
X0015645Y0187719D01*
X0015559Y0187859D01*
X0015477Y0188001D01*
X0015397Y0188145D01*
X0015322Y0188291D01*
X0015250Y0188438D01*
X0015181Y0188588D01*
X0015116Y0188739D01*
X0015055Y0188891D01*
X0014998Y0189045D01*
X0014945Y0189201D01*
X0014895Y0189357D01*
X0014849Y0189515D01*
X0014808Y0189674D01*
X0014770Y0189834D01*
X0014736Y0189994D01*
X0014706Y0190156D01*
X0014679Y0190318D01*
X0014657Y0190481D01*
X0014639Y0190644D01*
X0014625Y0190808D01*
X0014615Y0190972D01*
X0014609Y0191136D01*
X0014607Y0191300D01*
M02*
