G75*
%MOIN*%
%OFA0B0*%
%FSLAX25Y25*%
%IPPOS*%
%LPD*%
%AMOC8*
5,1,8,0,0,1.08239X$1,22.5*
%
%ADD10C,0.00600*%
%ADD11R,0.06800X0.06800*%
%ADD12OC8,0.06800*%
%ADD13C,0.08200*%
D10*
X0001300Y0001300D02*
X0001300Y0211300D01*
X0341300Y0211300D01*
X0341300Y0001300D01*
X0001300Y0001300D01*
D11*
X0036300Y0191300D03*
D12*
X0046300Y0191300D03*
X0056300Y0191300D03*
X0066300Y0191300D03*
X0076300Y0191300D03*
X0086300Y0191300D03*
X0096300Y0191300D03*
X0106300Y0191300D03*
X0116300Y0191300D03*
X0126300Y0191300D03*
X0136300Y0191300D03*
X0146300Y0191300D03*
X0156300Y0191300D03*
X0166300Y0191300D03*
X0176300Y0191300D03*
X0186300Y0191300D03*
X0196300Y0191300D03*
X0206300Y0191300D03*
X0216300Y0191300D03*
X0226300Y0191300D03*
X0226300Y0201300D03*
X0216300Y0201300D03*
X0206300Y0201300D03*
X0196300Y0201300D03*
X0186300Y0201300D03*
X0176300Y0201300D03*
X0166300Y0201300D03*
X0156300Y0201300D03*
X0146300Y0201300D03*
X0136300Y0201300D03*
X0126300Y0201300D03*
X0116300Y0201300D03*
X0106300Y0201300D03*
X0096300Y0201300D03*
X0086300Y0201300D03*
X0076300Y0201300D03*
X0066300Y0201300D03*
X0056300Y0201300D03*
X0046300Y0201300D03*
X0036300Y0201300D03*
D13*
X0031300Y0166300D03*
X0021300Y0166300D03*
X0011300Y0166300D03*
X0041300Y0166300D03*
X0051300Y0166300D03*
X0106300Y0166300D03*
X0116300Y0166300D03*
X0126300Y0166300D03*
X0136300Y0166300D03*
X0146300Y0166300D03*
X0201300Y0166300D03*
X0211300Y0166300D03*
X0221300Y0166300D03*
X0231300Y0166300D03*
X0241300Y0166300D03*
X0291300Y0166300D03*
X0301300Y0166300D03*
X0311300Y0166300D03*
X0321300Y0166300D03*
X0331300Y0166300D03*
X0331300Y0056300D03*
X0321300Y0056300D03*
X0311300Y0056300D03*
X0301300Y0056300D03*
X0291300Y0056300D03*
X0281300Y0026300D03*
X0271300Y0026300D03*
X0261300Y0026300D03*
X0251300Y0026300D03*
X0241300Y0026300D03*
X0206300Y0026300D03*
X0196300Y0026300D03*
X0186300Y0026300D03*
X0176300Y0026300D03*
X0166300Y0026300D03*
X0136300Y0026300D03*
X0126300Y0026300D03*
X0116300Y0026300D03*
X0106300Y0026300D03*
X0096300Y0026300D03*
X0061300Y0026300D03*
X0051300Y0026300D03*
X0041300Y0026300D03*
X0031300Y0026300D03*
X0021300Y0026300D03*
X0021300Y0056300D03*
X0011300Y0056300D03*
X0031300Y0056300D03*
X0041300Y0056300D03*
X0051300Y0056300D03*
X0106300Y0056300D03*
X0116300Y0056300D03*
X0126300Y0056300D03*
X0136300Y0056300D03*
X0146300Y0056300D03*
X0201300Y0056300D03*
X0211300Y0056300D03*
X0221300Y0056300D03*
X0231300Y0056300D03*
X0241300Y0056300D03*
M02*
