G75*
%MOIN*%
%OFA0B0*%
%FSLAX25Y25*%
%IPPOS*%
%LPD*%
%AMOC8*
5,1,8,0,0,1.08239X$1,22.5*
%
%ADD10C,0.00600*%
%ADD11C,0.00400*%
%ADD12C,0.00300*%
%ADD13C,0.00500*%
%ADD14C,0.00800*%
D10*
X0001300Y0001300D02*
X0001300Y0211300D01*
X0341300Y0211300D01*
X0341300Y0001300D01*
X0001300Y0001300D01*
X0033800Y0186300D02*
X0038800Y0186300D01*
X0041300Y0188800D01*
X0043800Y0186300D01*
X0048800Y0186300D01*
X0051300Y0188800D01*
X0053800Y0186300D01*
X0058800Y0186300D01*
X0061300Y0188800D01*
X0063800Y0186300D01*
X0068800Y0186300D01*
X0071300Y0188800D01*
X0073800Y0186300D01*
X0078800Y0186300D01*
X0081300Y0188800D01*
X0083800Y0186300D01*
X0088800Y0186300D01*
X0091300Y0188800D01*
X0093800Y0186300D01*
X0098800Y0186300D01*
X0101300Y0188800D01*
X0103800Y0186300D01*
X0108800Y0186300D01*
X0111300Y0188800D01*
X0113800Y0186300D01*
X0118800Y0186300D01*
X0121300Y0188800D01*
X0123800Y0186300D01*
X0128800Y0186300D01*
X0131300Y0188800D01*
X0133800Y0186300D01*
X0138800Y0186300D01*
X0141300Y0188800D01*
X0143800Y0186300D01*
X0148800Y0186300D01*
X0151300Y0188800D01*
X0153800Y0186300D01*
X0158800Y0186300D01*
X0161300Y0188800D01*
X0163800Y0186300D01*
X0168800Y0186300D01*
X0171300Y0188800D01*
X0173800Y0186300D01*
X0178800Y0186300D01*
X0181300Y0188800D01*
X0183800Y0186300D01*
X0188800Y0186300D01*
X0191300Y0188800D01*
X0193800Y0186300D01*
X0198800Y0186300D01*
X0201300Y0188800D01*
X0203800Y0186300D01*
X0208800Y0186300D01*
X0211300Y0188800D01*
X0213800Y0186300D01*
X0218800Y0186300D01*
X0221300Y0188800D01*
X0223800Y0186300D01*
X0228800Y0186300D01*
X0231300Y0188800D01*
X0231300Y0203800D01*
X0228800Y0206300D01*
X0223800Y0206300D01*
X0221300Y0203800D01*
X0218800Y0206300D01*
X0213800Y0206300D01*
X0211300Y0203800D01*
X0208800Y0206300D01*
X0203800Y0206300D01*
X0201300Y0203800D01*
X0198800Y0206300D01*
X0193800Y0206300D01*
X0191300Y0203800D01*
X0188800Y0206300D01*
X0183800Y0206300D01*
X0181300Y0203800D01*
X0178800Y0206300D01*
X0173800Y0206300D01*
X0171300Y0203800D01*
X0168800Y0206300D01*
X0163800Y0206300D01*
X0161300Y0203800D01*
X0158800Y0206300D01*
X0153800Y0206300D01*
X0151300Y0203800D01*
X0148800Y0206300D01*
X0143800Y0206300D01*
X0141300Y0203800D01*
X0138800Y0206300D01*
X0133800Y0206300D01*
X0131300Y0203800D01*
X0128800Y0206300D01*
X0123800Y0206300D01*
X0121300Y0203800D01*
X0118800Y0206300D01*
X0113800Y0206300D01*
X0111300Y0203800D01*
X0108800Y0206300D01*
X0103800Y0206300D01*
X0101300Y0203800D01*
X0098800Y0206300D01*
X0093800Y0206300D01*
X0091300Y0203800D01*
X0088800Y0206300D01*
X0083800Y0206300D01*
X0081300Y0203800D01*
X0078800Y0206300D01*
X0073800Y0206300D01*
X0071300Y0203800D01*
X0068800Y0206300D01*
X0063800Y0206300D01*
X0061300Y0203800D01*
X0058800Y0206300D01*
X0053800Y0206300D01*
X0051300Y0203800D01*
X0048800Y0206300D01*
X0043800Y0206300D01*
X0041300Y0203800D01*
X0038800Y0206300D01*
X0033800Y0206300D01*
X0031300Y0203800D01*
X0031300Y0188800D01*
X0033800Y0186300D01*
D11*
X0038696Y0157548D02*
X0042165Y0154078D01*
X0041298Y0154946D02*
X0043900Y0157548D01*
X0043900Y0154078D02*
X0038696Y0154078D01*
X0043900Y0152391D02*
X0043900Y0148922D01*
X0038696Y0148922D01*
X0039563Y0147235D02*
X0038696Y0146368D01*
X0038696Y0144633D01*
X0039563Y0143765D01*
X0043033Y0143765D01*
X0043900Y0144633D01*
X0043900Y0146368D01*
X0043033Y0147235D01*
X0048696Y0146368D02*
X0048696Y0144633D01*
X0049563Y0143765D01*
X0053033Y0143765D01*
X0053900Y0144633D01*
X0053900Y0146368D01*
X0053033Y0147235D01*
X0051298Y0147235D01*
X0051298Y0145500D01*
X0049563Y0147235D02*
X0048696Y0146368D01*
X0048696Y0148922D02*
X0053900Y0152391D01*
X0048696Y0152391D01*
X0048696Y0154078D02*
X0048696Y0156680D01*
X0049563Y0157548D01*
X0053033Y0157548D01*
X0053900Y0156680D01*
X0053900Y0154078D01*
X0048696Y0154078D01*
X0048696Y0148922D02*
X0053900Y0148922D01*
X0033900Y0148922D02*
X0030430Y0148922D01*
X0028696Y0150657D01*
X0030430Y0152391D01*
X0033900Y0152391D01*
X0031298Y0152391D02*
X0031298Y0148922D01*
X0033033Y0147235D02*
X0029563Y0147235D01*
X0028696Y0146368D01*
X0028696Y0143765D01*
X0033900Y0143765D01*
X0033900Y0146368D01*
X0033033Y0147235D01*
X0028696Y0154078D02*
X0028696Y0157548D01*
X0028696Y0155813D02*
X0033900Y0155813D01*
X0023900Y0154946D02*
X0023900Y0156680D01*
X0023033Y0157548D01*
X0019563Y0157548D02*
X0018696Y0156680D01*
X0018696Y0154946D01*
X0019563Y0154078D01*
X0023033Y0154078D01*
X0023900Y0154946D01*
X0023033Y0152391D02*
X0023900Y0151524D01*
X0023900Y0149789D01*
X0023033Y0148922D01*
X0019563Y0148922D01*
X0018696Y0149789D01*
X0018696Y0151524D01*
X0019563Y0152391D01*
X0013900Y0151524D02*
X0013900Y0148922D01*
X0008696Y0148922D01*
X0008696Y0151524D01*
X0009563Y0152391D01*
X0013033Y0152391D01*
X0013900Y0151524D01*
X0013900Y0154078D02*
X0013900Y0156680D01*
X0013033Y0157548D01*
X0009563Y0157548D01*
X0008696Y0156680D01*
X0008696Y0154078D01*
X0013900Y0154078D01*
X0012165Y0147235D02*
X0008696Y0147235D01*
X0012165Y0147235D02*
X0013900Y0145500D01*
X0012165Y0143765D01*
X0008696Y0143765D01*
X0018696Y0143765D02*
X0022165Y0143765D01*
X0023900Y0145500D01*
X0022165Y0147235D01*
X0018696Y0147235D01*
X0103696Y0147235D02*
X0107165Y0147235D01*
X0108900Y0145500D01*
X0107165Y0143765D01*
X0103696Y0143765D01*
X0103696Y0148922D02*
X0103696Y0151524D01*
X0104563Y0152391D01*
X0108033Y0152391D01*
X0108900Y0151524D01*
X0108900Y0148922D01*
X0103696Y0148922D01*
X0103696Y0154078D02*
X0103696Y0156680D01*
X0104563Y0157548D01*
X0108033Y0157548D01*
X0108900Y0156680D01*
X0108900Y0154078D01*
X0103696Y0154078D01*
X0113696Y0154946D02*
X0114563Y0154078D01*
X0118033Y0154078D01*
X0118900Y0154946D01*
X0118900Y0156680D01*
X0118033Y0157548D01*
X0114563Y0157548D02*
X0113696Y0156680D01*
X0113696Y0154946D01*
X0114563Y0152391D02*
X0113696Y0151524D01*
X0113696Y0149789D01*
X0114563Y0148922D01*
X0118033Y0148922D01*
X0118900Y0149789D01*
X0118900Y0151524D01*
X0118033Y0152391D01*
X0117165Y0147235D02*
X0113696Y0147235D01*
X0117165Y0147235D02*
X0118900Y0145500D01*
X0117165Y0143765D01*
X0113696Y0143765D01*
X0123696Y0143765D02*
X0123696Y0146368D01*
X0124563Y0147235D01*
X0128033Y0147235D01*
X0128900Y0146368D01*
X0128900Y0143765D01*
X0123696Y0143765D01*
X0125430Y0148922D02*
X0123696Y0150657D01*
X0125430Y0152391D01*
X0128900Y0152391D01*
X0126298Y0152391D02*
X0126298Y0148922D01*
X0125430Y0148922D02*
X0128900Y0148922D01*
X0133696Y0148922D02*
X0138900Y0148922D01*
X0138900Y0152391D01*
X0138900Y0154078D02*
X0133696Y0154078D01*
X0136298Y0154946D02*
X0138900Y0157548D01*
X0137165Y0154078D02*
X0133696Y0157548D01*
X0128900Y0155813D02*
X0123696Y0155813D01*
X0123696Y0154078D02*
X0123696Y0157548D01*
X0134563Y0147235D02*
X0133696Y0146368D01*
X0133696Y0144633D01*
X0134563Y0143765D01*
X0138033Y0143765D01*
X0138900Y0144633D01*
X0138900Y0146368D01*
X0138033Y0147235D01*
X0143696Y0146368D02*
X0143696Y0144633D01*
X0144563Y0143765D01*
X0148033Y0143765D01*
X0148900Y0144633D01*
X0148900Y0146368D01*
X0148033Y0147235D01*
X0146298Y0147235D01*
X0146298Y0145500D01*
X0144563Y0147235D02*
X0143696Y0146368D01*
X0143696Y0148922D02*
X0148900Y0152391D01*
X0143696Y0152391D01*
X0143696Y0154078D02*
X0143696Y0156680D01*
X0144563Y0157548D01*
X0148033Y0157548D01*
X0148900Y0156680D01*
X0148900Y0154078D01*
X0143696Y0154078D01*
X0143696Y0148922D02*
X0148900Y0148922D01*
X0198696Y0148922D02*
X0198696Y0151524D01*
X0199563Y0152391D01*
X0203033Y0152391D01*
X0203900Y0151524D01*
X0203900Y0148922D01*
X0198696Y0148922D01*
X0198696Y0147235D02*
X0202165Y0147235D01*
X0203900Y0145500D01*
X0202165Y0143765D01*
X0198696Y0143765D01*
X0208696Y0143765D02*
X0212165Y0143765D01*
X0213900Y0145500D01*
X0212165Y0147235D01*
X0208696Y0147235D01*
X0209563Y0148922D02*
X0208696Y0149789D01*
X0208696Y0151524D01*
X0209563Y0152391D01*
X0209563Y0154078D02*
X0208696Y0154946D01*
X0208696Y0156680D01*
X0209563Y0157548D01*
X0213033Y0157548D02*
X0213900Y0156680D01*
X0213900Y0154946D01*
X0213033Y0154078D01*
X0209563Y0154078D01*
X0213033Y0152391D02*
X0213900Y0151524D01*
X0213900Y0149789D01*
X0213033Y0148922D01*
X0209563Y0148922D01*
X0203900Y0154078D02*
X0203900Y0156680D01*
X0203033Y0157548D01*
X0199563Y0157548D01*
X0198696Y0156680D01*
X0198696Y0154078D01*
X0203900Y0154078D01*
X0218696Y0154078D02*
X0218696Y0157548D01*
X0218696Y0155813D02*
X0223900Y0155813D01*
X0228696Y0154078D02*
X0233900Y0154078D01*
X0233900Y0152391D02*
X0233900Y0148922D01*
X0228696Y0148922D01*
X0229563Y0147235D02*
X0228696Y0146368D01*
X0228696Y0144633D01*
X0229563Y0143765D01*
X0233033Y0143765D01*
X0233900Y0144633D01*
X0233900Y0146368D01*
X0233033Y0147235D01*
X0238696Y0146368D02*
X0238696Y0144633D01*
X0239563Y0143765D01*
X0243033Y0143765D01*
X0243900Y0144633D01*
X0243900Y0146368D01*
X0243033Y0147235D01*
X0241298Y0147235D01*
X0241298Y0145500D01*
X0239563Y0147235D02*
X0238696Y0146368D01*
X0238696Y0148922D02*
X0243900Y0152391D01*
X0238696Y0152391D01*
X0238696Y0154078D02*
X0238696Y0156680D01*
X0239563Y0157548D01*
X0243033Y0157548D01*
X0243900Y0156680D01*
X0243900Y0154078D01*
X0238696Y0154078D01*
X0238696Y0148922D02*
X0243900Y0148922D01*
X0232165Y0154078D02*
X0228696Y0157548D01*
X0231298Y0154946D02*
X0233900Y0157548D01*
X0223900Y0152391D02*
X0220430Y0152391D01*
X0218696Y0150657D01*
X0220430Y0148922D01*
X0223900Y0148922D01*
X0223033Y0147235D02*
X0219563Y0147235D01*
X0218696Y0146368D01*
X0218696Y0143765D01*
X0223900Y0143765D01*
X0223900Y0146368D01*
X0223033Y0147235D01*
X0221298Y0148922D02*
X0221298Y0152391D01*
X0188356Y0113604D02*
X0188356Y0109000D01*
X0187589Y0109000D02*
X0189123Y0109000D01*
X0190658Y0109767D02*
X0190658Y0111302D01*
X0191425Y0112069D01*
X0192960Y0112069D01*
X0193727Y0111302D01*
X0193727Y0110535D01*
X0190658Y0110535D01*
X0190658Y0109767D02*
X0191425Y0109000D01*
X0192960Y0109000D01*
X0188356Y0113604D02*
X0187589Y0113604D01*
X0186054Y0111302D02*
X0186054Y0109000D01*
X0183752Y0109000D01*
X0182985Y0109767D01*
X0183752Y0110535D01*
X0186054Y0110535D01*
X0186054Y0111302D02*
X0185287Y0112069D01*
X0183752Y0112069D01*
X0181450Y0112069D02*
X0179148Y0112069D01*
X0178381Y0111302D01*
X0178381Y0109767D01*
X0179148Y0109000D01*
X0181450Y0109000D01*
X0176846Y0109767D02*
X0176079Y0109000D01*
X0174544Y0109000D01*
X0173777Y0109767D01*
X0174544Y0111302D02*
X0176079Y0111302D01*
X0176846Y0110535D01*
X0176846Y0109767D01*
X0174544Y0111302D02*
X0173777Y0112069D01*
X0173777Y0112837D01*
X0174544Y0113604D01*
X0176079Y0113604D01*
X0176846Y0112837D01*
X0167638Y0111302D02*
X0167638Y0110535D01*
X0164569Y0110535D01*
X0164569Y0111302D02*
X0164569Y0109767D01*
X0165337Y0109000D01*
X0166871Y0109000D01*
X0167638Y0111302D02*
X0166871Y0112069D01*
X0165337Y0112069D01*
X0164569Y0111302D01*
X0163035Y0112069D02*
X0160733Y0112069D01*
X0159965Y0111302D01*
X0159965Y0109767D01*
X0160733Y0109000D01*
X0163035Y0109000D01*
X0158431Y0109000D02*
X0158431Y0111302D01*
X0157663Y0112069D01*
X0156129Y0112069D01*
X0156129Y0110535D02*
X0158431Y0110535D01*
X0158431Y0109000D02*
X0156129Y0109000D01*
X0155361Y0109767D01*
X0156129Y0110535D01*
X0153827Y0111302D02*
X0153059Y0110535D01*
X0150757Y0110535D01*
X0150757Y0109000D02*
X0150757Y0113604D01*
X0153059Y0113604D01*
X0153827Y0112837D01*
X0153827Y0111302D01*
X0152292Y0110535D02*
X0153827Y0109000D01*
X0144619Y0109000D02*
X0144619Y0111302D01*
X0143852Y0112069D01*
X0141550Y0112069D01*
X0141550Y0109000D01*
X0140015Y0110535D02*
X0140015Y0111302D01*
X0139248Y0112069D01*
X0137713Y0112069D01*
X0136946Y0111302D01*
X0136946Y0109767D01*
X0137713Y0109000D01*
X0139248Y0109000D01*
X0140015Y0110535D02*
X0136946Y0110535D01*
X0135411Y0111302D02*
X0135411Y0109767D01*
X0134644Y0109000D01*
X0132342Y0109000D01*
X0132342Y0107465D02*
X0132342Y0112069D01*
X0134644Y0112069D01*
X0135411Y0111302D01*
X0130807Y0109767D02*
X0130807Y0112837D01*
X0130040Y0113604D01*
X0128505Y0113604D01*
X0127738Y0112837D01*
X0127738Y0109767D01*
X0128505Y0109000D01*
X0130040Y0109000D01*
X0130807Y0109767D01*
X0123431Y0018604D02*
X0121896Y0017069D01*
X0121896Y0014000D01*
X0121896Y0016302D02*
X0124965Y0016302D01*
X0124965Y0017069D02*
X0124965Y0014000D01*
X0126500Y0016302D02*
X0129569Y0016302D01*
X0128035Y0017837D02*
X0128035Y0014767D01*
X0124965Y0017069D02*
X0123431Y0018604D01*
X0119569Y0016302D02*
X0116500Y0016302D01*
X0114965Y0016302D02*
X0111896Y0016302D01*
X0111896Y0017069D02*
X0111896Y0014000D01*
X0114965Y0014000D02*
X0114965Y0017069D01*
X0113431Y0018604D01*
X0111896Y0017069D01*
X0109569Y0016302D02*
X0106500Y0016302D01*
X0104965Y0018604D02*
X0101896Y0018604D01*
X0101896Y0014000D01*
X0104965Y0014000D01*
X0103431Y0016302D02*
X0101896Y0016302D01*
X0099569Y0016302D02*
X0096500Y0016302D01*
X0098035Y0017837D02*
X0098035Y0014767D01*
X0094965Y0014000D02*
X0091896Y0014000D01*
X0091896Y0018604D01*
X0094965Y0018604D01*
X0093431Y0016302D02*
X0091896Y0016302D01*
X0093864Y0008604D02*
X0096166Y0008604D01*
X0096933Y0007837D01*
X0096933Y0006302D01*
X0096166Y0005535D01*
X0093864Y0005535D01*
X0095399Y0005535D02*
X0096933Y0004000D01*
X0098468Y0004000D02*
X0100003Y0004000D01*
X0099235Y0004000D02*
X0099235Y0007069D01*
X0098468Y0007069D01*
X0099235Y0008604D02*
X0099235Y0009371D01*
X0101537Y0006302D02*
X0102305Y0007069D01*
X0104606Y0007069D01*
X0104606Y0003233D01*
X0103839Y0002465D01*
X0103072Y0002465D01*
X0102305Y0004000D02*
X0104606Y0004000D01*
X0106141Y0004000D02*
X0106141Y0008604D01*
X0106908Y0007069D02*
X0108443Y0007069D01*
X0109210Y0006302D01*
X0109210Y0004000D01*
X0111512Y0004767D02*
X0112280Y0004000D01*
X0111512Y0004767D02*
X0111512Y0007837D01*
X0110745Y0007069D02*
X0112280Y0007069D01*
X0106908Y0007069D02*
X0106141Y0006302D01*
X0102305Y0004000D02*
X0101537Y0004767D01*
X0101537Y0006302D01*
X0093864Y0004000D02*
X0093864Y0008604D01*
X0118418Y0008604D02*
X0118418Y0004000D01*
X0118418Y0006302D02*
X0119953Y0006302D01*
X0123022Y0007069D02*
X0123022Y0004000D01*
X0123022Y0005535D02*
X0124557Y0007069D01*
X0125324Y0007069D01*
X0126859Y0006302D02*
X0126859Y0004767D01*
X0127626Y0004000D01*
X0129161Y0004000D01*
X0129928Y0004767D01*
X0129928Y0006302D01*
X0129161Y0007069D01*
X0127626Y0007069D01*
X0126859Y0006302D01*
X0131463Y0007069D02*
X0131463Y0004000D01*
X0134532Y0004000D02*
X0134532Y0006302D01*
X0133765Y0007069D01*
X0131463Y0007069D01*
X0136067Y0007069D02*
X0137601Y0007069D01*
X0136834Y0007837D02*
X0136834Y0004767D01*
X0137601Y0004000D01*
X0121488Y0008604D02*
X0118418Y0008604D01*
X0161896Y0014000D02*
X0164965Y0014000D01*
X0163431Y0016302D02*
X0161896Y0016302D01*
X0161896Y0018604D02*
X0161896Y0014000D01*
X0166500Y0016302D02*
X0169569Y0016302D01*
X0168035Y0017837D02*
X0168035Y0014767D01*
X0171896Y0014000D02*
X0174965Y0014000D01*
X0173431Y0016302D02*
X0171896Y0016302D01*
X0171896Y0018604D02*
X0171896Y0014000D01*
X0176500Y0016302D02*
X0179569Y0016302D01*
X0181896Y0016302D02*
X0184965Y0016302D01*
X0184965Y0017069D02*
X0184965Y0014000D01*
X0186500Y0016302D02*
X0189569Y0016302D01*
X0191896Y0016302D02*
X0194965Y0016302D01*
X0194965Y0017069D02*
X0194965Y0014000D01*
X0196500Y0016302D02*
X0199569Y0016302D01*
X0198035Y0017837D02*
X0198035Y0014767D01*
X0191896Y0014000D02*
X0191896Y0017069D01*
X0193431Y0018604D01*
X0194965Y0017069D01*
X0184965Y0017069D02*
X0183431Y0018604D01*
X0181896Y0017069D01*
X0181896Y0014000D01*
X0178443Y0008604D02*
X0177676Y0007837D01*
X0177676Y0004000D01*
X0176908Y0006302D02*
X0178443Y0006302D01*
X0179978Y0007069D02*
X0181512Y0007069D01*
X0180745Y0007837D02*
X0180745Y0004767D01*
X0181512Y0004000D01*
X0175374Y0005535D02*
X0172305Y0005535D01*
X0172305Y0006302D02*
X0173072Y0007069D01*
X0174606Y0007069D01*
X0175374Y0006302D01*
X0175374Y0005535D01*
X0174606Y0004000D02*
X0173072Y0004000D01*
X0172305Y0004767D01*
X0172305Y0006302D01*
X0170770Y0004000D02*
X0167701Y0004000D01*
X0167701Y0008604D01*
X0164965Y0018604D02*
X0161896Y0018604D01*
X0171896Y0018604D02*
X0174965Y0018604D01*
X0187651Y0008604D02*
X0189953Y0008604D01*
X0190720Y0007837D01*
X0190720Y0006302D01*
X0189953Y0005535D01*
X0187651Y0005535D01*
X0189186Y0005535D02*
X0190720Y0004000D01*
X0192255Y0004767D02*
X0192255Y0006302D01*
X0193022Y0007069D01*
X0194557Y0007069D01*
X0195324Y0006302D01*
X0195324Y0005535D01*
X0192255Y0005535D01*
X0192255Y0004767D02*
X0193022Y0004000D01*
X0194557Y0004000D01*
X0196859Y0004767D02*
X0197626Y0005535D01*
X0199928Y0005535D01*
X0199928Y0006302D02*
X0199928Y0004000D01*
X0197626Y0004000D01*
X0196859Y0004767D01*
X0197626Y0007069D02*
X0199161Y0007069D01*
X0199928Y0006302D01*
X0201463Y0007069D02*
X0201463Y0004000D01*
X0201463Y0005535D02*
X0202997Y0007069D01*
X0203765Y0007069D01*
X0187651Y0008604D02*
X0187651Y0004000D01*
X0236896Y0014000D02*
X0239965Y0014000D01*
X0238431Y0016302D02*
X0236896Y0016302D01*
X0236896Y0018604D02*
X0236896Y0014000D01*
X0241500Y0016302D02*
X0244569Y0016302D01*
X0243035Y0017837D02*
X0243035Y0014767D01*
X0246896Y0014000D02*
X0246896Y0018604D01*
X0249965Y0018604D01*
X0248431Y0016302D02*
X0246896Y0016302D01*
X0246896Y0014000D02*
X0249965Y0014000D01*
X0251500Y0016302D02*
X0254569Y0016302D01*
X0256896Y0016302D02*
X0259965Y0016302D01*
X0259965Y0017069D02*
X0259965Y0014000D01*
X0261500Y0016302D02*
X0264569Y0016302D01*
X0266896Y0016302D02*
X0269965Y0016302D01*
X0269965Y0017069D02*
X0269965Y0014000D01*
X0271500Y0016302D02*
X0274569Y0016302D01*
X0273035Y0017837D02*
X0273035Y0014767D01*
X0269965Y0017069D02*
X0268431Y0018604D01*
X0266896Y0017069D01*
X0266896Y0014000D01*
X0269953Y0008604D02*
X0272255Y0008604D01*
X0273022Y0007837D01*
X0273022Y0006302D01*
X0272255Y0005535D01*
X0269953Y0005535D01*
X0271488Y0005535D02*
X0273022Y0004000D01*
X0274557Y0004767D02*
X0274557Y0006302D01*
X0275324Y0007069D01*
X0276859Y0007069D01*
X0277626Y0006302D01*
X0277626Y0005535D01*
X0274557Y0005535D01*
X0274557Y0004767D02*
X0275324Y0004000D01*
X0276859Y0004000D01*
X0279161Y0004767D02*
X0279928Y0005535D01*
X0282230Y0005535D01*
X0282230Y0006302D02*
X0282230Y0004000D01*
X0279928Y0004000D01*
X0279161Y0004767D01*
X0279928Y0007069D02*
X0281463Y0007069D01*
X0282230Y0006302D01*
X0283765Y0007069D02*
X0283765Y0004000D01*
X0283765Y0005535D02*
X0285299Y0007069D01*
X0286067Y0007069D01*
X0269953Y0008604D02*
X0269953Y0004000D01*
X0263814Y0004000D02*
X0263047Y0004767D01*
X0263047Y0007837D01*
X0262280Y0007069D02*
X0263814Y0007069D01*
X0260745Y0006302D02*
X0260745Y0004000D01*
X0260745Y0006302D02*
X0259978Y0007069D01*
X0258443Y0007069D01*
X0257676Y0006302D01*
X0256141Y0007069D02*
X0256141Y0003233D01*
X0255374Y0002465D01*
X0254606Y0002465D01*
X0253839Y0004000D02*
X0256141Y0004000D01*
X0257676Y0004000D02*
X0257676Y0008604D01*
X0256141Y0007069D02*
X0253839Y0007069D01*
X0253072Y0006302D01*
X0253072Y0004767D01*
X0253839Y0004000D01*
X0251537Y0004000D02*
X0250003Y0004000D01*
X0250770Y0004000D02*
X0250770Y0007069D01*
X0250003Y0007069D01*
X0250770Y0008604D02*
X0250770Y0009371D01*
X0248468Y0007837D02*
X0248468Y0006302D01*
X0247701Y0005535D01*
X0245399Y0005535D01*
X0246933Y0005535D02*
X0248468Y0004000D01*
X0245399Y0004000D02*
X0245399Y0008604D01*
X0247701Y0008604D01*
X0248468Y0007837D01*
X0256896Y0014000D02*
X0256896Y0017069D01*
X0258431Y0018604D01*
X0259965Y0017069D01*
X0239965Y0018604D02*
X0236896Y0018604D01*
X0060299Y0007069D02*
X0058765Y0007069D01*
X0059532Y0007837D02*
X0059532Y0004767D01*
X0060299Y0004000D01*
X0057230Y0004000D02*
X0057230Y0006302D01*
X0056463Y0007069D01*
X0054161Y0007069D01*
X0054161Y0004000D01*
X0052626Y0004767D02*
X0051859Y0004000D01*
X0050324Y0004000D01*
X0049557Y0004767D01*
X0049557Y0006302D01*
X0050324Y0007069D01*
X0051859Y0007069D01*
X0052626Y0006302D01*
X0052626Y0004767D01*
X0048022Y0007069D02*
X0047255Y0007069D01*
X0045720Y0005535D01*
X0045720Y0007069D02*
X0045720Y0004000D01*
X0042651Y0006302D02*
X0041116Y0006302D01*
X0041116Y0004000D02*
X0041116Y0008604D01*
X0044186Y0008604D01*
X0046896Y0014000D02*
X0046896Y0017069D01*
X0048431Y0018604D01*
X0049965Y0017069D01*
X0049965Y0014000D01*
X0049965Y0016302D02*
X0046896Y0016302D01*
X0044569Y0016302D02*
X0041500Y0016302D01*
X0039965Y0016302D02*
X0036896Y0016302D01*
X0036896Y0017069D02*
X0036896Y0014000D01*
X0039965Y0014000D02*
X0039965Y0017069D01*
X0038431Y0018604D01*
X0036896Y0017069D01*
X0034569Y0016302D02*
X0031500Y0016302D01*
X0029965Y0018604D02*
X0026896Y0018604D01*
X0026896Y0014000D01*
X0029965Y0014000D01*
X0028431Y0016302D02*
X0026896Y0016302D01*
X0024569Y0016302D02*
X0021500Y0016302D01*
X0023035Y0017837D02*
X0023035Y0014767D01*
X0019965Y0014000D02*
X0016896Y0014000D01*
X0016896Y0018604D01*
X0019965Y0018604D01*
X0018431Y0016302D02*
X0016896Y0016302D01*
X0021166Y0008604D02*
X0021166Y0004000D01*
X0024235Y0004000D01*
X0025770Y0004767D02*
X0026537Y0004000D01*
X0028072Y0004000D01*
X0028839Y0005535D02*
X0025770Y0005535D01*
X0025770Y0006302D02*
X0026537Y0007069D01*
X0028072Y0007069D01*
X0028839Y0006302D01*
X0028839Y0005535D01*
X0030374Y0006302D02*
X0031908Y0006302D01*
X0031141Y0007837D02*
X0031141Y0004000D01*
X0034210Y0004767D02*
X0034978Y0004000D01*
X0034210Y0004767D02*
X0034210Y0007837D01*
X0033443Y0007069D02*
X0034978Y0007069D01*
X0031908Y0008604D02*
X0031141Y0007837D01*
X0025770Y0006302D02*
X0025770Y0004767D01*
X0051500Y0016302D02*
X0054569Y0016302D01*
X0053035Y0017837D02*
X0053035Y0014767D01*
X0288696Y0143765D02*
X0292165Y0143765D01*
X0293900Y0145500D01*
X0292165Y0147235D01*
X0288696Y0147235D01*
X0288696Y0148922D02*
X0288696Y0151524D01*
X0289563Y0152391D01*
X0293033Y0152391D01*
X0293900Y0151524D01*
X0293900Y0148922D01*
X0288696Y0148922D01*
X0288696Y0154078D02*
X0288696Y0156680D01*
X0289563Y0157548D01*
X0293033Y0157548D01*
X0293900Y0156680D01*
X0293900Y0154078D01*
X0288696Y0154078D01*
X0298696Y0154946D02*
X0299563Y0154078D01*
X0303033Y0154078D01*
X0303900Y0154946D01*
X0303900Y0156680D01*
X0303033Y0157548D01*
X0299563Y0157548D02*
X0298696Y0156680D01*
X0298696Y0154946D01*
X0299563Y0152391D02*
X0298696Y0151524D01*
X0298696Y0149789D01*
X0299563Y0148922D01*
X0303033Y0148922D01*
X0303900Y0149789D01*
X0303900Y0151524D01*
X0303033Y0152391D01*
X0302165Y0147235D02*
X0298696Y0147235D01*
X0302165Y0147235D02*
X0303900Y0145500D01*
X0302165Y0143765D01*
X0298696Y0143765D01*
X0308696Y0143765D02*
X0308696Y0146368D01*
X0309563Y0147235D01*
X0313033Y0147235D01*
X0313900Y0146368D01*
X0313900Y0143765D01*
X0308696Y0143765D01*
X0310430Y0148922D02*
X0308696Y0150657D01*
X0310430Y0152391D01*
X0313900Y0152391D01*
X0311298Y0152391D02*
X0311298Y0148922D01*
X0310430Y0148922D02*
X0313900Y0148922D01*
X0318696Y0148922D02*
X0323900Y0148922D01*
X0323900Y0152391D01*
X0323900Y0154078D02*
X0318696Y0154078D01*
X0321298Y0154946D02*
X0323900Y0157548D01*
X0322165Y0154078D02*
X0318696Y0157548D01*
X0313900Y0155813D02*
X0308696Y0155813D01*
X0308696Y0154078D02*
X0308696Y0157548D01*
X0319563Y0147235D02*
X0318696Y0146368D01*
X0318696Y0144633D01*
X0319563Y0143765D01*
X0323033Y0143765D01*
X0323900Y0144633D01*
X0323900Y0146368D01*
X0323033Y0147235D01*
X0328696Y0146368D02*
X0328696Y0144633D01*
X0329563Y0143765D01*
X0333033Y0143765D01*
X0333900Y0144633D01*
X0333900Y0146368D01*
X0333033Y0147235D01*
X0331298Y0147235D01*
X0331298Y0145500D01*
X0329563Y0147235D02*
X0328696Y0146368D01*
X0328696Y0148922D02*
X0333900Y0152391D01*
X0328696Y0152391D01*
X0328696Y0154078D02*
X0328696Y0156680D01*
X0329563Y0157548D01*
X0333033Y0157548D01*
X0333900Y0156680D01*
X0333900Y0154078D01*
X0328696Y0154078D01*
X0328696Y0148922D02*
X0333900Y0148922D01*
D12*
X0240977Y0096501D02*
X0240977Y0096017D01*
X0239042Y0096017D01*
X0239042Y0095534D02*
X0239042Y0096501D01*
X0239525Y0096985D01*
X0240493Y0096985D01*
X0240977Y0096501D01*
X0240493Y0095050D02*
X0239525Y0095050D01*
X0239042Y0095534D01*
X0238045Y0095050D02*
X0237077Y0095050D01*
X0237561Y0095050D02*
X0237561Y0097952D01*
X0237077Y0097952D01*
X0236066Y0096501D02*
X0236066Y0095050D01*
X0234614Y0095050D01*
X0234131Y0095534D01*
X0234614Y0096017D01*
X0236066Y0096017D01*
X0236066Y0096501D02*
X0235582Y0096985D01*
X0234614Y0096985D01*
X0233119Y0096985D02*
X0231668Y0096985D01*
X0231184Y0096501D01*
X0231184Y0095534D01*
X0231668Y0095050D01*
X0233119Y0095050D01*
X0230173Y0095534D02*
X0229689Y0096017D01*
X0228721Y0096017D01*
X0228238Y0096501D01*
X0228721Y0096985D01*
X0230173Y0096985D01*
X0230173Y0095534D02*
X0229689Y0095050D01*
X0228238Y0095050D01*
X0227226Y0096501D02*
X0225291Y0096501D01*
X0224280Y0096501D02*
X0224280Y0096017D01*
X0222345Y0096017D01*
X0222345Y0095534D02*
X0222345Y0096501D01*
X0222828Y0096985D01*
X0223796Y0096985D01*
X0224280Y0096501D01*
X0223796Y0095050D02*
X0222828Y0095050D01*
X0222345Y0095534D01*
X0221333Y0095050D02*
X0219882Y0095050D01*
X0219398Y0095534D01*
X0219398Y0096501D01*
X0219882Y0096985D01*
X0221333Y0096985D01*
X0221102Y0099850D02*
X0220135Y0099850D01*
X0220619Y0099850D02*
X0220619Y0102752D01*
X0220135Y0102752D01*
X0219123Y0101301D02*
X0219123Y0099850D01*
X0217672Y0099850D01*
X0217188Y0100334D01*
X0217672Y0100817D01*
X0219123Y0100817D01*
X0219123Y0101301D02*
X0218640Y0101785D01*
X0217672Y0101785D01*
X0216177Y0101785D02*
X0214725Y0101785D01*
X0214242Y0101301D01*
X0214242Y0100334D01*
X0214725Y0099850D01*
X0216177Y0099850D01*
X0215447Y0096985D02*
X0214964Y0096985D01*
X0213996Y0096017D01*
X0213996Y0095050D02*
X0213996Y0096985D01*
X0212985Y0096501D02*
X0211050Y0096501D01*
X0210038Y0096501D02*
X0210038Y0095050D01*
X0210038Y0096501D02*
X0209554Y0096985D01*
X0208103Y0096985D01*
X0208103Y0095050D01*
X0207092Y0096017D02*
X0205157Y0096017D01*
X0205157Y0095534D02*
X0205157Y0096501D01*
X0205640Y0096985D01*
X0206608Y0096985D01*
X0207092Y0096501D01*
X0207092Y0096017D01*
X0206608Y0095050D02*
X0205640Y0095050D01*
X0205157Y0095534D01*
X0204145Y0095534D02*
X0203661Y0095050D01*
X0202210Y0095050D01*
X0202210Y0094083D02*
X0202210Y0096985D01*
X0203661Y0096985D01*
X0204145Y0096501D01*
X0204145Y0095534D01*
X0201199Y0095534D02*
X0201199Y0096501D01*
X0200715Y0096985D01*
X0199747Y0096985D01*
X0199264Y0096501D01*
X0199264Y0095534D01*
X0199747Y0095050D01*
X0200715Y0095050D01*
X0201199Y0095534D01*
X0198252Y0097952D02*
X0196317Y0095050D01*
X0195306Y0095050D02*
X0193854Y0095050D01*
X0193371Y0095534D01*
X0193371Y0096501D01*
X0193854Y0096985D01*
X0195306Y0096985D01*
X0195306Y0094566D01*
X0194822Y0094083D01*
X0194338Y0094083D01*
X0192359Y0095050D02*
X0192359Y0096501D01*
X0191875Y0096985D01*
X0190424Y0096985D01*
X0190424Y0095050D01*
X0189427Y0095050D02*
X0188460Y0095050D01*
X0188943Y0095050D02*
X0188943Y0096985D01*
X0188460Y0096985D01*
X0187448Y0096985D02*
X0185997Y0096985D01*
X0185513Y0096501D01*
X0185513Y0095534D01*
X0185997Y0095050D01*
X0187448Y0095050D01*
X0184502Y0095050D02*
X0184502Y0096501D01*
X0184018Y0096985D01*
X0183050Y0096985D01*
X0183050Y0096017D02*
X0184502Y0096017D01*
X0184502Y0095050D02*
X0183050Y0095050D01*
X0182567Y0095534D01*
X0183050Y0096017D01*
X0181562Y0096985D02*
X0181079Y0096985D01*
X0180111Y0096017D01*
X0180111Y0095050D02*
X0180111Y0096985D01*
X0179100Y0096985D02*
X0177648Y0096985D01*
X0177165Y0096501D01*
X0177648Y0096017D01*
X0178616Y0096017D01*
X0179100Y0095534D01*
X0178616Y0095050D01*
X0177165Y0095050D01*
X0176153Y0095050D02*
X0176153Y0096501D01*
X0175669Y0096985D01*
X0174218Y0096985D01*
X0174218Y0095050D01*
X0173221Y0095050D02*
X0172254Y0095050D01*
X0172738Y0095050D02*
X0172738Y0096985D01*
X0172254Y0096985D01*
X0171250Y0096985D02*
X0169798Y0096017D01*
X0171250Y0095050D01*
X0169798Y0095050D02*
X0169798Y0097952D01*
X0168787Y0096501D02*
X0168787Y0095050D01*
X0168787Y0096501D02*
X0168303Y0096985D01*
X0166852Y0096985D01*
X0166852Y0095050D01*
X0165840Y0096017D02*
X0163905Y0096017D01*
X0163905Y0095534D02*
X0163905Y0096501D01*
X0164389Y0096985D01*
X0165357Y0096985D01*
X0165840Y0096501D01*
X0165840Y0096017D01*
X0165357Y0095050D02*
X0164389Y0095050D01*
X0163905Y0095534D01*
X0162909Y0094566D02*
X0162909Y0096985D01*
X0162909Y0097952D02*
X0162909Y0098436D01*
X0163147Y0099850D02*
X0163630Y0100334D01*
X0163630Y0101301D01*
X0163147Y0101785D01*
X0162179Y0101785D01*
X0161696Y0101301D01*
X0161696Y0100334D01*
X0162179Y0099850D01*
X0163147Y0099850D01*
X0164642Y0100334D02*
X0165126Y0099850D01*
X0166577Y0099850D01*
X0166577Y0099366D02*
X0166577Y0101785D01*
X0165126Y0101785D01*
X0164642Y0101301D01*
X0164642Y0100334D01*
X0165610Y0098883D02*
X0166093Y0098883D01*
X0166577Y0099366D01*
X0167589Y0099850D02*
X0169524Y0099850D01*
X0170535Y0100334D02*
X0171019Y0099850D01*
X0172470Y0099850D01*
X0172470Y0101301D01*
X0171986Y0101785D01*
X0171019Y0101785D01*
X0171019Y0100817D02*
X0172470Y0100817D01*
X0173482Y0099850D02*
X0174933Y0099850D01*
X0175417Y0100334D01*
X0175417Y0101301D01*
X0174933Y0101785D01*
X0173482Y0101785D01*
X0173482Y0102752D02*
X0173482Y0099850D01*
X0172738Y0098436D02*
X0172738Y0097952D01*
X0170535Y0100334D02*
X0171019Y0100817D01*
X0167589Y0099850D02*
X0167589Y0102752D01*
X0167589Y0104650D02*
X0168556Y0104650D01*
X0168072Y0104650D02*
X0168072Y0106585D01*
X0167589Y0106585D01*
X0168072Y0107552D02*
X0168072Y0108036D01*
X0169553Y0107552D02*
X0169553Y0104650D01*
X0169553Y0106101D02*
X0171488Y0106101D01*
X0172499Y0105134D02*
X0172983Y0105617D01*
X0174434Y0105617D01*
X0174434Y0106101D02*
X0174434Y0104650D01*
X0172983Y0104650D01*
X0172499Y0105134D01*
X0171488Y0104650D02*
X0171488Y0107552D01*
X0172983Y0106585D02*
X0173951Y0106585D01*
X0174434Y0106101D01*
X0175446Y0106585D02*
X0176413Y0106585D01*
X0175930Y0107069D02*
X0175930Y0105134D01*
X0176413Y0104650D01*
X0180357Y0106585D02*
X0181324Y0104650D01*
X0182292Y0106585D01*
X0183303Y0107069D02*
X0183787Y0107552D01*
X0184755Y0107552D01*
X0185238Y0107069D01*
X0183303Y0105134D01*
X0183787Y0104650D01*
X0184755Y0104650D01*
X0185238Y0105134D01*
X0185238Y0107069D01*
X0183303Y0107069D02*
X0183303Y0105134D01*
X0186250Y0105134D02*
X0186734Y0105134D01*
X0186734Y0104650D01*
X0186250Y0104650D01*
X0186250Y0105134D01*
X0187723Y0105134D02*
X0189658Y0107069D01*
X0189658Y0105134D01*
X0189174Y0104650D01*
X0188207Y0104650D01*
X0187723Y0105134D01*
X0187723Y0107069D01*
X0188207Y0107552D01*
X0189174Y0107552D01*
X0189658Y0107069D01*
X0190670Y0107069D02*
X0191153Y0107552D01*
X0192121Y0107552D01*
X0192605Y0107069D01*
X0192605Y0106585D01*
X0190670Y0104650D01*
X0192605Y0104650D01*
X0192612Y0101785D02*
X0191161Y0101785D01*
X0191161Y0099850D01*
X0190149Y0100817D02*
X0188214Y0100817D01*
X0188214Y0100334D02*
X0188214Y0101301D01*
X0188698Y0101785D01*
X0189665Y0101785D01*
X0190149Y0101301D01*
X0190149Y0100817D01*
X0189665Y0099850D02*
X0188698Y0099850D01*
X0188214Y0100334D01*
X0187203Y0100334D02*
X0186719Y0099850D01*
X0185268Y0099850D01*
X0185268Y0098883D02*
X0185268Y0101785D01*
X0186719Y0101785D01*
X0187203Y0101301D01*
X0187203Y0100334D01*
X0188943Y0098436D02*
X0188943Y0097952D01*
X0193096Y0099850D02*
X0193096Y0101301D01*
X0192612Y0101785D01*
X0194107Y0101301D02*
X0196042Y0101301D01*
X0197054Y0100817D02*
X0198021Y0101785D01*
X0198505Y0101785D01*
X0197054Y0101785D02*
X0197054Y0099850D01*
X0199509Y0100334D02*
X0199993Y0100817D01*
X0201444Y0100817D01*
X0201444Y0101301D02*
X0201444Y0099850D01*
X0199993Y0099850D01*
X0199509Y0100334D01*
X0199993Y0101785D02*
X0200960Y0101785D01*
X0201444Y0101301D01*
X0202456Y0101301D02*
X0202456Y0100334D01*
X0202939Y0099850D01*
X0204391Y0099850D01*
X0205402Y0100334D02*
X0205402Y0101301D01*
X0205886Y0101785D01*
X0206853Y0101785D01*
X0207337Y0101301D01*
X0207337Y0100817D01*
X0205402Y0100817D01*
X0205402Y0100334D02*
X0205886Y0099850D01*
X0206853Y0099850D01*
X0208349Y0101301D02*
X0210284Y0101301D01*
X0211295Y0101301D02*
X0211779Y0101785D01*
X0213230Y0101785D01*
X0212746Y0100817D02*
X0211779Y0100817D01*
X0211295Y0101301D01*
X0211295Y0099850D02*
X0212746Y0099850D01*
X0213230Y0100334D01*
X0212746Y0100817D01*
X0216935Y0096985D02*
X0217903Y0096985D01*
X0218387Y0096501D01*
X0218387Y0095050D01*
X0216935Y0095050D01*
X0216452Y0095534D01*
X0216935Y0096017D01*
X0218387Y0096017D01*
X0222583Y0099850D02*
X0222099Y0100334D01*
X0222099Y0101301D01*
X0222583Y0101785D01*
X0223550Y0101785D01*
X0224034Y0101301D01*
X0224034Y0100817D01*
X0222099Y0100817D01*
X0222583Y0099850D02*
X0223550Y0099850D01*
X0204391Y0101785D02*
X0202939Y0101785D01*
X0202456Y0101301D01*
X0184256Y0101301D02*
X0183772Y0101785D01*
X0182805Y0101785D01*
X0182321Y0101301D01*
X0182321Y0100334D01*
X0182805Y0099850D01*
X0183772Y0099850D01*
X0184256Y0100334D01*
X0184256Y0101301D01*
X0181310Y0102752D02*
X0179375Y0099850D01*
X0178363Y0100334D02*
X0177879Y0100817D01*
X0176912Y0100817D01*
X0176428Y0101301D01*
X0176912Y0101785D01*
X0178363Y0101785D01*
X0178363Y0100334D02*
X0177879Y0099850D01*
X0176428Y0099850D01*
X0166577Y0106101D02*
X0166093Y0105617D01*
X0164642Y0105617D01*
X0164642Y0104650D02*
X0164642Y0107552D01*
X0166093Y0107552D01*
X0166577Y0107069D01*
X0166577Y0106101D01*
X0160684Y0106585D02*
X0159233Y0106585D01*
X0158749Y0106101D01*
X0159233Y0105617D01*
X0160200Y0105617D01*
X0160684Y0105134D01*
X0160200Y0104650D01*
X0158749Y0104650D01*
X0157737Y0105134D02*
X0157737Y0106101D01*
X0157254Y0106585D01*
X0155803Y0106585D01*
X0155803Y0107552D02*
X0155803Y0104650D01*
X0157254Y0104650D01*
X0157737Y0105134D01*
X0157737Y0102752D02*
X0157737Y0099850D01*
X0156286Y0099850D01*
X0155802Y0100334D01*
X0155802Y0101301D01*
X0156286Y0101785D01*
X0157737Y0101785D01*
X0158749Y0101301D02*
X0159233Y0101785D01*
X0160684Y0101785D01*
X0160684Y0102752D02*
X0160684Y0099850D01*
X0159233Y0099850D01*
X0158749Y0100334D01*
X0158749Y0101301D01*
X0154791Y0101301D02*
X0154791Y0099850D01*
X0153340Y0099850D01*
X0152856Y0100334D01*
X0153340Y0100817D01*
X0154791Y0100817D01*
X0154791Y0101301D02*
X0154307Y0101785D01*
X0153340Y0101785D01*
X0151844Y0101301D02*
X0151361Y0101785D01*
X0150393Y0101785D01*
X0149909Y0101301D01*
X0149909Y0100334D01*
X0150393Y0099850D01*
X0151361Y0099850D01*
X0151844Y0100334D01*
X0151844Y0101301D01*
X0148898Y0101301D02*
X0148898Y0102269D01*
X0148414Y0102752D01*
X0146963Y0102752D01*
X0146963Y0099850D01*
X0146963Y0100817D02*
X0148414Y0100817D01*
X0148898Y0101301D01*
X0147930Y0100817D02*
X0148898Y0099850D01*
X0147186Y0096985D02*
X0145735Y0096985D01*
X0145735Y0097952D02*
X0145735Y0095050D01*
X0147186Y0095050D01*
X0147670Y0095534D01*
X0147670Y0096501D01*
X0147186Y0096985D01*
X0148682Y0095534D02*
X0149165Y0095534D01*
X0149165Y0095050D01*
X0148682Y0095050D01*
X0148682Y0095534D01*
X0150155Y0095534D02*
X0150639Y0095050D01*
X0152090Y0095050D01*
X0153102Y0095534D02*
X0153585Y0095050D01*
X0154553Y0095050D01*
X0155036Y0095534D01*
X0155036Y0096501D01*
X0154553Y0096985D01*
X0153585Y0096985D01*
X0153102Y0096501D01*
X0153102Y0095534D01*
X0152090Y0096985D02*
X0150639Y0096985D01*
X0150155Y0096501D01*
X0150155Y0095534D01*
X0144724Y0095050D02*
X0144724Y0096985D01*
X0144724Y0095050D02*
X0143272Y0095050D01*
X0142789Y0095534D01*
X0142789Y0096985D01*
X0141777Y0096501D02*
X0141777Y0095050D01*
X0141777Y0096501D02*
X0141293Y0096985D01*
X0140326Y0096985D01*
X0139842Y0096501D01*
X0138845Y0096985D02*
X0137878Y0096985D01*
X0138362Y0097469D02*
X0138362Y0095534D01*
X0138845Y0095050D01*
X0139842Y0095050D02*
X0139842Y0097952D01*
X0139575Y0099850D02*
X0140058Y0100334D01*
X0140058Y0101301D01*
X0139575Y0101785D01*
X0138607Y0101785D01*
X0138123Y0101301D01*
X0138123Y0100334D01*
X0138607Y0099850D01*
X0139575Y0099850D01*
X0141070Y0099850D02*
X0141070Y0101785D01*
X0141554Y0101785D01*
X0142037Y0101301D01*
X0142521Y0101785D01*
X0143005Y0101301D01*
X0143005Y0099850D01*
X0142037Y0099850D02*
X0142037Y0101301D01*
X0144016Y0099850D02*
X0145951Y0102752D01*
X0145468Y0104650D02*
X0145951Y0105134D01*
X0145951Y0106101D01*
X0145468Y0106585D01*
X0144500Y0106585D01*
X0144016Y0106101D01*
X0144016Y0105134D01*
X0144500Y0104650D01*
X0145468Y0104650D01*
X0146963Y0105134D02*
X0147447Y0104650D01*
X0148898Y0104650D01*
X0148898Y0104166D02*
X0148898Y0106585D01*
X0147447Y0106585D01*
X0146963Y0106101D01*
X0146963Y0105134D01*
X0147930Y0103683D02*
X0148414Y0103683D01*
X0148898Y0104166D01*
X0149909Y0104650D02*
X0151844Y0104650D01*
X0152856Y0105134D02*
X0153340Y0105617D01*
X0154791Y0105617D01*
X0154791Y0106101D02*
X0154791Y0104650D01*
X0153340Y0104650D01*
X0152856Y0105134D01*
X0153340Y0106585D02*
X0154307Y0106585D01*
X0154791Y0106101D01*
X0149909Y0107552D02*
X0149909Y0104650D01*
X0143005Y0104650D02*
X0141554Y0104650D01*
X0141070Y0105134D01*
X0141070Y0106101D01*
X0141554Y0106585D01*
X0143005Y0106585D01*
X0143005Y0107552D02*
X0143005Y0104650D01*
X0140058Y0104650D02*
X0140058Y0107552D01*
X0140058Y0106585D02*
X0138607Y0106585D01*
X0138123Y0106101D01*
X0138123Y0105134D01*
X0138607Y0104650D01*
X0140058Y0104650D01*
X0137112Y0104650D02*
X0135661Y0104650D01*
X0135177Y0105134D01*
X0135661Y0105617D01*
X0137112Y0105617D01*
X0137112Y0106101D02*
X0137112Y0104650D01*
X0137112Y0106101D02*
X0136628Y0106585D01*
X0135661Y0106585D01*
X0134165Y0106101D02*
X0133682Y0106585D01*
X0132714Y0106585D01*
X0132230Y0106101D01*
X0132230Y0105134D01*
X0132714Y0104650D01*
X0133682Y0104650D01*
X0134165Y0105134D01*
X0134165Y0106101D01*
X0131219Y0106101D02*
X0131219Y0107069D01*
X0130735Y0107552D01*
X0129284Y0107552D01*
X0129284Y0104650D01*
X0129284Y0105617D02*
X0130735Y0105617D01*
X0131219Y0106101D01*
X0130251Y0105617D02*
X0131219Y0104650D01*
X0130757Y0102752D02*
X0130757Y0099850D01*
X0132208Y0099850D01*
X0132692Y0100334D01*
X0132692Y0101301D01*
X0132208Y0101785D01*
X0130757Y0101785D01*
X0129746Y0101785D02*
X0129746Y0099850D01*
X0128294Y0099850D01*
X0127811Y0100334D01*
X0127811Y0101785D01*
X0126799Y0101301D02*
X0126799Y0099850D01*
X0126799Y0101301D02*
X0126315Y0101785D01*
X0125348Y0101785D01*
X0124864Y0101301D01*
X0123867Y0101785D02*
X0122900Y0101785D01*
X0123383Y0102269D02*
X0123383Y0100334D01*
X0123867Y0099850D01*
X0124864Y0099850D02*
X0124864Y0102752D01*
X0121419Y0102752D02*
X0121419Y0103236D01*
X0121419Y0101785D02*
X0121419Y0099850D01*
X0120935Y0099850D02*
X0121903Y0099850D01*
X0119924Y0099850D02*
X0118473Y0099850D01*
X0117989Y0100334D01*
X0117989Y0101301D01*
X0118473Y0101785D01*
X0119924Y0101785D01*
X0119924Y0099366D01*
X0119440Y0098883D01*
X0118956Y0098883D01*
X0118227Y0097469D02*
X0118227Y0095534D01*
X0118711Y0095050D01*
X0119708Y0095050D02*
X0121159Y0095050D01*
X0121643Y0095534D01*
X0121643Y0096501D01*
X0121159Y0096985D01*
X0119708Y0096985D01*
X0119708Y0094083D01*
X0118711Y0096985D02*
X0117743Y0096985D01*
X0116746Y0096985D02*
X0115779Y0096985D01*
X0116263Y0097469D02*
X0116263Y0095534D01*
X0116746Y0095050D01*
X0114767Y0095050D02*
X0114767Y0096501D01*
X0114284Y0096985D01*
X0113316Y0096985D01*
X0112832Y0096501D01*
X0112832Y0097952D02*
X0112832Y0095050D01*
X0108874Y0095050D02*
X0108874Y0096501D01*
X0108391Y0096985D01*
X0107907Y0096501D01*
X0107907Y0095050D01*
X0106939Y0095050D02*
X0106939Y0096985D01*
X0107423Y0096985D01*
X0107907Y0096501D01*
X0105928Y0096501D02*
X0105928Y0095534D01*
X0105444Y0095050D01*
X0104477Y0095050D01*
X0103993Y0095534D01*
X0103993Y0096501D01*
X0104477Y0096985D01*
X0105444Y0096985D01*
X0105928Y0096501D01*
X0104730Y0098883D02*
X0104730Y0101785D01*
X0106181Y0101785D01*
X0106664Y0101301D01*
X0106664Y0100334D01*
X0106181Y0099850D01*
X0104730Y0099850D01*
X0103733Y0099850D02*
X0103249Y0100334D01*
X0103249Y0102269D01*
X0102765Y0101785D02*
X0103733Y0101785D01*
X0101768Y0101785D02*
X0100801Y0101785D01*
X0101285Y0102269D02*
X0101285Y0100334D01*
X0101768Y0099850D01*
X0099789Y0099850D02*
X0099789Y0101301D01*
X0099306Y0101785D01*
X0098338Y0101785D01*
X0097854Y0101301D01*
X0097854Y0102752D02*
X0097854Y0099850D01*
X0095615Y0097952D02*
X0095615Y0095050D01*
X0094164Y0095050D01*
X0093680Y0095534D01*
X0093680Y0096501D01*
X0094164Y0096985D01*
X0095615Y0096985D01*
X0092669Y0096501D02*
X0092669Y0096017D01*
X0090734Y0096017D01*
X0090734Y0095534D02*
X0090734Y0096501D01*
X0091217Y0096985D01*
X0092185Y0096985D01*
X0092669Y0096501D01*
X0092185Y0095050D02*
X0091217Y0095050D01*
X0090734Y0095534D01*
X0089729Y0095050D02*
X0088278Y0096017D01*
X0089729Y0096985D01*
X0088278Y0097952D02*
X0088278Y0095050D01*
X0087274Y0096985D02*
X0086790Y0096985D01*
X0085823Y0096017D01*
X0085823Y0095050D02*
X0085823Y0096985D01*
X0084811Y0096501D02*
X0084811Y0095534D01*
X0084327Y0095050D01*
X0083360Y0095050D01*
X0082876Y0095534D01*
X0082876Y0096501D01*
X0083360Y0096985D01*
X0084327Y0096985D01*
X0084811Y0096501D01*
X0081879Y0096501D02*
X0080912Y0096501D01*
X0081396Y0097469D02*
X0081879Y0097952D01*
X0081396Y0097469D02*
X0081396Y0095050D01*
X0099573Y0096501D02*
X0100541Y0096501D01*
X0100057Y0097469D02*
X0100541Y0097952D01*
X0100057Y0097469D02*
X0100057Y0095050D01*
X0101537Y0095050D02*
X0101537Y0096985D01*
X0101537Y0096017D02*
X0102505Y0096985D01*
X0102989Y0096985D01*
X0107676Y0099850D02*
X0109127Y0099850D01*
X0109611Y0100334D01*
X0109127Y0100817D01*
X0108160Y0100817D01*
X0107676Y0101301D01*
X0108160Y0101785D01*
X0109611Y0101785D01*
X0110623Y0101785D02*
X0110623Y0101301D01*
X0111106Y0101301D01*
X0111106Y0101785D01*
X0110623Y0101785D01*
X0110623Y0100334D02*
X0110623Y0099850D01*
X0111106Y0099850D01*
X0111106Y0100334D01*
X0110623Y0100334D01*
X0112096Y0099850D02*
X0114031Y0102752D01*
X0116977Y0102752D02*
X0115042Y0099850D01*
X0120935Y0101785D02*
X0121419Y0101785D01*
X0123138Y0096985D02*
X0124589Y0096985D01*
X0125601Y0096985D02*
X0125601Y0096501D01*
X0126084Y0096501D01*
X0126084Y0096985D01*
X0125601Y0096985D01*
X0125601Y0095534D02*
X0125601Y0095050D01*
X0126084Y0095050D01*
X0126084Y0095534D01*
X0125601Y0095534D01*
X0124589Y0095534D02*
X0124105Y0096017D01*
X0123138Y0096017D01*
X0122654Y0096501D01*
X0123138Y0096985D01*
X0122654Y0095050D02*
X0124105Y0095050D01*
X0124589Y0095534D01*
X0127074Y0095050D02*
X0129009Y0097952D01*
X0131955Y0097952D02*
X0130020Y0095050D01*
X0132967Y0095534D02*
X0132967Y0096501D01*
X0133451Y0096985D01*
X0134902Y0096985D01*
X0134902Y0094566D01*
X0134418Y0094083D01*
X0133934Y0094083D01*
X0133451Y0095050D02*
X0134902Y0095050D01*
X0135913Y0095050D02*
X0136881Y0095050D01*
X0136397Y0095050D02*
X0136397Y0096985D01*
X0135913Y0096985D01*
X0136397Y0097952D02*
X0136397Y0098436D01*
X0137112Y0099850D02*
X0135661Y0099850D01*
X0135177Y0100334D01*
X0135177Y0101301D01*
X0135661Y0101785D01*
X0137112Y0101785D01*
X0134187Y0100334D02*
X0134187Y0099850D01*
X0133704Y0099850D01*
X0133704Y0100334D01*
X0134187Y0100334D01*
X0132967Y0095534D02*
X0133451Y0095050D01*
X0156048Y0095050D02*
X0156048Y0096985D01*
X0156532Y0096985D01*
X0157016Y0096501D01*
X0157499Y0096985D01*
X0157983Y0096501D01*
X0157983Y0095050D01*
X0157016Y0095050D02*
X0157016Y0096501D01*
X0158995Y0095050D02*
X0160930Y0097952D01*
X0162909Y0094566D02*
X0162425Y0094083D01*
X0161941Y0094083D01*
X0146985Y0018153D02*
X0145133Y0018153D01*
X0145133Y0014450D01*
X0146985Y0014450D01*
X0147602Y0015067D01*
X0147602Y0017536D01*
X0146985Y0018153D01*
X0141450Y0018153D02*
X0141450Y0014450D01*
X0143919Y0014450D01*
X0140236Y0014450D02*
X0140236Y0018153D01*
X0140236Y0016302D02*
X0137767Y0016302D01*
X0136552Y0015684D02*
X0136552Y0015067D01*
X0135935Y0014450D01*
X0134701Y0014450D01*
X0134084Y0015067D01*
X0134701Y0016302D02*
X0135935Y0016302D01*
X0136552Y0015684D01*
X0137767Y0014450D02*
X0137767Y0018153D01*
X0136552Y0017536D02*
X0135935Y0018153D01*
X0134701Y0018153D01*
X0134084Y0017536D01*
X0134084Y0016919D01*
X0134701Y0016302D01*
X0072602Y0015067D02*
X0072602Y0017536D01*
X0071985Y0018153D01*
X0070133Y0018153D01*
X0070133Y0014450D01*
X0071985Y0014450D01*
X0072602Y0015067D01*
X0068919Y0014450D02*
X0066450Y0014450D01*
X0066450Y0018153D01*
X0065236Y0018153D02*
X0065236Y0014450D01*
X0065236Y0016302D02*
X0062767Y0016302D01*
X0061552Y0015684D02*
X0061552Y0015067D01*
X0060935Y0014450D01*
X0059701Y0014450D01*
X0059084Y0015067D01*
X0059701Y0016302D02*
X0060935Y0016302D01*
X0061552Y0015684D01*
X0062767Y0014450D02*
X0062767Y0018153D01*
X0061552Y0017536D02*
X0060935Y0018153D01*
X0059701Y0018153D01*
X0059084Y0017536D01*
X0059084Y0016919D01*
X0059701Y0016302D01*
X0204084Y0016919D02*
X0204701Y0016302D01*
X0205935Y0016302D01*
X0206552Y0015684D01*
X0206552Y0015067D01*
X0205935Y0014450D01*
X0204701Y0014450D01*
X0204084Y0015067D01*
X0204084Y0016919D02*
X0204084Y0017536D01*
X0204701Y0018153D01*
X0205935Y0018153D01*
X0206552Y0017536D01*
X0207767Y0018153D02*
X0207767Y0014450D01*
X0207767Y0016302D02*
X0210236Y0016302D01*
X0210236Y0018153D02*
X0210236Y0014450D01*
X0211450Y0014450D02*
X0213919Y0014450D01*
X0215133Y0014450D02*
X0216985Y0014450D01*
X0217602Y0015067D01*
X0217602Y0017536D01*
X0216985Y0018153D01*
X0215133Y0018153D01*
X0215133Y0014450D01*
X0211450Y0014450D02*
X0211450Y0018153D01*
X0279084Y0017536D02*
X0279084Y0016919D01*
X0279701Y0016302D01*
X0280935Y0016302D01*
X0281552Y0015684D01*
X0281552Y0015067D01*
X0280935Y0014450D01*
X0279701Y0014450D01*
X0279084Y0015067D01*
X0279084Y0017536D02*
X0279701Y0018153D01*
X0280935Y0018153D01*
X0281552Y0017536D01*
X0282767Y0018153D02*
X0282767Y0014450D01*
X0282767Y0016302D02*
X0285236Y0016302D01*
X0285236Y0018153D02*
X0285236Y0014450D01*
X0286450Y0014450D02*
X0288919Y0014450D01*
X0290133Y0014450D02*
X0291985Y0014450D01*
X0292602Y0015067D01*
X0292602Y0017536D01*
X0291985Y0018153D01*
X0290133Y0018153D01*
X0290133Y0014450D01*
X0286450Y0014450D02*
X0286450Y0018153D01*
D13*
X0242237Y0032367D02*
X0241921Y0032050D01*
X0241287Y0032050D01*
X0240970Y0032367D01*
X0241604Y0033001D02*
X0241921Y0033001D01*
X0242237Y0032684D01*
X0242237Y0032367D01*
X0241921Y0033001D02*
X0242237Y0033318D01*
X0242237Y0033635D01*
X0241921Y0033952D01*
X0241287Y0033952D01*
X0240970Y0033635D01*
X0239394Y0033952D02*
X0239394Y0032050D01*
X0238760Y0032050D02*
X0240028Y0032050D01*
X0238760Y0033318D02*
X0239394Y0033952D01*
X0237818Y0033952D02*
X0237184Y0033952D01*
X0237501Y0033952D02*
X0237501Y0032367D01*
X0237184Y0032050D01*
X0236867Y0032050D01*
X0236550Y0032367D01*
X0200028Y0062367D02*
X0199711Y0062050D01*
X0199077Y0062050D01*
X0198760Y0062367D01*
X0198760Y0062684D01*
X0199077Y0063001D01*
X0199711Y0063001D01*
X0200028Y0062684D01*
X0200028Y0062367D01*
X0199711Y0063001D02*
X0200028Y0063318D01*
X0200028Y0063635D01*
X0199711Y0063952D01*
X0199077Y0063952D01*
X0198760Y0063635D01*
X0198760Y0063318D01*
X0199077Y0063001D01*
X0197818Y0063952D02*
X0197184Y0063952D01*
X0197501Y0063952D02*
X0197501Y0062367D01*
X0197184Y0062050D01*
X0196867Y0062050D01*
X0196550Y0062367D01*
X0167238Y0033635D02*
X0166921Y0033952D01*
X0166287Y0033952D01*
X0165970Y0033635D01*
X0167238Y0033635D02*
X0167238Y0033318D01*
X0165970Y0032050D01*
X0167238Y0032050D01*
X0165028Y0032050D02*
X0163760Y0032050D01*
X0164394Y0032050D02*
X0164394Y0033952D01*
X0163760Y0033318D01*
X0162818Y0033952D02*
X0162184Y0033952D01*
X0162501Y0033952D02*
X0162501Y0032367D01*
X0162184Y0032050D01*
X0161867Y0032050D01*
X0161550Y0032367D01*
X0105028Y0063635D02*
X0103760Y0062367D01*
X0103760Y0062050D01*
X0102501Y0062367D02*
X0102501Y0063952D01*
X0102184Y0063952D02*
X0102818Y0063952D01*
X0103760Y0063952D02*
X0105028Y0063952D01*
X0105028Y0063635D01*
X0102501Y0062367D02*
X0102184Y0062050D01*
X0101867Y0062050D01*
X0101550Y0062367D01*
X0096604Y0033952D02*
X0096604Y0032050D01*
X0097237Y0032050D02*
X0095970Y0032050D01*
X0095028Y0032050D02*
X0093760Y0032050D01*
X0094394Y0032050D02*
X0094394Y0033952D01*
X0093760Y0033318D01*
X0092818Y0033952D02*
X0092184Y0033952D01*
X0092501Y0033952D02*
X0092501Y0032367D01*
X0092184Y0032050D01*
X0091867Y0032050D01*
X0091550Y0032367D01*
X0095970Y0033318D02*
X0096604Y0033952D01*
X0022237Y0033635D02*
X0020970Y0032367D01*
X0021287Y0032050D01*
X0021921Y0032050D01*
X0022237Y0032367D01*
X0022237Y0033635D01*
X0021921Y0033952D01*
X0021287Y0033952D01*
X0020970Y0033635D01*
X0020970Y0032367D01*
X0020028Y0032050D02*
X0018760Y0032050D01*
X0019394Y0032050D02*
X0019394Y0033952D01*
X0018760Y0033318D01*
X0017818Y0033952D02*
X0017184Y0033952D01*
X0017501Y0033952D02*
X0017501Y0032367D01*
X0017184Y0032050D01*
X0016867Y0032050D01*
X0016550Y0032367D01*
X0009711Y0062050D02*
X0010028Y0062367D01*
X0010028Y0062684D01*
X0009711Y0063001D01*
X0008760Y0063001D01*
X0008760Y0062367D01*
X0009077Y0062050D01*
X0009711Y0062050D01*
X0008760Y0063001D02*
X0009394Y0063635D01*
X0010028Y0063952D01*
X0007818Y0063952D02*
X0007184Y0063952D01*
X0007501Y0063952D02*
X0007501Y0062367D01*
X0007184Y0062050D01*
X0006867Y0062050D01*
X0006550Y0062367D01*
X0006867Y0172050D02*
X0007184Y0172050D01*
X0007501Y0172367D01*
X0007501Y0173952D01*
X0007184Y0173952D02*
X0007818Y0173952D01*
X0008760Y0173635D02*
X0009077Y0173952D01*
X0009711Y0173952D01*
X0010028Y0173635D01*
X0010028Y0173318D01*
X0008760Y0172050D01*
X0010028Y0172050D01*
X0006867Y0172050D02*
X0006550Y0172367D01*
X0034550Y0180050D02*
X0037553Y0180050D01*
X0036051Y0180050D02*
X0036051Y0184554D01*
X0034550Y0183053D01*
X0081550Y0180801D02*
X0082301Y0180050D01*
X0083051Y0180050D01*
X0083802Y0180801D01*
X0083802Y0184554D01*
X0083051Y0184554D02*
X0084553Y0184554D01*
X0086154Y0183053D02*
X0087655Y0184554D01*
X0087655Y0180050D01*
X0086154Y0180050D02*
X0089156Y0180050D01*
X0102184Y0173952D02*
X0102818Y0173952D01*
X0102501Y0173952D02*
X0102501Y0172367D01*
X0102184Y0172050D01*
X0101867Y0172050D01*
X0101550Y0172367D01*
X0103760Y0172367D02*
X0104077Y0172050D01*
X0104711Y0172050D01*
X0105028Y0172367D01*
X0105028Y0172684D01*
X0104711Y0173001D01*
X0104394Y0173001D01*
X0104711Y0173001D02*
X0105028Y0173318D01*
X0105028Y0173635D01*
X0104711Y0173952D01*
X0104077Y0173952D01*
X0103760Y0173635D01*
X0196550Y0172367D02*
X0196867Y0172050D01*
X0197184Y0172050D01*
X0197501Y0172367D01*
X0197501Y0173952D01*
X0197184Y0173952D02*
X0197818Y0173952D01*
X0198760Y0173001D02*
X0200028Y0173001D01*
X0199711Y0173952D02*
X0198760Y0173001D01*
X0199711Y0172050D02*
X0199711Y0173952D01*
X0286550Y0172367D02*
X0286867Y0172050D01*
X0287184Y0172050D01*
X0287501Y0172367D01*
X0287501Y0173952D01*
X0287184Y0173952D02*
X0287818Y0173952D01*
X0288760Y0173952D02*
X0288760Y0173001D01*
X0289394Y0173318D01*
X0289711Y0173318D01*
X0290028Y0173001D01*
X0290028Y0172367D01*
X0289711Y0172050D01*
X0289077Y0172050D01*
X0288760Y0172367D01*
X0288760Y0173952D02*
X0290028Y0173952D01*
X0289711Y0063952D02*
X0289077Y0063952D01*
X0288760Y0063635D01*
X0288760Y0063318D01*
X0289077Y0063001D01*
X0290028Y0063001D01*
X0290028Y0063635D02*
X0289711Y0063952D01*
X0290028Y0063635D02*
X0290028Y0062367D01*
X0289711Y0062050D01*
X0289077Y0062050D01*
X0288760Y0062367D01*
X0287501Y0062367D02*
X0287501Y0063952D01*
X0287184Y0063952D02*
X0287818Y0063952D01*
X0287501Y0062367D02*
X0287184Y0062050D01*
X0286867Y0062050D01*
X0286550Y0062367D01*
D14*
X0288800Y0061300D02*
X0286300Y0058800D01*
X0286300Y0053800D01*
X0288800Y0051300D01*
X0293800Y0051300D01*
X0296300Y0053800D01*
X0298800Y0051300D01*
X0303800Y0051300D01*
X0306300Y0053800D01*
X0308800Y0051300D01*
X0313800Y0051300D01*
X0316300Y0053800D01*
X0318800Y0051300D01*
X0323800Y0051300D01*
X0326300Y0053800D01*
X0328800Y0051300D01*
X0333800Y0051300D01*
X0336300Y0053800D01*
X0336300Y0058800D01*
X0333800Y0061300D01*
X0328800Y0061300D01*
X0326300Y0058800D01*
X0323800Y0061300D01*
X0318800Y0061300D01*
X0316300Y0058800D01*
X0313800Y0061300D01*
X0308800Y0061300D01*
X0306300Y0058800D01*
X0303800Y0061300D01*
X0298800Y0061300D01*
X0296300Y0058800D01*
X0293800Y0061300D01*
X0288800Y0061300D01*
X0246300Y0058800D02*
X0246300Y0053800D01*
X0243800Y0051300D01*
X0238800Y0051300D01*
X0236300Y0053800D01*
X0233800Y0051300D01*
X0228800Y0051300D01*
X0226300Y0053800D01*
X0223800Y0051300D01*
X0218800Y0051300D01*
X0216300Y0053800D01*
X0213800Y0051300D01*
X0208800Y0051300D01*
X0206300Y0053800D01*
X0203800Y0051300D01*
X0198800Y0051300D01*
X0196300Y0053800D01*
X0196300Y0058800D01*
X0198800Y0061300D01*
X0203800Y0061300D01*
X0206300Y0058800D01*
X0208800Y0061300D01*
X0213800Y0061300D01*
X0216300Y0058800D01*
X0218800Y0061300D01*
X0223800Y0061300D01*
X0226300Y0058800D01*
X0228800Y0061300D01*
X0233800Y0061300D01*
X0236300Y0058800D01*
X0238800Y0061300D01*
X0243800Y0061300D01*
X0246300Y0058800D01*
X0243800Y0031300D02*
X0238800Y0031300D01*
X0236300Y0028800D01*
X0236300Y0023800D01*
X0238800Y0021300D01*
X0243800Y0021300D01*
X0246300Y0023800D01*
X0248800Y0021300D01*
X0253800Y0021300D01*
X0256300Y0023800D01*
X0258800Y0021300D01*
X0263800Y0021300D01*
X0266300Y0023800D01*
X0268800Y0021300D01*
X0273800Y0021300D01*
X0276300Y0023800D01*
X0278800Y0021300D01*
X0283800Y0021300D01*
X0286300Y0023800D01*
X0286300Y0028800D01*
X0283800Y0031300D01*
X0278800Y0031300D01*
X0276300Y0028800D01*
X0273800Y0031300D01*
X0268800Y0031300D01*
X0266300Y0028800D01*
X0263800Y0031300D01*
X0258800Y0031300D01*
X0256300Y0028800D01*
X0253800Y0031300D01*
X0248800Y0031300D01*
X0246300Y0028800D01*
X0243800Y0031300D01*
X0211300Y0028800D02*
X0211300Y0023800D01*
X0208800Y0021300D01*
X0203800Y0021300D01*
X0201300Y0023800D01*
X0198800Y0021300D01*
X0193800Y0021300D01*
X0191300Y0023800D01*
X0188800Y0021300D01*
X0183800Y0021300D01*
X0181300Y0023800D01*
X0178800Y0021300D01*
X0173800Y0021300D01*
X0171300Y0023800D01*
X0168800Y0021300D01*
X0163800Y0021300D01*
X0161300Y0023800D01*
X0161300Y0028800D01*
X0163800Y0031300D01*
X0168800Y0031300D01*
X0171300Y0028800D01*
X0173800Y0031300D01*
X0178800Y0031300D01*
X0181300Y0028800D01*
X0183800Y0031300D01*
X0188800Y0031300D01*
X0191300Y0028800D01*
X0193800Y0031300D01*
X0198800Y0031300D01*
X0201300Y0028800D01*
X0203800Y0031300D01*
X0208800Y0031300D01*
X0211300Y0028800D01*
X0151300Y0053800D02*
X0151300Y0058800D01*
X0148800Y0061300D01*
X0143800Y0061300D01*
X0141300Y0058800D01*
X0138800Y0061300D01*
X0133800Y0061300D01*
X0131300Y0058800D01*
X0128800Y0061300D01*
X0123800Y0061300D01*
X0121300Y0058800D01*
X0118800Y0061300D01*
X0113800Y0061300D01*
X0111300Y0058800D01*
X0108800Y0061300D01*
X0103800Y0061300D01*
X0101300Y0058800D01*
X0101300Y0053800D01*
X0103800Y0051300D01*
X0108800Y0051300D01*
X0111300Y0053800D01*
X0113800Y0051300D01*
X0118800Y0051300D01*
X0121300Y0053800D01*
X0123800Y0051300D01*
X0128800Y0051300D01*
X0131300Y0053800D01*
X0133800Y0051300D01*
X0138800Y0051300D01*
X0141300Y0053800D01*
X0143800Y0051300D01*
X0148800Y0051300D01*
X0151300Y0053800D01*
X0138800Y0031300D02*
X0133800Y0031300D01*
X0131300Y0028800D01*
X0128800Y0031300D01*
X0123800Y0031300D01*
X0121300Y0028800D01*
X0118800Y0031300D01*
X0113800Y0031300D01*
X0111300Y0028800D01*
X0108800Y0031300D01*
X0103800Y0031300D01*
X0101300Y0028800D01*
X0098800Y0031300D01*
X0093800Y0031300D01*
X0091300Y0028800D01*
X0091300Y0023800D01*
X0093800Y0021300D01*
X0098800Y0021300D01*
X0101300Y0023800D01*
X0103800Y0021300D01*
X0108800Y0021300D01*
X0111300Y0023800D01*
X0113800Y0021300D01*
X0118800Y0021300D01*
X0121300Y0023800D01*
X0123800Y0021300D01*
X0128800Y0021300D01*
X0131300Y0023800D01*
X0133800Y0021300D01*
X0138800Y0021300D01*
X0141300Y0023800D01*
X0141300Y0028800D01*
X0138800Y0031300D01*
X0066300Y0028800D02*
X0066300Y0023800D01*
X0063800Y0021300D01*
X0058800Y0021300D01*
X0056300Y0023800D01*
X0053800Y0021300D01*
X0048800Y0021300D01*
X0046300Y0023800D01*
X0043800Y0021300D01*
X0038800Y0021300D01*
X0036300Y0023800D01*
X0033800Y0021300D01*
X0028800Y0021300D01*
X0026300Y0023800D01*
X0023800Y0021300D01*
X0018800Y0021300D01*
X0016300Y0023800D01*
X0016300Y0028800D01*
X0018800Y0031300D01*
X0023800Y0031300D01*
X0026300Y0028800D01*
X0028800Y0031300D01*
X0033800Y0031300D01*
X0036300Y0028800D01*
X0038800Y0031300D01*
X0043800Y0031300D01*
X0046300Y0028800D01*
X0048800Y0031300D01*
X0053800Y0031300D01*
X0056300Y0028800D01*
X0058800Y0031300D01*
X0063800Y0031300D01*
X0066300Y0028800D01*
X0053800Y0051300D02*
X0048800Y0051300D01*
X0046300Y0053800D01*
X0043800Y0051300D01*
X0038800Y0051300D01*
X0036300Y0053800D01*
X0033800Y0051300D01*
X0028800Y0051300D01*
X0026300Y0053800D01*
X0023800Y0051300D01*
X0018800Y0051300D01*
X0016300Y0053800D01*
X0013800Y0051300D01*
X0008800Y0051300D01*
X0006300Y0053800D01*
X0006300Y0058800D01*
X0008800Y0061300D01*
X0013800Y0061300D01*
X0016300Y0058800D01*
X0018800Y0061300D01*
X0023800Y0061300D01*
X0026300Y0058800D01*
X0028800Y0061300D01*
X0033800Y0061300D01*
X0036300Y0058800D01*
X0038800Y0061300D01*
X0043800Y0061300D01*
X0046300Y0058800D01*
X0048800Y0061300D01*
X0053800Y0061300D01*
X0056300Y0058800D01*
X0056300Y0053800D01*
X0053800Y0051300D01*
X0053800Y0161300D02*
X0048800Y0161300D01*
X0046300Y0163800D01*
X0043800Y0161300D01*
X0038800Y0161300D01*
X0036300Y0163800D01*
X0033800Y0161300D01*
X0028800Y0161300D01*
X0026300Y0163800D01*
X0023800Y0161300D01*
X0018800Y0161300D01*
X0016300Y0163800D01*
X0013800Y0161300D01*
X0008800Y0161300D01*
X0006300Y0163800D01*
X0006300Y0168800D01*
X0008800Y0171300D01*
X0013800Y0171300D01*
X0016300Y0168800D01*
X0018800Y0171300D01*
X0023800Y0171300D01*
X0026300Y0168800D01*
X0028800Y0171300D01*
X0033800Y0171300D01*
X0036300Y0168800D01*
X0038800Y0171300D01*
X0043800Y0171300D01*
X0046300Y0168800D01*
X0048800Y0171300D01*
X0053800Y0171300D01*
X0056300Y0168800D01*
X0056300Y0163800D01*
X0053800Y0161300D01*
X0101300Y0163800D02*
X0103800Y0161300D01*
X0108800Y0161300D01*
X0111300Y0163800D01*
X0113800Y0161300D01*
X0118800Y0161300D01*
X0121300Y0163800D01*
X0123800Y0161300D01*
X0128800Y0161300D01*
X0131300Y0163800D01*
X0133800Y0161300D01*
X0138800Y0161300D01*
X0141300Y0163800D01*
X0143800Y0161300D01*
X0148800Y0161300D01*
X0151300Y0163800D01*
X0151300Y0168800D01*
X0148800Y0171300D01*
X0143800Y0171300D01*
X0141300Y0168800D01*
X0138800Y0171300D01*
X0133800Y0171300D01*
X0131300Y0168800D01*
X0128800Y0171300D01*
X0123800Y0171300D01*
X0121300Y0168800D01*
X0118800Y0171300D01*
X0113800Y0171300D01*
X0111300Y0168800D01*
X0108800Y0171300D01*
X0103800Y0171300D01*
X0101300Y0168800D01*
X0101300Y0163800D01*
X0196300Y0163800D02*
X0198800Y0161300D01*
X0203800Y0161300D01*
X0206300Y0163800D01*
X0208800Y0161300D01*
X0213800Y0161300D01*
X0216300Y0163800D01*
X0218800Y0161300D01*
X0223800Y0161300D01*
X0226300Y0163800D01*
X0228800Y0161300D01*
X0233800Y0161300D01*
X0236300Y0163800D01*
X0238800Y0161300D01*
X0243800Y0161300D01*
X0246300Y0163800D01*
X0246300Y0168800D01*
X0243800Y0171300D01*
X0238800Y0171300D01*
X0236300Y0168800D01*
X0233800Y0171300D01*
X0228800Y0171300D01*
X0226300Y0168800D01*
X0223800Y0171300D01*
X0218800Y0171300D01*
X0216300Y0168800D01*
X0213800Y0171300D01*
X0208800Y0171300D01*
X0206300Y0168800D01*
X0203800Y0171300D01*
X0198800Y0171300D01*
X0196300Y0168800D01*
X0196300Y0163800D01*
X0286300Y0163800D02*
X0288800Y0161300D01*
X0293800Y0161300D01*
X0296300Y0163800D01*
X0298800Y0161300D01*
X0303800Y0161300D01*
X0306300Y0163800D01*
X0308800Y0161300D01*
X0313800Y0161300D01*
X0316300Y0163800D01*
X0318800Y0161300D01*
X0323800Y0161300D01*
X0326300Y0163800D01*
X0328800Y0161300D01*
X0333800Y0161300D01*
X0336300Y0163800D01*
X0336300Y0168800D01*
X0333800Y0171300D01*
X0328800Y0171300D01*
X0326300Y0168800D01*
X0323800Y0171300D01*
X0318800Y0171300D01*
X0316300Y0168800D01*
X0313800Y0171300D01*
X0308800Y0171300D01*
X0306300Y0168800D01*
X0303800Y0171300D01*
X0298800Y0171300D01*
X0296300Y0168800D01*
X0293800Y0171300D01*
X0288800Y0171300D01*
X0286300Y0168800D01*
X0286300Y0163800D01*
M02*
