%
M48
M72
T01C0.04000
%
T01
X21300Y26300
X31300Y26300
X41300Y26300
X51300Y26300
X61300Y26300
X96300Y26300
X106300Y26300
X116300Y26300
X126300Y26300
X136300Y26300
X166300Y26300
X176300Y26300
X186300Y26300
X196300Y26300
X206300Y26300
X241300Y26300
X251300Y26300
X261300Y26300
X271300Y26300
X281300Y26300
X291300Y56300
X301300Y56300
X311300Y56300
X321300Y56300
X331300Y56300
X241300Y56300
X231300Y56300
X221300Y56300
X211300Y56300
X201300Y56300
X146300Y56300
X136300Y56300
X126300Y56300
X116300Y56300
X106300Y56300
X51300Y56300
X41300Y56300
X31300Y56300
X21300Y56300
X11300Y56300
X11300Y166300
X21300Y166300
X31300Y166300
X41300Y166300
X51300Y166300
X46300Y191300
X36300Y191300
X36300Y201300
X46300Y201300
X56300Y201300
X66300Y201300
X76300Y201300
X86300Y201300
X96300Y201300
X106300Y201300
X116300Y201300
X126300Y201300
X136300Y201300
X146300Y201300
X156300Y201300
X166300Y201300
X176300Y201300
X186300Y201300
X196300Y201300
X206300Y201300
X216300Y201300
X226300Y201300
X226300Y191300
X216300Y191300
X206300Y191300
X196300Y191300
X186300Y191300
X176300Y191300
X166300Y191300
X156300Y191300
X146300Y191300
X136300Y191300
X126300Y191300
X116300Y191300
X106300Y191300
X96300Y191300
X86300Y191300
X76300Y191300
X66300Y191300
X56300Y191300
X106300Y166300
X116300Y166300
X126300Y166300
X136300Y166300
X146300Y166300
X201300Y166300
X211300Y166300
X221300Y166300
X231300Y166300
X241300Y166300
X291300Y166300
X301300Y166300
X311300Y166300
X321300Y166300
X331300Y166300
M30
