%
M48
M72
T01C0.04000
T02C0.12992
%
T01
X46300Y26300
X56300Y26300
X66300Y26300
X76300Y26300
X86300Y26300
X121300Y26300
X131300Y26300
X141300Y26300
X151300Y26300
X161300Y26300
X191300Y26300
X201300Y26300
X211300Y26300
X221300Y26300
X231300Y26300
X266300Y26300
X276300Y26300
X286300Y26300
X296300Y26300
X306300Y26300
X316300Y56300
X326300Y56300
X336300Y56300
X346300Y56300
X356300Y56300
X266300Y56300
X256300Y56300
X246300Y56300
X236300Y56300
X226300Y56300
X171300Y56300
X161300Y56300
X151300Y56300
X141300Y56300
X131300Y56300
X76300Y56300
X66300Y56300
X56300Y56300
X46300Y56300
X36300Y56300
X36300Y166300
X46300Y166300
X56300Y166300
X66300Y166300
X76300Y166300
X71300Y191300
X61300Y191300
X61300Y201300
X71300Y201300
X81300Y201300
X91300Y201300
X101300Y201300
X111300Y201300
X121300Y201300
X131300Y201300
X141300Y201300
X151300Y201300
X161300Y201300
X171300Y201300
X181300Y201300
X191300Y201300
X201300Y201300
X211300Y201300
X221300Y201300
X231300Y201300
X241300Y201300
X251300Y201300
X251300Y191300
X241300Y191300
X231300Y191300
X221300Y191300
X211300Y191300
X201300Y191300
X191300Y191300
X181300Y191300
X171300Y191300
X161300Y191300
X151300Y191300
X141300Y191300
X131300Y191300
X121300Y191300
X111300Y191300
X101300Y191300
X91300Y191300
X81300Y191300
X131300Y166300
X141300Y166300
X151300Y166300
X161300Y166300
X171300Y166300
X226300Y166300
X236300Y166300
X246300Y166300
X256300Y166300
X266300Y166300
X316300Y166300
X326300Y166300
X336300Y166300
X346300Y166300
X356300Y166300
T02
X21300Y21300
X21300Y191300
X346300Y191300
X346300Y21300
M30
