G75*
%MOIN*%
%OFA0B0*%
%FSLAX25Y25*%
%IPPOS*%
%LPD*%
%AMOC8*
5,1,8,0,0,1.08239X$1,22.5*
%
%ADD10C,0.00600*%
%ADD11R,0.06000X0.06000*%
%ADD12OC8,0.06000*%
%ADD13C,0.07400*%
%ADD14C,0.23000*%
D10*
X0001300Y0001300D02*
X0001300Y0211300D01*
X0366300Y0211300D01*
X0366300Y0001300D01*
X0001300Y0001300D01*
X0046300Y0026300D02*
X0046300Y0046300D01*
X0036300Y0056300D01*
X0046300Y0056300D02*
X0056300Y0046300D01*
X0056300Y0026300D01*
X0066300Y0026300D02*
X0066300Y0046300D01*
X0056300Y0056300D01*
X0066300Y0056300D02*
X0076300Y0046300D01*
X0076300Y0026300D01*
X0131300Y0026300D02*
X0131300Y0046300D01*
X0141300Y0056300D01*
X0151300Y0056300D02*
X0141300Y0046300D01*
X0141300Y0026300D01*
X0151300Y0026300D02*
X0151300Y0046300D01*
X0161300Y0056300D01*
X0171300Y0056300D02*
X0161300Y0046300D01*
X0161300Y0026300D01*
X0149425Y0161300D02*
X0221300Y0161300D01*
X0226300Y0166300D01*
X0236300Y0166300D01*
X0241300Y0161300D01*
X0268175Y0161300D01*
X0273175Y0166300D01*
X0316300Y0166300D01*
X0326300Y0166300D01*
X0341300Y0171300D02*
X0346300Y0166300D01*
X0341300Y0171300D02*
X0265675Y0171300D01*
X0245675Y0191300D01*
X0241300Y0191300D01*
X0151300Y0166300D02*
X0131300Y0186300D01*
X0131300Y0191300D01*
X0131300Y0166300D02*
X0126300Y0161300D01*
X0054425Y0161300D01*
X0049425Y0166300D01*
X0046300Y0166300D01*
X0036300Y0166300D01*
X0076300Y0166300D02*
X0076300Y0191925D01*
X0081300Y0196925D01*
X0081300Y0201300D01*
X0131300Y0166300D02*
X0141300Y0166300D01*
X0144425Y0166300D01*
X0149425Y0161300D01*
D11*
X0061300Y0191300D03*
D12*
X0071300Y0191300D03*
X0081300Y0191300D03*
X0091300Y0191300D03*
X0101300Y0191300D03*
X0111300Y0191300D03*
X0121300Y0191300D03*
X0131300Y0191300D03*
X0141300Y0191300D03*
X0151300Y0191300D03*
X0161300Y0191300D03*
X0171300Y0191300D03*
X0181300Y0191300D03*
X0191300Y0191300D03*
X0201300Y0191300D03*
X0211300Y0191300D03*
X0221300Y0191300D03*
X0231300Y0191300D03*
X0241300Y0191300D03*
X0251300Y0191300D03*
X0251300Y0201300D03*
X0241300Y0201300D03*
X0231300Y0201300D03*
X0221300Y0201300D03*
X0211300Y0201300D03*
X0201300Y0201300D03*
X0191300Y0201300D03*
X0181300Y0201300D03*
X0171300Y0201300D03*
X0161300Y0201300D03*
X0151300Y0201300D03*
X0141300Y0201300D03*
X0131300Y0201300D03*
X0121300Y0201300D03*
X0111300Y0201300D03*
X0101300Y0201300D03*
X0091300Y0201300D03*
X0081300Y0201300D03*
X0071300Y0201300D03*
X0061300Y0201300D03*
D13*
X0056300Y0166300D03*
X0046300Y0166300D03*
X0036300Y0166300D03*
X0066300Y0166300D03*
X0076300Y0166300D03*
X0131300Y0166300D03*
X0141300Y0166300D03*
X0151300Y0166300D03*
X0161300Y0166300D03*
X0171300Y0166300D03*
X0226300Y0166300D03*
X0236300Y0166300D03*
X0246300Y0166300D03*
X0256300Y0166300D03*
X0266300Y0166300D03*
X0316300Y0166300D03*
X0326300Y0166300D03*
X0336300Y0166300D03*
X0346300Y0166300D03*
X0356300Y0166300D03*
X0356300Y0056300D03*
X0346300Y0056300D03*
X0336300Y0056300D03*
X0326300Y0056300D03*
X0316300Y0056300D03*
X0306300Y0026300D03*
X0296300Y0026300D03*
X0286300Y0026300D03*
X0276300Y0026300D03*
X0266300Y0026300D03*
X0231300Y0026300D03*
X0221300Y0026300D03*
X0211300Y0026300D03*
X0201300Y0026300D03*
X0191300Y0026300D03*
X0161300Y0026300D03*
X0151300Y0026300D03*
X0141300Y0026300D03*
X0131300Y0026300D03*
X0121300Y0026300D03*
X0086300Y0026300D03*
X0076300Y0026300D03*
X0066300Y0026300D03*
X0056300Y0026300D03*
X0046300Y0026300D03*
X0046300Y0056300D03*
X0036300Y0056300D03*
X0056300Y0056300D03*
X0066300Y0056300D03*
X0076300Y0056300D03*
X0131300Y0056300D03*
X0141300Y0056300D03*
X0151300Y0056300D03*
X0161300Y0056300D03*
X0171300Y0056300D03*
X0226300Y0056300D03*
X0236300Y0056300D03*
X0246300Y0056300D03*
X0256300Y0056300D03*
X0266300Y0056300D03*
D14*
X0346300Y0021300D03*
X0346300Y0191300D03*
X0021300Y0191300D03*
X0021300Y0021300D03*
M02*
